{"glyphs":{"0":{"ha":867,"x_min":78,"x_max":796,"o":"m 375 -11 q 151 78 224 -11 q 78 308 78 168 q 134 553 78 443 q 287 725 190 663 q 500 788 383 788 q 724 701 653 788 q 796 468 796 614 q 741 229 796 339 q 590 54 686 119 q 375 -11 493 -11 m 388 54 q 534 115 474 54 q 624 270 594 176 q 654 463 654 364 q 613 653 654 583 q 483 724 571 724 q 333 660 393 724 q 246 503 274 597 q 218 315 218 410 q 260 127 218 200 q 388 54 301 54 z "},"1":{"ha":625,"x_min":69,"x_max":519,"o":"m 224 69 l 307 640 q 240 619 299 638 q 118 590 181 601 l 108 651 q 256 706 175 665 q 400 788 338 746 l 463 772 l 363 71 l 519 54 l 514 0 l 69 0 l 76 54 l 224 69 z "},"2":{"ha":817,"x_min":32,"x_max":736,"o":"m 32 53 q 394 292 250 163 q 539 543 539 422 q 500 658 539 617 q 382 699 461 699 q 142 593 261 699 l 107 653 q 240 746 157 704 q 428 788 324 788 q 626 725 567 788 q 686 567 686 663 q 540 306 686 435 q 186 74 394 178 l 604 100 l 671 224 l 736 201 l 679 0 l 44 0 l 32 53 z "},"3":{"ha":739,"x_min":11,"x_max":638,"o":"m 138 -231 q 11 -218 101 -231 l 25 -144 q 119 -153 72 -153 q 305 -119 221 -153 q 438 -26 389 -86 q 486 108 486 33 q 437 228 486 185 q 282 268 388 271 q 215 250 278 267 q 175 239 182 242 l 183 313 q 406 410 318 342 q 494 571 494 479 q 458 663 494 631 q 357 696 421 696 q 233 672 289 696 q 121 608 176 649 l 93 669 q 224 750 136 713 q 411 788 311 788 q 573 740 508 788 q 638 597 638 692 q 565 433 638 510 q 389 318 492 357 q 574 271 514 325 q 633 125 633 217 q 563 -59 633 22 q 377 -185 492 -140 q 138 -231 263 -231 z "},"4":{"ha":851,"x_min":11,"x_max":779,"o":"m 475 0 l 39 0 l 11 53 q 238 403 107 179 q 476 851 369 626 l 499 851 l 614 790 q 214 171 528 631 q 129 64 142 81 l 485 81 l 521 360 l 653 397 l 615 90 l 779 100 l 767 0 l 601 0 l 569 -254 l 442 -254 l 475 0 z "},"5":{"ha":754,"x_min":28,"x_max":708,"o":"m 36 -160 q 101 -168 78 -168 q 299 -127 207 -168 q 447 -17 392 -86 q 501 135 501 53 q 454 272 501 226 q 308 318 407 318 q 124 274 235 318 l 93 297 l 203 778 l 614 778 l 626 788 l 708 788 l 676 672 l 299 672 l 217 361 q 297 386 247 375 q 389 397 347 397 q 583 334 511 397 q 654 156 654 271 q 578 -51 654 38 q 381 -188 503 -140 q 129 -236 260 -236 q 76 -233 107 -236 q 28 -224 44 -229 l 36 -160 z "},"6":{"ha":840,"x_min":83,"x_max":754,"o":"m 379 -14 q 221 30 288 -14 q 119 151 154 74 q 83 324 83 228 q 160 642 83 488 q 370 908 236 796 q 669 1065 504 1021 l 692 1007 q 503 903 592 972 q 350 744 415 833 q 254 563 285 654 q 356 635 294 606 q 500 665 417 665 q 689 592 624 665 q 754 406 754 518 q 706 201 754 299 q 572 45 658 104 q 379 -14 486 -14 m 396 56 q 518 104 468 56 q 592 226 568 153 q 617 375 617 300 q 575 529 617 475 q 463 583 533 583 q 327 549 379 583 q 240 468 275 514 q 221 299 221 382 q 264 121 221 186 q 396 56 307 56 z "},"7":{"ha":743,"x_min":61,"x_max":742,"o":"m 632 683 l 207 683 l 150 535 l 61 536 l 107 778 l 721 778 l 742 750 l 332 -225 l 197 -181 l 632 683 z "},"8":{"ha":825,"x_min":74,"x_max":775,"o":"m 74 229 q 149 410 74 329 q 344 540 225 490 q 235 656 278 596 q 192 789 192 717 q 233 925 192 865 q 347 1019 274 985 q 513 1053 419 1053 q 705 997 635 1053 q 775 842 775 940 q 710 681 775 753 q 533 556 646 608 q 676 422 619 494 q 732 271 732 350 q 681 120 732 185 q 546 21 629 56 q 371 -14 463 -14 q 227 12 294 -14 q 117 92 160 38 q 74 229 74 147 m 478 594 q 606 693 558 632 q 653 833 653 754 q 611 951 653 910 q 504 993 569 993 q 369 942 422 993 q 317 810 317 892 q 358 699 317 747 q 478 594 400 650 m 207 242 q 255 106 207 160 q 389 51 303 51 q 494 76 446 51 q 570 146 542 101 q 599 249 599 190 q 549 371 599 317 q 396 496 499 425 q 263 392 317 460 q 207 242 208 325 z "},"9":{"ha":844,"x_min":88,"x_max":758,"o":"m 463 788 q 621 745 554 788 q 723 628 688 703 q 758 457 758 553 q 681 133 758 289 q 470 -135 604 -22 q 171 -292 336 -247 l 149 -233 q 338 -130 249 -199 q 494 28 428 -61 q 589 211 560 118 q 486 138 549 168 q 342 107 424 107 q 201 146 258 107 q 115 249 143 185 q 88 390 88 314 q 134 581 88 489 q 266 730 181 672 q 463 788 351 788 m 446 719 q 324 673 375 719 q 248 557 274 626 q 222 418 222 488 q 265 249 222 308 q 379 190 308 190 q 601 304 513 190 q 622 471 622 388 q 578 651 622 583 q 446 719 533 719 z "},"\u0000":{"ha":833,"x_min":0,"x_max":0,"o":""},"\r":{"ha":329,"x_min":0,"x_max":0,"o":""}," ":{"ha":329,"x_min":0,"x_max":0,"o":""},"A":{"ha":911,"x_min":-89,"x_max":908,"o":"m 481 1032 l 621 1032 l 796 72 l 908 54 l 906 0 l 529 0 l 532 54 l 653 71 l 614 304 l 233 304 l 125 71 l 251 54 l 246 0 l -89 0 l -83 54 l 11 71 l 481 1032 m 521 928 l 268 379 l 603 379 l 529 835 l 521 928 z "},"Á":{"ha":911,"x_min":-89,"x_max":908,"o":"m 481 1032 l 621 1032 l 796 72 l 908 54 l 906 0 l 529 0 l 532 54 l 653 71 l 614 304 l 233 304 l 125 71 l 251 54 l 246 0 l -89 0 l -83 54 l 11 71 l 481 1032 m 521 928 l 268 379 l 603 379 l 529 835 l 521 928 m 692 1360 l 774 1279 q 678 1174 749 1231 q 547 1086 608 1118 l 501 1124 l 692 1360 z "},"Ă":{"ha":911,"x_min":-89,"x_max":908,"o":"m 481 1032 l 621 1032 l 796 72 l 908 54 l 906 0 l 529 0 l 532 54 l 653 71 l 614 304 l 233 304 l 125 71 l 251 54 l 246 0 l -89 0 l -83 54 l 11 71 l 481 1032 m 521 928 l 268 379 l 603 379 l 529 835 l 521 928 m 565 1108 q 414 1169 461 1108 q 367 1317 367 1231 q 368 1349 367 1339 l 443 1349 q 472 1247 446 1288 q 568 1206 497 1206 q 676 1249 639 1206 q 721 1349 713 1292 l 793 1349 q 763 1231 793 1286 q 680 1142 732 1175 q 565 1108 628 1108 z "},"Ắ":{"ha":911,"x_min":-89,"x_max":908,"o":"m 708 1663 l 782 1590 q 688 1487 764 1558 q 564 1392 613 1415 l 529 1424 l 708 1663 m 561 1156 q 451 1187 496 1156 q 383 1268 406 1218 q 361 1374 361 1318 l 361 1396 l 436 1396 l 438 1372 q 474 1290 443 1325 q 563 1254 504 1254 q 669 1299 631 1254 q 715 1396 707 1344 l 788 1396 q 786 1375 788 1381 q 752 1272 782 1322 q 672 1188 722 1221 q 561 1156 622 1156 m 481 1032 l 621 1032 l 796 72 l 908 54 l 906 0 l 529 0 l 532 54 l 653 71 l 614 304 l 233 304 l 125 71 l 251 54 l 246 0 l -89 0 l -83 54 l 11 71 l 481 1032 m 521 928 l 268 379 l 603 379 l 529 835 l 521 928 z "},"Ặ":{"ha":911,"x_min":-89,"x_max":908,"o":"m 481 1032 l 621 1032 l 796 72 l 908 54 l 906 0 l 529 0 l 532 54 l 653 71 l 614 304 l 233 304 l 125 71 l 251 54 l 246 0 l -89 0 l -83 54 l 11 71 l 481 1032 m 521 928 l 268 379 l 603 379 l 529 835 l 521 928 m 307 -203 q 333 -136 307 -162 q 392 -110 358 -110 q 440 -128 424 -110 q 456 -175 456 -146 q 428 -243 456 -218 q 367 -268 401 -268 q 323 -251 339 -268 q 307 -203 307 -233 m 565 1108 q 414 1169 461 1108 q 367 1317 367 1231 q 368 1349 367 1339 l 443 1349 q 472 1247 446 1288 q 568 1206 497 1206 q 676 1249 639 1206 q 721 1349 713 1292 l 793 1349 q 763 1231 793 1286 q 680 1142 732 1175 q 565 1108 628 1108 z "},"Ằ":{"ha":911,"x_min":-89,"x_max":908,"o":"m 592 1383 q 478 1473 550 1407 q 383 1578 406 1539 l 461 1653 l 629 1414 l 592 1383 m 560 1158 q 449 1190 494 1158 q 382 1271 404 1221 q 360 1376 360 1321 l 360 1399 l 435 1399 l 436 1375 q 472 1292 442 1328 q 561 1257 503 1257 q 667 1302 629 1257 q 714 1399 706 1347 l 786 1399 q 785 1378 786 1383 q 751 1274 781 1325 q 671 1191 721 1224 q 560 1158 621 1158 m 481 1032 l 621 1032 l 796 72 l 908 54 l 906 0 l 529 0 l 532 54 l 653 71 l 614 304 l 233 304 l 125 71 l 251 54 l 246 0 l -89 0 l -83 54 l 11 71 l 481 1032 m 521 928 l 268 379 l 603 379 l 529 835 l 521 928 z "},"Ẳ":{"ha":911,"x_min":-89,"x_max":908,"o":"m 549 1388 q 538 1415 543 1397 q 533 1443 532 1432 q 549 1469 538 1460 q 583 1494 560 1479 q 615 1515 604 1507 q 632 1538 626 1524 l 633 1543 q 635 1557 635 1547 q 575 1604 635 1599 q 532 1600 539 1604 l 544 1689 q 567 1694 547 1692 q 601 1697 588 1697 q 708 1670 669 1697 q 746 1592 746 1643 q 743 1560 746 1571 q 717 1508 738 1528 q 658 1465 696 1488 l 626 1444 q 603 1394 601 1428 l 549 1388 m 563 1156 q 452 1187 497 1156 q 385 1268 407 1218 q 363 1374 363 1318 l 363 1396 l 438 1396 l 439 1372 q 475 1290 444 1325 q 564 1254 506 1254 q 670 1299 632 1254 q 717 1396 708 1344 l 789 1396 q 788 1375 789 1381 q 753 1272 783 1322 q 674 1188 724 1221 q 563 1156 624 1156 m 481 1032 l 621 1032 l 796 72 l 908 54 l 906 0 l 529 0 l 532 54 l 653 71 l 614 304 l 233 304 l 125 71 l 251 54 l 246 0 l -89 0 l -83 54 l 11 71 l 481 1032 m 521 928 l 268 379 l 603 379 l 529 835 l 521 928 z "},"Ẵ":{"ha":911,"x_min":-89,"x_max":908,"o":"m 481 1032 l 621 1032 l 796 72 l 908 54 l 906 0 l 529 0 l 532 54 l 653 71 l 614 304 l 233 304 l 125 71 l 251 54 l 246 0 l -89 0 l -83 54 l 11 71 l 481 1032 m 521 928 l 268 379 l 603 379 l 529 835 l 521 928 m 561 1151 q 451 1183 496 1151 q 383 1264 406 1214 q 361 1369 361 1314 l 361 1392 l 436 1392 l 438 1368 q 474 1285 443 1321 q 563 1250 504 1250 q 669 1295 631 1250 q 715 1392 707 1340 l 788 1392 q 786 1371 788 1376 q 752 1267 782 1318 q 672 1184 722 1217 q 561 1151 622 1151 m 357 1538 q 427 1617 381 1583 q 522 1651 474 1651 q 578 1638 556 1651 q 629 1596 600 1624 q 666 1563 650 1574 q 703 1551 682 1551 q 761 1573 738 1551 q 810 1629 785 1594 l 849 1568 q 785 1483 832 1519 q 686 1447 738 1447 q 624 1461 646 1447 q 574 1504 601 1475 q 538 1536 554 1525 q 497 1549 521 1547 q 389 1482 453 1549 l 357 1538 z "},"Â":{"ha":911,"x_min":-89,"x_max":908,"o":"m 481 1032 l 621 1032 l 796 72 l 908 54 l 906 0 l 529 0 l 532 54 l 653 71 l 614 304 l 233 304 l 125 71 l 251 54 l 246 0 l -89 0 l -83 54 l 11 71 l 481 1032 m 521 928 l 268 379 l 603 379 l 529 835 l 521 928 m 331 1133 l 557 1360 l 657 1360 l 806 1132 l 756 1097 l 600 1263 l 374 1099 l 331 1133 z "},"Ấ":{"ha":911,"x_min":-89,"x_max":1024,"o":"m 950 1593 l 1024 1521 q 930 1417 1006 1489 q 806 1322 854 1346 l 771 1354 l 950 1593 m 314 1175 l 553 1425 l 653 1425 l 792 1174 l 740 1140 l 588 1324 l 357 1142 l 314 1175 m 481 1032 l 621 1032 l 796 72 l 908 54 l 906 0 l 529 0 l 532 54 l 653 71 l 614 304 l 233 304 l 125 71 l 251 54 l 246 0 l -89 0 l -83 54 l 11 71 l 481 1032 m 521 928 l 268 379 l 603 379 l 529 835 l 521 928 z "},"Ậ":{"ha":911,"x_min":-89,"x_max":908,"o":"m 481 1032 l 621 1032 l 796 72 l 908 54 l 906 0 l 529 0 l 532 54 l 653 71 l 614 304 l 233 304 l 125 71 l 251 54 l 246 0 l -89 0 l -83 54 l 11 71 l 481 1032 m 521 928 l 268 379 l 603 379 l 529 835 l 521 928 m 307 -203 q 333 -136 307 -162 q 392 -110 358 -110 q 440 -128 424 -110 q 456 -175 456 -146 q 428 -243 456 -218 q 367 -268 401 -268 q 323 -251 339 -268 q 307 -203 307 -233 m 331 1133 l 557 1360 l 657 1360 l 806 1132 l 756 1097 l 600 1263 l 374 1099 l 331 1133 z "},"Ầ":{"ha":911,"x_min":-89,"x_max":908,"o":"m 818 1394 q 704 1484 776 1418 q 610 1589 632 1550 l 688 1664 l 856 1425 l 818 1394 m 318 1185 l 557 1435 l 657 1435 l 796 1183 l 744 1150 l 592 1333 l 361 1151 l 318 1185 m 481 1032 l 621 1032 l 796 72 l 908 54 l 906 0 l 529 0 l 532 54 l 653 71 l 614 304 l 233 304 l 125 71 l 251 54 l 246 0 l -89 0 l -83 54 l 11 71 l 481 1032 m 521 928 l 268 379 l 603 379 l 529 835 l 521 928 z "},"Ẩ":{"ha":911,"x_min":-89,"x_max":976,"o":"m 793 1321 q 783 1347 788 1331 q 779 1372 778 1364 q 794 1398 782 1388 q 826 1421 806 1408 q 856 1441 846 1433 q 871 1461 865 1449 l 872 1467 q 874 1478 874 1471 q 860 1508 874 1496 q 818 1524 847 1521 q 778 1519 783 1524 l 790 1601 q 810 1608 792 1606 q 843 1610 829 1610 q 942 1585 907 1610 q 976 1511 976 1560 q 974 1482 976 1504 q 949 1435 968 1453 q 896 1396 931 1417 q 865 1375 874 1382 q 843 1329 843 1360 l 793 1321 m 313 1188 l 551 1438 l 651 1438 l 790 1186 l 739 1153 l 586 1336 l 356 1154 l 313 1188 m 481 1032 l 621 1032 l 796 72 l 908 54 l 906 0 l 529 0 l 532 54 l 653 71 l 614 304 l 233 304 l 125 71 l 251 54 l 246 0 l -89 0 l -83 54 l 11 71 l 481 1032 m 521 928 l 268 379 l 603 379 l 529 835 l 521 928 z "},"Ẫ":{"ha":911,"x_min":-89,"x_max":908,"o":"m 392 1550 q 455 1623 413 1592 q 542 1654 497 1654 q 593 1641 572 1654 q 638 1603 614 1628 q 673 1572 658 1582 q 706 1563 688 1563 q 758 1581 738 1563 q 803 1633 779 1600 l 838 1578 q 780 1501 822 1533 q 690 1468 738 1468 q 633 1481 654 1468 q 589 1519 611 1494 q 555 1550 569 1540 q 519 1560 540 1560 q 421 1500 478 1560 l 392 1550 m 307 1179 l 546 1429 l 646 1429 l 785 1178 l 733 1144 l 581 1328 l 350 1146 l 307 1179 m 481 1032 l 621 1032 l 796 72 l 908 54 l 906 0 l 529 0 l 532 54 l 653 71 l 614 304 l 233 304 l 125 71 l 251 54 l 246 0 l -89 0 l -83 54 l 11 71 l 481 1032 m 521 928 l 268 379 l 603 379 l 529 835 l 521 928 z "},"Ä":{"ha":911,"x_min":-89,"x_max":908,"o":"m 481 1032 l 621 1032 l 796 72 l 908 54 l 906 0 l 529 0 l 532 54 l 653 71 l 614 304 l 233 304 l 125 71 l 251 54 l 246 0 l -89 0 l -83 54 l 11 71 l 481 1032 m 521 928 l 268 379 l 603 379 l 529 835 l 521 928 m 422 1167 q 374 1188 393 1167 q 354 1242 354 1210 q 381 1308 356 1281 q 442 1335 407 1335 q 493 1315 474 1335 q 513 1265 513 1294 q 487 1194 513 1222 q 422 1167 461 1167 m 713 1167 q 665 1188 685 1167 q 646 1240 646 1208 q 672 1308 646 1281 q 732 1335 697 1335 q 783 1315 764 1335 q 803 1265 803 1296 q 778 1194 803 1222 q 713 1167 753 1167 z "},"Ạ":{"ha":911,"x_min":-89,"x_max":908,"o":"m 481 1032 l 621 1032 l 796 72 l 908 54 l 906 0 l 529 0 l 532 54 l 653 71 l 614 304 l 233 304 l 125 71 l 251 54 l 246 0 l -89 0 l -83 54 l 11 71 l 481 1032 m 521 928 l 268 379 l 603 379 l 529 835 l 521 928 m 307 -203 q 333 -136 307 -162 q 392 -110 358 -110 q 440 -128 424 -110 q 456 -175 456 -146 q 428 -243 456 -218 q 367 -268 401 -268 q 323 -251 339 -268 q 307 -203 307 -233 z "},"À":{"ha":911,"x_min":-89,"x_max":908,"o":"m 481 1032 l 621 1032 l 796 72 l 908 54 l 906 0 l 529 0 l 532 54 l 653 71 l 614 304 l 233 304 l 125 71 l 251 54 l 246 0 l -89 0 l -83 54 l 11 71 l 481 1032 m 521 928 l 268 379 l 603 379 l 529 835 l 521 928 m 571 1086 q 442 1174 511 1118 q 349 1279 372 1231 l 432 1360 l 618 1124 l 571 1086 z "},"Ả":{"ha":911,"x_min":-89,"x_max":908,"o":"m 481 1032 l 621 1032 l 796 72 l 908 54 l 906 0 l 529 0 l 532 54 l 653 71 l 614 304 l 233 304 l 125 71 l 251 54 l 246 0 l -89 0 l -83 54 l 11 71 l 481 1032 m 521 928 l 268 379 l 603 379 l 529 835 l 521 928 m 533 1138 q 521 1167 526 1149 q 517 1196 515 1185 q 533 1225 521 1214 q 569 1250 546 1236 q 602 1272 590 1263 q 621 1296 614 1282 l 622 1301 q 624 1315 624 1306 q 561 1365 624 1360 q 515 1361 522 1365 l 529 1454 q 553 1461 532 1458 q 589 1464 574 1464 q 701 1435 661 1464 q 740 1351 740 1406 q 738 1319 740 1331 q 708 1265 731 1286 q 647 1221 686 1243 q 629 1208 638 1214 q 614 1199 621 1203 q 590 1146 589 1181 l 533 1138 z "},"Ā":{"ha":911,"x_min":-89,"x_max":908,"o":"m 481 1032 l 621 1032 l 796 72 l 908 54 l 906 0 l 529 0 l 532 54 l 653 71 l 614 304 l 233 304 l 125 71 l 251 54 l 246 0 l -89 0 l -83 54 l 11 71 l 481 1032 m 521 928 l 268 379 l 603 379 l 529 835 l 521 928 m 392 1274 l 750 1274 l 738 1176 l 381 1176 l 392 1274 z "},"Ą":{"ha":911,"x_min":-89,"x_max":908,"o":"m 767 0 q 669 -81 704 -44 q 633 -151 633 -118 q 644 -194 632 -181 q 678 -207 657 -207 q 786 -161 729 -207 l 803 -219 q 615 -293 721 -293 q 535 -266 563 -293 q 507 -200 507 -239 q 515 -160 507 -182 q 533 -119 522 -137 q 597 -53 563 -78 q 682 0 631 -28 l 529 0 l 532 54 l 653 71 l 614 304 l 233 304 l 125 71 l 251 54 l 246 0 l -89 0 l -83 54 l 11 71 l 481 1032 l 621 1032 l 796 72 l 908 54 l 906 0 l 767 0 m 521 928 l 268 379 l 603 379 l 529 835 l 521 928 z "},"Å":{"ha":911,"x_min":-89,"x_max":908,"o":"m 478 1026 q 388 1078 419 1040 q 357 1172 357 1117 q 394 1274 357 1232 q 486 1336 431 1315 q 597 1357 542 1357 q 734 1317 682 1357 q 786 1211 786 1276 q 739 1090 786 1138 q 622 1026 692 1043 l 796 72 l 908 54 l 906 0 l 529 0 l 532 54 l 653 71 l 614 304 l 233 304 l 125 71 l 251 54 l 246 0 l -89 0 l -83 54 l 11 71 l 478 1026 m 588 1300 q 488 1269 532 1300 q 443 1182 443 1238 q 476 1106 443 1136 q 560 1075 508 1075 q 659 1106 618 1075 q 700 1201 700 1138 q 668 1272 700 1244 q 588 1300 636 1300 m 521 928 l 268 379 l 603 379 l 529 835 l 521 928 z "},"Ǻ":{"ha":911,"x_min":-89,"x_max":908,"o":"m 478 1026 q 388 1078 419 1040 q 357 1172 357 1117 q 394 1274 357 1232 q 486 1336 431 1315 q 597 1357 542 1357 q 734 1317 682 1357 q 786 1211 786 1276 q 739 1090 786 1138 q 622 1026 692 1043 l 796 72 l 908 54 l 906 0 l 529 0 l 532 54 l 653 71 l 614 304 l 233 304 l 125 71 l 251 54 l 246 0 l -89 0 l -83 54 l 11 71 l 478 1026 m 588 1300 q 488 1269 532 1300 q 443 1182 443 1238 q 476 1106 443 1136 q 560 1075 508 1075 q 659 1106 618 1075 q 700 1201 700 1138 q 668 1272 700 1244 q 588 1300 636 1300 m 521 928 l 268 379 l 603 379 l 529 835 l 521 928 m 732 1669 l 814 1589 q 719 1484 789 1540 q 588 1396 649 1428 l 542 1433 l 732 1669 z "},"Ã":{"ha":911,"x_min":-89,"x_max":908,"o":"m 481 1032 l 621 1032 l 796 72 l 908 54 l 906 0 l 529 0 l 532 54 l 653 71 l 614 304 l 233 304 l 125 71 l 251 54 l 246 0 l -89 0 l -83 54 l 11 71 l 481 1032 m 521 928 l 268 379 l 603 379 l 529 835 l 521 928 m 328 1221 q 388 1301 347 1268 q 485 1333 428 1333 q 542 1319 518 1333 q 594 1279 565 1306 q 639 1244 621 1256 q 679 1233 657 1233 q 736 1251 714 1233 q 783 1301 758 1269 l 822 1246 q 764 1165 804 1200 q 671 1129 724 1129 q 610 1143 635 1129 q 556 1185 586 1157 q 513 1219 531 1208 q 469 1231 494 1231 q 411 1213 436 1231 q 364 1165 386 1196 l 328 1221 z "},"Æ":{"ha":1269,"x_min":-118,"x_max":1232,"o":"m 288 1032 l 1232 1032 l 1221 819 l 1139 819 l 1117 957 l 817 967 l 765 572 l 1069 589 l 1057 482 l 757 493 l 704 71 l 1082 88 l 1151 246 l 1231 232 l 1182 0 l 464 0 l 471 54 l 564 71 l 596 324 l 258 324 l 129 71 l 276 54 l 272 0 l -118 0 l -111 54 l 0 71 l 486 957 l 279 971 l 288 1032 m 585 961 l 297 400 l 604 400 l 672 957 l 585 961 z "},"Ǽ":{"ha":1269,"x_min":-118,"x_max":1232,"o":"m 963 1360 l 1044 1279 q 949 1174 1019 1231 q 818 1086 879 1118 l 772 1124 l 963 1360 m 288 1032 l 1232 1032 l 1221 819 l 1139 819 l 1117 957 l 817 967 l 765 572 l 1069 589 l 1057 482 l 757 493 l 704 71 l 1082 88 l 1151 246 l 1231 232 l 1182 0 l 464 0 l 471 54 l 564 71 l 596 324 l 258 324 l 129 71 l 276 54 l 272 0 l -118 0 l -111 54 l 0 71 l 486 957 l 279 971 l 288 1032 m 585 961 l 297 400 l 604 400 l 672 957 l 585 961 z "},"B":{"ha":890,"x_min":11,"x_max":833,"o":"m 322 1032 q 373 1033 351 1032 q 410 1036 394 1035 q 526 1042 485 1042 q 760 978 688 1042 q 833 815 833 914 q 775 642 833 710 q 608 546 717 575 q 766 478 704 539 q 828 328 828 417 q 701 72 828 154 q 364 -11 575 -11 q 264 -6 333 -11 q 172 0 197 0 l 11 0 l 17 54 l 115 71 l 229 957 l 135 972 l 142 1032 l 322 1032 m 361 572 l 456 572 q 631 631 563 572 q 699 801 699 689 q 650 931 699 888 q 494 974 601 974 q 433 972 468 974 q 365 965 397 969 l 315 572 l 361 572 m 253 75 q 316 65 272 68 q 389 61 360 61 q 602 121 524 61 q 681 310 681 181 q 467 497 681 497 q 306 494 367 497 l 253 75 z "},"Ḃ":{"ha":888,"x_min":8,"x_max":831,"o":"m 486 1138 q 435 1160 457 1138 q 413 1214 413 1183 q 440 1284 413 1256 q 506 1313 468 1313 q 563 1292 540 1313 q 585 1240 585 1271 q 557 1167 585 1197 q 486 1138 529 1138 m 319 1032 q 370 1033 349 1032 q 407 1036 392 1035 q 524 1042 482 1042 q 758 978 685 1042 q 831 815 831 914 q 772 642 831 710 q 606 546 714 575 q 763 478 701 539 q 825 328 825 417 q 699 72 825 154 q 361 -11 572 -11 q 261 -6 331 -11 q 169 0 194 0 l 8 0 l 14 54 l 113 71 l 226 957 l 132 972 l 139 1032 l 319 1032 m 358 572 l 453 572 q 628 631 560 572 q 696 801 696 689 q 647 931 696 888 q 492 974 599 974 q 430 972 465 974 q 363 965 394 969 l 313 572 l 358 572 m 250 75 q 313 65 269 68 q 386 61 357 61 q 599 121 521 61 q 678 310 678 181 q 464 497 678 497 q 303 494 364 497 l 250 75 z "},"C":{"ha":849,"x_min":56,"x_max":850,"o":"m 707 943 q 649 965 682 957 q 564 972 617 972 q 367 894 449 972 q 247 697 286 817 q 207 456 207 578 q 266 177 207 288 q 450 67 325 67 q 558 81 503 67 q 640 128 613 96 q 686 275 660 179 l 769 275 l 742 60 q 602 10 676 31 q 426 -11 528 -11 q 215 53 299 -11 q 94 219 132 117 q 56 439 56 321 q 126 756 56 619 q 316 968 196 893 q 582 1043 436 1043 q 715 1035 667 1043 q 822 1011 763 1026 l 850 1003 l 808 750 l 717 750 l 707 943 z "},"Ć":{"ha":849,"x_min":56,"x_max":850,"o":"m 707 943 q 649 965 682 957 q 564 972 617 972 q 367 894 449 972 q 247 697 286 817 q 207 456 207 578 q 266 177 207 288 q 450 67 325 67 q 558 81 503 67 q 640 128 613 96 q 686 275 660 179 l 769 275 l 742 60 q 602 10 676 31 q 426 -11 528 -11 q 215 53 299 -11 q 94 219 132 117 q 56 439 56 321 q 126 756 56 619 q 316 968 196 893 q 582 1043 436 1043 q 715 1035 667 1043 q 822 1011 763 1026 l 850 1003 l 808 750 l 717 750 l 707 943 m 697 1360 l 779 1279 q 684 1174 754 1231 q 553 1086 614 1118 l 507 1124 l 697 1360 z "},"Č":{"ha":849,"x_min":56,"x_max":850,"o":"m 707 943 q 649 965 682 957 q 564 972 617 972 q 367 894 449 972 q 247 697 286 817 q 207 456 207 578 q 266 177 207 288 q 450 67 325 67 q 558 81 503 67 q 640 128 613 96 q 686 275 660 179 l 769 275 l 742 60 q 602 10 676 31 q 426 -11 528 -11 q 215 53 299 -11 q 94 219 132 117 q 56 439 56 321 q 126 756 56 619 q 316 968 196 893 q 582 1043 436 1043 q 715 1035 667 1043 q 822 1011 763 1026 l 850 1003 l 808 750 l 717 750 l 707 943 m 367 1325 l 418 1360 l 571 1196 l 789 1360 l 833 1326 l 614 1096 l 514 1096 l 367 1325 z "},"Ç":{"ha":849,"x_min":53,"x_max":850,"o":"m 564 972 q 367 894 449 972 q 247 697 286 817 q 207 456 207 578 q 266 177 207 288 q 450 67 325 67 q 558 81 503 67 q 640 128 613 96 q 686 275 660 179 l 769 275 l 742 60 q 490 -8 618 1 q 507 -110 507 -54 q 457 -264 507 -211 q 319 -317 407 -317 q 260 -311 292 -317 q 218 -299 229 -306 l 232 -210 q 258 -219 240 -215 q 296 -222 276 -222 q 389 -182 356 -222 q 424 -69 422 -142 q 418 -11 424 -33 q 213 53 294 -10 q 94 214 132 115 q 56 426 57 313 q 122 750 53 610 q 313 967 192 890 q 582 1043 435 1043 q 715 1035 667 1043 q 822 1011 763 1026 l 850 1003 l 808 750 l 717 750 l 707 943 q 649 965 682 957 q 564 972 617 972 z "},"Ĉ":{"ha":849,"x_min":56,"x_max":850,"o":"m 707 943 q 649 965 682 957 q 564 972 617 972 q 367 894 449 972 q 247 697 286 817 q 207 456 207 578 q 266 177 207 288 q 450 67 325 67 q 558 81 503 67 q 640 128 613 96 q 686 275 660 179 l 769 275 l 742 60 q 602 10 676 31 q 426 -11 528 -11 q 215 53 299 -11 q 94 219 132 117 q 56 439 56 321 q 126 756 56 619 q 316 968 196 893 q 582 1043 436 1043 q 715 1035 667 1043 q 822 1011 763 1026 l 850 1003 l 808 750 l 717 750 l 707 943 m 336 1133 l 563 1360 l 663 1360 l 811 1132 l 761 1097 l 606 1263 l 379 1099 l 336 1133 z "},"Ċ":{"ha":849,"x_min":56,"x_max":850,"o":"m 569 1138 q 518 1160 540 1138 q 496 1214 496 1183 q 524 1284 496 1256 q 589 1313 551 1313 q 646 1292 624 1313 q 668 1240 668 1271 q 640 1167 668 1197 q 569 1138 613 1138 m 707 943 q 649 965 682 957 q 564 972 617 972 q 367 894 449 972 q 247 697 286 817 q 207 456 207 578 q 266 177 207 288 q 450 67 325 67 q 558 81 503 67 q 640 128 613 96 q 686 275 660 179 l 769 275 l 742 60 q 602 10 676 31 q 426 -11 528 -11 q 215 53 299 -11 q 94 219 132 117 q 56 439 56 321 q 126 756 56 619 q 316 968 196 893 q 582 1043 436 1043 q 715 1035 667 1043 q 822 1011 763 1026 l 850 1003 l 808 750 l 717 750 l 707 943 z "},"D":{"ha":979,"x_min":7,"x_max":943,"o":"m 331 1032 q 424 1038 360 1032 q 539 1043 499 1043 q 847 930 750 1043 q 943 614 943 817 q 877 292 943 435 q 687 67 811 149 q 394 -11 563 -14 q 325 -6 328 -6 q 185 0 264 0 l 7 0 l 13 54 l 115 71 l 229 957 l 136 972 l 142 1032 l 331 1032 m 256 78 q 338 65 289 69 q 418 60 386 60 q 630 144 544 64 q 757 347 715 224 q 799 608 799 471 q 731 888 799 803 q 511 974 664 974 q 368 960 454 974 l 256 78 z "},"Ð":{"ha":978,"x_min":3,"x_max":940,"o":"m 324 1033 q 418 1039 354 1033 q 536 1044 496 1044 q 843 932 746 1044 q 940 619 940 819 q 874 294 940 439 q 684 69 808 150 q 390 -10 560 -12 q 357 -7 381 -8 q 321 -4 333 -6 q 176 1 257 1 l 3 1 l 8 56 l 113 72 l 165 490 l 61 490 l 72 574 l 176 574 l 226 958 l 132 974 l 139 1033 l 324 1033 m 251 79 q 334 66 285 71 q 415 61 383 61 q 626 145 540 65 q 753 349 711 225 q 794 610 794 472 q 728 890 794 804 q 507 975 661 975 q 364 961 450 975 l 315 574 l 581 574 l 569 490 l 304 490 l 251 79 z "},"Ď":{"ha":981,"x_min":4,"x_max":940,"o":"m 354 1325 l 406 1360 l 558 1196 l 776 1360 l 821 1326 l 601 1096 l 501 1096 l 354 1325 m 328 1032 q 421 1038 357 1032 q 536 1043 496 1043 q 844 930 747 1043 q 940 614 940 817 q 874 292 940 435 q 684 67 808 149 q 392 -11 560 -14 q 322 -6 325 -6 q 182 0 261 0 l 4 0 l 10 54 l 113 71 l 226 957 l 133 972 l 139 1032 l 328 1032 m 253 78 q 335 65 286 69 q 415 60 383 60 q 627 144 542 64 q 754 347 713 224 q 796 608 796 471 q 728 888 796 803 q 508 974 661 974 q 365 960 451 974 l 253 78 z "},"Đ":{"ha":979,"x_min":3,"x_max":940,"o":"m 324 1033 q 418 1039 354 1033 q 536 1044 496 1044 q 843 932 746 1044 q 940 619 940 819 q 874 294 940 439 q 684 69 808 150 q 390 -10 560 -12 q 357 -7 381 -8 q 321 -4 333 -6 q 176 1 257 1 l 3 1 l 8 56 l 113 72 l 165 490 l 63 490 l 72 574 l 176 574 l 226 958 l 132 974 l 139 1033 l 324 1033 m 251 79 q 334 66 285 71 q 415 61 383 61 q 626 145 540 65 q 753 349 711 225 q 794 610 794 472 q 728 890 794 804 q 507 975 661 975 q 364 961 450 975 l 315 574 l 581 574 l 571 490 l 304 490 l 251 79 z "},"Ḋ":{"ha":981,"x_min":4,"x_max":940,"o":"m 557 1138 q 506 1160 528 1138 q 483 1214 483 1183 q 511 1284 483 1256 q 576 1313 539 1313 q 633 1292 611 1313 q 656 1240 656 1271 q 628 1167 656 1197 q 557 1138 600 1138 m 328 1032 q 421 1038 357 1032 q 536 1043 496 1043 q 844 930 747 1043 q 940 614 940 817 q 874 292 940 435 q 684 67 808 149 q 392 -11 560 -14 q 322 -6 325 -6 q 182 0 261 0 l 4 0 l 10 54 l 113 71 l 226 957 l 133 972 l 139 1032 l 328 1032 m 253 78 q 335 65 286 69 q 415 60 383 60 q 627 144 542 64 q 754 347 713 224 q 796 608 796 471 q 728 888 796 803 q 508 974 661 974 q 365 960 451 974 l 253 78 z "},"E":{"ha":844,"x_min":7,"x_max":801,"o":"m 142 1032 l 800 1032 l 790 811 l 708 811 l 686 957 l 371 968 l 318 575 l 640 586 l 631 482 l 311 493 l 254 71 l 646 88 l 724 256 l 801 240 l 746 0 l 7 0 l 13 54 l 117 71 l 228 957 l 133 972 l 142 1032 z "},"É":{"ha":844,"x_min":7,"x_max":801,"o":"m 657 1360 l 739 1279 q 644 1174 714 1231 q 513 1086 574 1118 l 467 1124 l 657 1360 m 142 1032 l 800 1032 l 790 811 l 708 811 l 686 957 l 371 968 l 318 575 l 640 586 l 631 482 l 311 493 l 254 71 l 646 88 l 724 256 l 801 240 l 746 0 l 7 0 l 13 54 l 117 71 l 228 957 l 133 972 l 142 1032 z "},"Ĕ":{"ha":844,"x_min":7,"x_max":801,"o":"m 531 1108 q 379 1169 426 1108 q 332 1317 332 1231 q 333 1349 332 1339 l 408 1349 q 437 1247 411 1288 q 533 1206 463 1206 q 641 1249 604 1206 q 686 1349 678 1292 l 758 1349 q 728 1231 758 1286 q 645 1142 697 1175 q 531 1108 593 1108 m 142 1032 l 800 1032 l 790 811 l 708 811 l 686 957 l 371 968 l 318 575 l 640 586 l 631 482 l 311 493 l 254 71 l 646 88 l 724 256 l 801 240 l 746 0 l 7 0 l 13 54 l 117 71 l 228 957 l 133 972 l 142 1032 z "},"Ě":{"ha":844,"x_min":7,"x_max":801,"o":"m 326 1325 l 378 1360 l 531 1196 l 749 1360 l 793 1326 l 574 1096 l 474 1096 l 326 1325 m 142 1032 l 800 1032 l 790 811 l 708 811 l 686 957 l 371 968 l 318 575 l 640 586 l 631 482 l 311 493 l 254 71 l 646 88 l 724 256 l 801 240 l 746 0 l 7 0 l 13 54 l 117 71 l 228 957 l 133 972 l 142 1032 z "},"Ê":{"ha":844,"x_min":7,"x_max":801,"o":"m 142 1032 l 800 1032 l 790 811 l 708 811 l 686 957 l 371 968 l 318 575 l 640 586 l 631 482 l 311 493 l 254 71 l 646 88 l 724 256 l 801 240 l 746 0 l 7 0 l 13 54 l 117 71 l 228 957 l 133 972 l 142 1032 m 296 1133 l 522 1360 l 622 1360 l 771 1132 l 721 1097 l 565 1263 l 339 1099 l 296 1133 z "},"Ế":{"ha":844,"x_min":7,"x_max":989,"o":"m 915 1593 l 989 1521 q 895 1417 971 1489 q 771 1322 819 1346 l 736 1354 l 915 1593 m 279 1175 l 518 1425 l 618 1425 l 757 1174 l 706 1140 l 553 1324 l 322 1142 l 279 1175 m 142 1032 l 800 1032 l 790 811 l 708 811 l 686 957 l 371 968 l 318 575 l 640 586 l 631 482 l 311 493 l 254 71 l 646 88 l 724 256 l 801 240 l 746 0 l 7 0 l 13 54 l 117 71 l 228 957 l 133 972 l 142 1032 z "},"Ệ":{"ha":844,"x_min":7,"x_max":801,"o":"m 142 1032 l 800 1032 l 790 811 l 708 811 l 686 957 l 371 968 l 318 575 l 640 586 l 631 482 l 311 493 l 254 71 l 646 88 l 724 256 l 801 240 l 746 0 l 7 0 l 13 54 l 117 71 l 228 957 l 133 972 l 142 1032 m 274 -203 q 299 -136 274 -162 q 358 -110 325 -110 q 406 -128 390 -110 q 422 -175 422 -146 q 395 -243 422 -218 q 333 -268 368 -268 q 290 -251 306 -268 q 274 -203 274 -233 m 296 1133 l 522 1360 l 622 1360 l 771 1132 l 721 1097 l 565 1263 l 339 1099 l 296 1133 z "},"Ề":{"ha":844,"x_min":7,"x_max":821,"o":"m 783 1394 q 669 1484 742 1418 q 575 1589 597 1550 l 653 1664 l 821 1425 l 783 1394 m 283 1185 l 522 1435 l 622 1435 l 761 1183 l 710 1150 l 557 1333 l 326 1151 l 283 1185 m 142 1032 l 800 1032 l 790 811 l 708 811 l 686 957 l 371 968 l 318 575 l 640 586 l 631 482 l 311 493 l 254 71 l 646 88 l 724 256 l 801 240 l 746 0 l 7 0 l 13 54 l 117 71 l 228 957 l 133 972 l 142 1032 z "},"Ể":{"ha":844,"x_min":7,"x_max":942,"o":"m 758 1321 q 748 1347 753 1331 q 744 1372 743 1364 q 759 1398 747 1388 q 792 1421 771 1408 q 821 1441 811 1433 q 836 1461 831 1449 l 838 1467 q 839 1478 839 1471 q 826 1508 839 1496 q 783 1524 813 1521 q 743 1519 749 1524 l 756 1601 q 776 1608 757 1606 q 808 1610 794 1610 q 907 1585 872 1610 q 942 1511 942 1560 q 939 1482 942 1504 q 915 1435 933 1453 q 861 1396 896 1417 q 831 1375 839 1382 q 808 1329 808 1360 l 758 1321 m 278 1188 l 517 1438 l 617 1438 l 756 1186 l 704 1153 l 551 1336 l 321 1154 l 278 1188 m 142 1032 l 800 1032 l 790 811 l 708 811 l 686 957 l 371 968 l 318 575 l 640 586 l 631 482 l 311 493 l 254 71 l 646 88 l 724 256 l 801 240 l 746 0 l 7 0 l 13 54 l 117 71 l 228 957 l 133 972 l 142 1032 z "},"Ễ":{"ha":844,"x_min":7,"x_max":803,"o":"m 357 1550 q 420 1623 378 1592 q 507 1654 463 1654 q 558 1641 538 1654 q 603 1603 579 1628 q 638 1572 624 1582 q 671 1563 653 1563 q 724 1581 703 1563 q 768 1633 744 1600 l 803 1578 q 745 1501 788 1533 q 656 1468 703 1468 q 598 1481 619 1468 q 554 1519 576 1494 q 520 1550 535 1540 q 485 1560 506 1560 q 386 1500 443 1560 l 357 1550 m 272 1179 l 511 1429 l 611 1429 l 750 1178 l 699 1144 l 546 1328 l 315 1146 l 272 1179 m 142 1032 l 800 1032 l 790 811 l 708 811 l 686 957 l 371 968 l 318 575 l 640 586 l 631 482 l 311 493 l 254 71 l 646 88 l 724 256 l 801 240 l 746 0 l 7 0 l 13 54 l 117 71 l 228 957 l 133 972 l 142 1032 z "},"Ë":{"ha":844,"x_min":7,"x_max":801,"o":"m 388 1167 q 339 1188 358 1167 q 319 1242 319 1210 q 347 1308 321 1281 q 407 1335 372 1335 q 458 1315 439 1335 q 478 1265 478 1294 q 452 1194 478 1222 q 388 1167 426 1167 m 678 1167 q 631 1188 650 1167 q 611 1240 611 1208 q 637 1308 611 1281 q 697 1335 663 1335 q 749 1315 729 1335 q 768 1265 768 1296 q 743 1194 768 1222 q 678 1167 718 1167 m 142 1032 l 800 1032 l 790 811 l 708 811 l 686 957 l 371 968 l 318 575 l 640 586 l 631 482 l 311 493 l 254 71 l 646 88 l 724 256 l 801 240 l 746 0 l 7 0 l 13 54 l 117 71 l 228 957 l 133 972 l 142 1032 z "},"Ė":{"ha":844,"x_min":7,"x_max":801,"o":"m 529 1138 q 478 1160 500 1138 q 456 1214 456 1183 q 483 1284 456 1256 q 549 1313 511 1313 q 606 1292 583 1313 q 628 1240 628 1271 q 600 1167 628 1197 q 529 1138 572 1138 m 142 1032 l 800 1032 l 790 811 l 708 811 l 686 957 l 371 968 l 318 575 l 640 586 l 631 482 l 311 493 l 254 71 l 646 88 l 724 256 l 801 240 l 746 0 l 7 0 l 13 54 l 117 71 l 228 957 l 133 972 l 142 1032 z "},"Ẹ":{"ha":844,"x_min":7,"x_max":801,"o":"m 142 1032 l 800 1032 l 790 811 l 708 811 l 686 957 l 371 968 l 318 575 l 640 586 l 631 482 l 311 493 l 254 71 l 646 88 l 724 256 l 801 240 l 746 0 l 7 0 l 13 54 l 117 71 l 228 957 l 133 972 l 142 1032 m 274 -203 q 299 -136 274 -162 q 358 -110 325 -110 q 406 -128 390 -110 q 422 -175 422 -146 q 395 -243 422 -218 q 333 -268 368 -268 q 290 -251 306 -268 q 274 -203 274 -233 z "},"È":{"ha":844,"x_min":7,"x_max":801,"o":"m 536 1086 q 407 1174 476 1118 q 314 1279 338 1231 l 397 1360 l 583 1124 l 536 1086 m 142 1032 l 800 1032 l 790 811 l 708 811 l 686 957 l 371 968 l 318 575 l 640 586 l 631 482 l 311 493 l 254 71 l 646 88 l 724 256 l 801 240 l 746 0 l 7 0 l 13 54 l 117 71 l 228 957 l 133 972 l 142 1032 z "},"Ẻ":{"ha":844,"x_min":7,"x_max":801,"o":"m 142 1032 l 800 1032 l 790 811 l 708 811 l 686 957 l 371 968 l 318 575 l 640 586 l 631 482 l 311 493 l 254 71 l 646 88 l 724 256 l 801 240 l 746 0 l 7 0 l 13 54 l 117 71 l 228 957 l 133 972 l 142 1032 m 499 1138 q 486 1167 492 1149 q 482 1196 481 1185 q 499 1225 486 1214 q 535 1250 511 1236 q 567 1272 556 1263 q 586 1296 579 1282 l 588 1301 q 589 1315 589 1306 q 526 1365 589 1360 q 481 1361 488 1365 l 494 1454 q 518 1461 497 1458 q 554 1464 539 1464 q 666 1435 626 1464 q 706 1351 706 1406 q 703 1319 706 1331 q 674 1265 696 1286 q 613 1221 651 1243 q 594 1208 603 1214 q 579 1199 586 1203 q 556 1146 554 1181 l 499 1138 z "},"Ē":{"ha":844,"x_min":7,"x_max":801,"o":"m 357 1274 l 715 1274 l 703 1176 l 346 1176 l 357 1274 m 142 1032 l 800 1032 l 790 811 l 708 811 l 686 957 l 371 968 l 318 575 l 640 586 l 631 482 l 311 493 l 254 71 l 646 88 l 724 256 l 801 240 l 746 0 l 7 0 l 13 54 l 117 71 l 228 957 l 133 972 l 142 1032 z "},"Ę":{"ha":844,"x_min":7,"x_max":801,"o":"m 689 0 q 590 -83 626 -46 q 554 -156 554 -121 q 567 -194 554 -182 q 600 -207 579 -207 q 707 -161 650 -207 l 724 -219 q 536 -293 644 -293 q 456 -267 483 -293 q 429 -200 429 -240 q 436 -159 429 -182 q 454 -119 443 -136 q 518 -52 483 -78 q 603 0 553 -26 l 7 0 l 13 54 l 117 71 l 228 957 l 133 972 l 142 1032 l 800 1032 l 790 811 l 708 811 l 686 957 l 371 968 l 318 575 l 640 586 l 631 482 l 311 493 l 254 71 l 646 88 l 724 256 l 801 240 l 746 0 l 689 0 z "},"Ẽ":{"ha":844,"x_min":7,"x_max":801,"o":"m 142 1032 l 800 1032 l 790 811 l 708 811 l 686 957 l 371 968 l 318 575 l 640 586 l 631 482 l 311 493 l 254 71 l 646 88 l 724 256 l 801 240 l 746 0 l 7 0 l 13 54 l 117 71 l 228 957 l 133 972 l 142 1032 m 293 1221 q 353 1301 313 1268 q 450 1333 393 1333 q 507 1319 483 1333 q 560 1279 531 1306 q 604 1244 586 1256 q 644 1233 622 1233 q 701 1251 679 1233 q 749 1301 724 1269 l 788 1246 q 729 1165 769 1200 q 636 1129 689 1129 q 576 1143 600 1129 q 521 1185 551 1157 q 478 1219 496 1208 q 435 1231 460 1231 q 376 1213 401 1231 q 329 1165 351 1196 l 293 1221 z "},"F":{"ha":794,"x_min":11,"x_max":822,"o":"m 142 1032 l 822 1032 l 806 808 l 718 808 l 703 954 l 368 967 l 318 572 l 658 581 l 647 476 l 311 490 l 256 72 l 425 54 l 419 0 l 11 0 l 17 54 l 117 71 l 228 957 l 133 972 l 142 1032 z "},"Ḟ":{"ha":794,"x_min":11,"x_max":822,"o":"m 521 1138 q 469 1160 492 1138 q 447 1214 447 1183 q 475 1284 447 1256 q 540 1313 503 1313 q 597 1292 575 1313 q 619 1240 619 1271 q 592 1167 619 1197 q 521 1138 564 1138 m 142 1032 l 822 1032 l 806 808 l 718 808 l 703 954 l 368 967 l 318 572 l 658 581 l 647 476 l 311 490 l 256 72 l 425 54 l 419 0 l 11 0 l 17 54 l 117 71 l 228 957 l 133 972 l 142 1032 z "},"G":{"ha":924,"x_min":61,"x_max":888,"o":"m 794 63 q 697 40 760 58 q 552 2 613 15 q 418 -11 492 -11 q 215 53 296 -11 q 98 219 135 117 q 61 439 61 322 q 129 756 61 618 q 315 968 197 893 q 579 1043 433 1043 q 733 1033 674 1043 q 857 1006 793 1022 l 888 997 l 847 790 l 756 790 l 751 932 q 680 963 721 953 q 571 974 639 974 q 368 897 450 974 q 247 699 286 819 q 207 444 207 578 q 268 175 207 286 q 451 64 329 64 q 571 78 513 64 q 663 118 629 92 l 703 413 l 528 424 l 536 496 l 856 496 l 794 63 z "},"Ǵ":{"ha":924,"x_min":61,"x_max":888,"o":"m 794 63 q 697 40 760 58 q 552 2 613 15 q 418 -11 492 -11 q 215 53 296 -11 q 98 219 135 117 q 61 439 61 322 q 129 756 61 618 q 315 968 197 893 q 579 1043 433 1043 q 733 1033 674 1043 q 857 1006 793 1022 l 888 997 l 847 790 l 756 790 l 751 932 q 680 963 721 953 q 571 974 639 974 q 368 897 450 974 q 247 699 286 819 q 207 444 207 578 q 268 175 207 286 q 451 64 329 64 q 571 78 513 64 q 663 118 629 92 l 703 413 l 528 424 l 536 496 l 856 496 l 794 63 m 708 1360 l 790 1279 q 695 1174 765 1231 q 564 1086 625 1118 l 518 1124 l 708 1360 z "},"Ğ":{"ha":926,"x_min":61,"x_max":888,"o":"m 582 1108 q 431 1169 478 1108 q 383 1317 383 1231 q 385 1349 383 1339 l 460 1349 q 488 1247 463 1288 q 585 1206 514 1206 q 692 1249 656 1206 q 738 1349 729 1292 l 810 1349 q 779 1231 810 1286 q 697 1142 749 1175 q 582 1108 644 1108 m 794 63 q 697 40 760 58 q 552 2 613 15 q 418 -11 492 -11 q 215 53 296 -11 q 98 219 135 117 q 61 439 61 322 q 129 756 61 618 q 315 968 197 893 q 579 1043 433 1043 q 733 1033 674 1043 q 857 1006 793 1022 l 888 997 l 847 790 l 756 790 l 751 932 q 680 963 721 953 q 571 974 639 974 q 368 897 450 974 q 247 699 286 819 q 207 444 207 578 q 268 175 207 286 q 451 64 329 64 q 571 78 513 64 q 663 118 629 92 l 703 413 l 528 424 l 536 496 l 856 496 l 794 63 z "},"Ǧ":{"ha":924,"x_min":61,"x_max":888,"o":"m 794 63 q 697 40 760 58 q 552 2 613 15 q 418 -11 492 -11 q 215 53 296 -11 q 98 219 135 117 q 61 439 61 322 q 129 756 61 618 q 315 968 197 893 q 579 1043 433 1043 q 733 1033 674 1043 q 857 1006 793 1022 l 888 997 l 847 790 l 756 790 l 751 932 q 680 963 721 953 q 571 974 639 974 q 368 897 450 974 q 247 699 286 819 q 207 444 207 578 q 268 175 207 286 q 451 64 329 64 q 571 78 513 64 q 663 118 629 92 l 703 413 l 528 424 l 536 496 l 856 496 l 794 63 m 378 1325 l 429 1360 l 582 1196 l 800 1360 l 844 1326 l 625 1096 l 525 1096 l 378 1325 z "},"Ĝ":{"ha":924,"x_min":61,"x_max":888,"o":"m 794 63 q 697 40 760 58 q 552 2 613 15 q 418 -11 492 -11 q 215 53 296 -11 q 98 219 135 117 q 61 439 61 322 q 129 756 61 618 q 315 968 197 893 q 579 1043 433 1043 q 733 1033 674 1043 q 857 1006 793 1022 l 888 997 l 847 790 l 756 790 l 751 932 q 680 963 721 953 q 571 974 639 974 q 368 897 450 974 q 247 699 286 819 q 207 444 207 578 q 268 175 207 286 q 451 64 329 64 q 571 78 513 64 q 663 118 629 92 l 703 413 l 528 424 l 536 496 l 856 496 l 794 63 m 347 1133 l 574 1360 l 674 1360 l 822 1132 l 772 1097 l 617 1263 l 390 1099 l 347 1133 z "},"Ģ":{"ha":926,"x_min":61,"x_max":888,"o":"m 319 -336 q 359 -286 342 -318 q 376 -217 376 -254 q 363 -164 376 -189 q 329 -133 350 -139 l 331 -90 l 408 -32 q 469 -83 447 -43 q 492 -172 492 -122 q 472 -270 492 -225 q 422 -344 451 -315 q 365 -379 392 -372 l 318 -350 l 319 -336 m 794 63 q 697 40 760 58 q 552 2 613 15 q 418 -11 492 -11 q 215 53 296 -11 q 98 219 135 117 q 61 439 61 322 q 129 756 61 618 q 315 968 197 893 q 579 1043 433 1043 q 733 1033 674 1043 q 857 1006 793 1022 l 888 997 l 847 790 l 756 790 l 751 932 q 680 963 721 953 q 571 974 639 974 q 368 897 450 974 q 247 699 286 819 q 207 444 207 578 q 268 175 207 286 q 451 64 329 64 q 571 78 513 64 q 663 118 629 92 l 703 413 l 528 424 l 536 496 l 856 496 l 794 63 z "},"Ġ":{"ha":926,"x_min":61,"x_max":888,"o":"m 581 1138 q 529 1160 551 1138 q 507 1214 507 1183 q 535 1284 507 1256 q 600 1313 563 1313 q 657 1292 635 1313 q 679 1240 679 1271 q 651 1167 679 1197 q 581 1138 624 1138 m 794 63 q 697 40 760 58 q 552 2 613 15 q 418 -11 492 -11 q 215 53 296 -11 q 98 219 135 117 q 61 439 61 322 q 129 756 61 618 q 315 968 197 893 q 579 1043 433 1043 q 733 1033 674 1043 q 857 1006 793 1022 l 888 997 l 847 790 l 756 790 l 751 932 q 680 963 721 953 q 571 974 639 974 q 368 897 450 974 q 247 699 286 819 q 207 444 207 578 q 268 175 207 286 q 451 64 329 64 q 571 78 513 64 q 663 118 629 92 l 703 413 l 528 424 l 536 496 l 856 496 l 794 63 z "},"Ḡ":{"ha":924,"x_min":61,"x_max":888,"o":"m 794 63 q 697 40 760 58 q 552 2 613 15 q 418 -11 492 -11 q 215 53 296 -11 q 98 219 135 117 q 61 439 61 322 q 129 756 61 618 q 315 968 197 893 q 579 1043 433 1043 q 733 1033 674 1043 q 857 1006 793 1022 l 888 997 l 847 790 l 756 790 l 751 932 q 680 963 721 953 q 571 974 639 974 q 368 897 450 974 q 247 699 286 819 q 207 444 207 578 q 268 175 207 286 q 451 64 329 64 q 571 78 513 64 q 663 118 629 92 l 703 413 l 528 424 l 536 496 l 856 496 l 794 63 m 408 1274 l 767 1274 l 754 1176 l 397 1176 l 408 1274 z "},"H":{"ha":1054,"x_min":11,"x_max":1072,"o":"m 143 1032 l 483 1032 l 476 972 l 369 957 l 319 565 l 778 565 l 828 957 l 722 972 l 729 1032 l 1072 1032 l 1065 972 l 967 957 l 854 71 l 960 54 l 956 0 l 597 0 l 601 54 l 717 71 l 769 488 l 308 488 l 256 71 l 365 54 l 360 0 l 11 0 l 18 54 l 117 71 l 229 957 l 136 972 l 143 1032 z "},"Ħ":{"ha":1054,"x_min":8,"x_max":1076,"o":"m 139 1033 l 478 1033 l 472 974 l 365 958 l 340 765 l 800 765 l 824 958 l 718 974 l 724 1033 l 1068 1033 l 1060 974 l 963 958 l 939 765 l 1076 765 l 1068 688 l 929 688 l 851 71 l 957 54 l 951 0 l 593 0 l 599 54 l 713 71 l 758 439 l 299 439 l 253 71 l 361 54 l 357 0 l 8 0 l 14 54 l 114 71 l 190 688 l 57 688 l 64 765 l 200 765 l 225 958 l 131 974 l 139 1033 m 331 688 l 308 515 l 768 515 l 789 688 l 331 688 z "},"Ĥ":{"ha":1054,"x_min":11,"x_max":1072,"o":"m 143 1032 l 483 1032 l 476 972 l 369 957 l 319 565 l 778 565 l 828 957 l 722 972 l 729 1032 l 1072 1032 l 1065 972 l 967 957 l 854 71 l 960 54 l 956 0 l 597 0 l 601 54 l 717 71 l 769 488 l 308 488 l 256 71 l 365 54 l 360 0 l 11 0 l 18 54 l 117 71 l 229 957 l 136 972 l 143 1032 m 389 1133 l 615 1360 l 715 1360 l 864 1132 l 814 1097 l 658 1263 l 432 1099 l 389 1133 z "},"I":{"ha":482,"x_min":19,"x_max":492,"o":"m 153 1032 l 492 1032 l 486 972 l 379 957 l 267 71 l 376 54 l 372 0 l 19 0 l 25 54 l 126 71 l 240 957 l 146 972 l 153 1032 z "},"Ĳ":{"ha":967,"x_min":19,"x_max":985,"o":"m 153 1032 l 492 1032 l 486 972 l 379 957 l 267 71 l 376 54 l 372 0 l 19 0 l 25 54 l 126 71 l 240 957 l 146 972 l 153 1032 m 854 856 q 788 289 813 488 q 751 51 764 90 q 616 -143 713 -74 q 394 -233 519 -212 l 371 -179 q 532 -87 467 -153 q 614 60 597 -21 q 663 363 642 189 q 714 817 685 536 l 729 958 l 619 972 l 628 1032 l 985 1032 l 979 972 l 867 958 l 854 856 z "},"Í":{"ha":482,"x_min":19,"x_max":558,"o":"m 153 1032 l 492 1032 l 486 972 l 379 957 l 267 71 l 376 54 l 372 0 l 19 0 l 25 54 l 126 71 l 240 957 l 146 972 l 153 1032 m 476 1360 l 558 1279 q 463 1174 533 1231 q 332 1086 393 1118 l 286 1124 l 476 1360 z "},"Ĭ":{"ha":482,"x_min":19,"x_max":578,"o":"m 153 1032 l 492 1032 l 486 972 l 379 957 l 267 71 l 376 54 l 372 0 l 19 0 l 25 54 l 126 71 l 240 957 l 146 972 l 153 1032 m 350 1108 q 199 1169 246 1108 q 151 1317 151 1231 q 153 1349 151 1339 l 228 1349 q 256 1247 231 1288 q 353 1206 282 1206 q 460 1249 424 1206 q 506 1349 497 1292 l 578 1349 q 547 1231 578 1286 q 465 1142 517 1175 q 350 1108 413 1108 z "},"Î":{"ha":482,"x_min":19,"x_max":590,"o":"m 153 1032 l 492 1032 l 486 972 l 379 957 l 267 71 l 376 54 l 372 0 l 19 0 l 25 54 l 126 71 l 240 957 l 146 972 l 153 1032 m 115 1133 l 342 1360 l 442 1360 l 590 1132 l 540 1097 l 385 1263 l 158 1099 l 115 1133 z "},"Ï":{"ha":482,"x_min":19,"x_max":588,"o":"m 153 1032 l 492 1032 l 486 972 l 379 957 l 267 71 l 376 54 l 372 0 l 19 0 l 25 54 l 126 71 l 240 957 l 146 972 l 153 1032 m 207 1167 q 158 1188 178 1167 q 139 1242 139 1210 q 166 1308 140 1281 q 226 1335 192 1335 q 278 1315 258 1335 q 297 1265 297 1294 q 272 1194 297 1222 q 207 1167 246 1167 m 497 1167 q 450 1188 469 1167 q 431 1240 431 1208 q 456 1308 431 1281 q 517 1335 482 1335 q 568 1315 549 1335 q 588 1265 588 1296 q 563 1194 588 1222 q 497 1167 538 1167 z "},"İ":{"ha":482,"x_min":19,"x_max":492,"o":"m 153 1032 l 492 1032 l 486 972 l 379 957 l 267 71 l 376 54 l 372 0 l 19 0 l 25 54 l 126 71 l 240 957 l 146 972 l 153 1032 m 349 1138 q 297 1160 319 1138 q 275 1214 275 1183 q 303 1284 275 1256 q 368 1313 331 1313 q 425 1292 403 1313 q 447 1240 447 1271 q 419 1167 447 1197 q 349 1138 392 1138 z "},"Ị":{"ha":482,"x_min":19,"x_max":492,"o":"m 153 1032 l 492 1032 l 486 972 l 379 957 l 267 71 l 376 54 l 372 0 l 19 0 l 25 54 l 126 71 l 240 957 l 146 972 l 153 1032 m 93 -203 q 119 -136 93 -162 q 178 -110 144 -110 q 226 -128 210 -110 q 242 -175 242 -146 q 215 -243 242 -218 q 153 -268 188 -268 q 109 -251 125 -268 q 93 -203 93 -233 z "},"Ì":{"ha":482,"x_min":19,"x_max":492,"o":"m 153 1032 l 492 1032 l 486 972 l 379 957 l 267 71 l 376 54 l 372 0 l 19 0 l 25 54 l 126 71 l 240 957 l 146 972 l 153 1032 m 356 1086 q 226 1174 296 1118 q 133 1279 157 1231 l 217 1360 l 403 1124 l 356 1086 z "},"Ỉ":{"ha":482,"x_min":19,"x_max":525,"o":"m 153 1032 l 492 1032 l 486 972 l 379 957 l 267 71 l 376 54 l 372 0 l 19 0 l 25 54 l 126 71 l 240 957 l 146 972 l 153 1032 m 318 1138 q 306 1167 311 1149 q 301 1196 300 1185 q 318 1225 306 1214 q 354 1250 331 1236 q 387 1272 375 1263 q 406 1296 399 1282 l 407 1301 q 408 1315 408 1306 q 346 1365 408 1360 q 300 1361 307 1365 l 314 1454 q 338 1461 317 1458 q 374 1464 358 1464 q 485 1435 446 1464 q 525 1351 525 1406 q 522 1319 525 1331 q 493 1265 515 1286 q 432 1221 471 1243 q 414 1208 422 1214 q 399 1199 406 1203 q 375 1146 374 1181 l 318 1138 z "},"Ī":{"ha":482,"x_min":19,"x_max":535,"o":"m 153 1032 l 492 1032 l 486 972 l 379 957 l 267 71 l 376 54 l 372 0 l 19 0 l 25 54 l 126 71 l 240 957 l 146 972 l 153 1032 m 176 1274 l 535 1274 l 522 1176 l 165 1176 l 176 1274 z "},"Į":{"ha":482,"x_min":-22,"x_max":492,"o":"m 238 0 q 140 -81 175 -44 q 103 -151 104 -118 q 149 -207 103 -207 q 256 -161 200 -207 l 274 -219 q 86 -293 192 -293 q 5 -267 32 -293 q -22 -200 -22 -240 q -15 -159 -22 -182 q 4 -119 -7 -136 q 67 -53 33 -78 q 153 0 101 -28 l 19 0 l 25 54 l 126 71 l 240 957 l 146 972 l 153 1032 l 492 1032 l 486 972 l 379 957 l 267 71 l 376 54 l 372 0 l 238 0 z "},"Ĩ":{"ha":482,"x_min":19,"x_max":607,"o":"m 153 1032 l 492 1032 l 486 972 l 379 957 l 267 71 l 376 54 l 372 0 l 19 0 l 25 54 l 126 71 l 240 957 l 146 972 l 153 1032 m 113 1221 q 172 1301 132 1268 q 269 1333 213 1333 q 326 1319 303 1333 q 379 1279 350 1306 q 424 1244 406 1256 q 464 1233 442 1233 q 521 1251 499 1233 q 568 1301 543 1269 l 607 1246 q 549 1165 589 1200 q 456 1129 508 1129 q 395 1143 419 1129 q 340 1185 371 1157 q 297 1219 315 1208 q 254 1231 279 1231 q 196 1213 221 1231 q 149 1165 171 1196 l 113 1221 z "},"J":{"ha":485,"x_min":-111,"x_max":503,"o":"m 372 856 q 306 289 331 488 q 269 51 282 90 q 134 -143 231 -74 q -87 -233 38 -212 l -111 -179 q 50 -87 -15 -153 q 132 60 115 -21 q 181 363 160 189 q 232 817 203 536 l 247 958 l 138 972 l 146 1032 l 503 1032 l 497 972 l 385 958 l 372 856 z "},"Ĵ":{"ha":485,"x_min":-111,"x_max":581,"o":"m 372 856 q 306 289 331 488 q 269 51 282 90 q 134 -143 231 -74 q -87 -233 38 -212 l -111 -179 q 50 -87 -15 -153 q 132 60 115 -21 q 181 363 160 189 q 232 817 203 536 l 247 958 l 138 972 l 146 1032 l 503 1032 l 497 972 l 385 958 l 372 856 m 106 1133 l 332 1360 l 432 1360 l 581 1132 l 531 1097 l 375 1263 l 149 1099 l 106 1133 z "},"K":{"ha":940,"x_min":8,"x_max":974,"o":"m 521 575 q 607 424 558 513 q 685 288 675 304 q 781 132 754 172 q 828 79 808 92 l 917 57 l 910 0 l 711 0 q 665 44 692 1 q 593 172 638 86 l 571 215 q 508 335 560 235 q 431 482 438 471 l 288 331 l 256 71 l 364 54 l 360 0 l 8 0 l 15 54 l 117 71 l 228 957 l 135 972 l 142 1032 l 482 1032 l 475 972 l 368 957 l 303 447 l 765 957 l 672 972 l 679 1032 l 974 1032 l 965 972 l 883 958 l 521 575 z "},"Ķ":{"ha":936,"x_min":6,"x_max":971,"o":"m 333 -335 q 373 -285 356 -317 q 390 -215 390 -253 q 377 -162 390 -187 q 343 -132 364 -137 l 344 -89 l 422 -31 q 483 -81 461 -42 q 506 -171 506 -121 q 485 -269 506 -224 q 435 -342 465 -314 q 379 -378 406 -371 l 332 -349 l 333 -335 m 518 575 q 604 424 556 513 q 682 288 672 304 q 778 132 751 172 q 825 79 806 92 l 914 57 l 907 0 l 708 0 q 662 44 689 1 q 590 172 635 86 l 568 215 q 506 335 557 235 q 428 482 435 471 l 285 331 l 253 71 l 361 54 l 357 0 l 6 0 l 13 54 l 114 71 l 225 957 l 132 972 l 139 1032 l 479 1032 l 472 972 l 365 957 l 300 447 l 763 957 l 669 972 l 676 1032 l 971 1032 l 963 972 l 881 958 l 518 575 z "},"L":{"ha":811,"x_min":13,"x_max":768,"o":"m 142 1032 l 494 1032 l 489 972 l 368 957 l 254 71 l 590 78 l 690 332 l 768 319 l 701 0 l 13 0 l 17 54 l 117 71 l 228 957 l 135 972 l 142 1032 z "},"Ĺ":{"ha":811,"x_min":13,"x_max":768,"o":"m 483 1361 l 565 1281 q 470 1176 540 1232 q 339 1088 400 1119 l 293 1125 l 483 1361 m 142 1032 l 494 1032 l 489 972 l 368 957 l 254 71 l 590 78 l 690 332 l 768 319 l 701 0 l 13 0 l 17 54 l 117 71 l 228 957 l 135 972 l 142 1032 z "},"Ľ":{"ha":811,"x_min":13,"x_max":768,"o":"m 142 1032 l 494 1032 l 489 972 l 368 957 l 254 71 l 590 78 l 690 332 l 768 319 l 701 0 l 13 0 l 17 54 l 117 71 l 228 957 l 135 972 l 142 1032 m 610 701 q 657 946 657 828 q 651 1009 657 979 q 638 1051 646 1039 l 649 1075 l 744 1101 q 767 994 767 1078 q 765 953 767 967 q 728 792 758 869 q 660 669 699 715 l 613 686 l 610 701 z "},"Ļ":{"ha":811,"x_min":13,"x_max":768,"o":"m 250 -335 q 290 -285 272 -317 q 307 -215 307 -253 q 294 -162 307 -187 q 260 -132 281 -137 l 261 -89 l 339 -31 q 400 -81 378 -42 q 422 -171 422 -121 q 402 -269 422 -224 q 352 -342 382 -314 q 296 -378 322 -371 l 249 -349 l 250 -335 m 142 1032 l 494 1032 l 489 972 l 368 957 l 254 71 l 590 78 l 690 332 l 768 319 l 701 0 l 13 0 l 17 54 l 117 71 l 228 957 l 135 972 l 142 1032 z "},"Ŀ":{"ha":811,"x_min":13,"x_max":800,"o":"m 142 1032 l 494 1032 l 489 972 l 368 957 l 254 71 l 590 78 l 690 332 l 768 319 l 701 0 l 13 0 l 17 54 l 117 71 l 228 957 l 135 972 l 142 1032 m 633 581 q 663 657 633 626 q 729 688 692 688 q 782 668 764 688 q 800 617 800 649 q 770 538 800 567 q 700 508 740 508 q 652 528 671 508 q 633 581 633 547 z "},"Ł":{"ha":811,"x_min":13,"x_max":768,"o":"m 142 1033 l 494 1033 l 489 974 l 368 958 l 314 531 l 590 649 l 611 575 l 303 446 l 254 72 l 590 79 l 690 333 l 768 321 l 701 1 l 13 1 l 17 56 l 117 72 l 156 385 l 51 342 l 31 410 l 165 468 l 228 958 l 135 974 l 142 1033 z "},"M":{"ha":1299,"x_min":-40,"x_max":1292,"o":"m 693 351 q 844 692 731 444 q 994 1032 958 939 l 1292 1032 l 1286 972 l 1163 957 l 1136 71 l 1254 54 l 1249 0 l 867 0 l 872 54 l 999 71 l 1031 685 l 1049 967 l 943 718 l 621 -3 l 546 -12 l 432 701 l 389 965 l 332 696 l 183 71 l 324 54 l 318 0 l -40 0 l -35 54 l 81 71 l 304 957 l 176 972 l 185 1032 l 507 1032 l 614 354 l 632 213 l 693 351 z "},"Ṁ":{"ha":1297,"x_min":-40,"x_max":1292,"o":"m 746 1138 q 694 1160 717 1138 q 672 1214 672 1183 q 700 1284 672 1256 q 765 1313 728 1313 q 822 1292 800 1313 q 844 1240 844 1271 q 817 1167 844 1197 q 746 1138 789 1138 m 693 351 q 844 692 731 444 q 994 1032 958 939 l 1292 1032 l 1286 972 l 1163 957 l 1136 71 l 1254 54 l 1249 0 l 867 0 l 872 54 l 999 71 l 1031 685 l 1049 967 l 943 718 l 621 -3 l 546 -12 l 432 701 l 389 965 l 332 696 l 183 71 l 324 54 l 318 0 l -40 0 l -35 54 l 81 71 l 304 957 l 176 972 l 185 1032 l 507 1032 l 614 354 l 632 213 l 693 351 z "},"N":{"ha":1032,"x_min":11,"x_max":1065,"o":"m 139 1032 l 388 1032 l 710 283 l 764 129 l 864 958 l 753 972 l 760 1032 l 1065 1032 l 1060 972 l 961 957 l 825 0 l 688 0 l 363 750 l 308 910 l 217 71 l 335 54 l 331 0 l 11 0 l 17 54 l 113 71 l 232 957 l 129 972 l 139 1032 z "},"Ń":{"ha":1032,"x_min":11,"x_max":1065,"o":"m 735 1360 l 817 1279 q 722 1174 792 1231 q 590 1086 651 1118 l 544 1124 l 735 1360 m 139 1032 l 388 1032 l 710 283 l 764 129 l 864 958 l 753 972 l 760 1032 l 1065 1032 l 1060 972 l 961 957 l 825 0 l 688 0 l 363 750 l 308 910 l 217 71 l 335 54 l 331 0 l 11 0 l 17 54 l 113 71 l 232 957 l 129 972 l 139 1032 z "},"Ň":{"ha":1032,"x_min":11,"x_max":1065,"o":"m 403 1325 l 454 1360 l 607 1196 l 825 1360 l 869 1326 l 650 1096 l 550 1096 l 403 1325 m 139 1032 l 388 1032 l 710 283 l 764 129 l 864 958 l 753 972 l 760 1032 l 1065 1032 l 1060 972 l 961 957 l 825 0 l 688 0 l 363 750 l 308 910 l 217 71 l 335 54 l 331 0 l 11 0 l 17 54 l 113 71 l 232 957 l 129 972 l 139 1032 z "},"Ņ":{"ha":1032,"x_min":11,"x_max":1065,"o":"m 339 -336 q 378 -286 361 -318 q 396 -217 396 -254 q 383 -164 396 -189 q 349 -133 369 -139 l 350 -90 l 428 -32 q 489 -83 467 -43 q 511 -172 511 -122 q 491 -270 511 -225 q 441 -344 471 -315 q 385 -379 411 -372 l 338 -350 l 339 -336 m 139 1032 l 388 1032 l 710 283 l 764 129 l 864 958 l 753 972 l 760 1032 l 1065 1032 l 1060 972 l 961 957 l 825 0 l 688 0 l 363 750 l 308 910 l 217 71 l 335 54 l 331 0 l 11 0 l 17 54 l 113 71 l 232 957 l 129 972 l 139 1032 z "},"Ṅ":{"ha":1032,"x_min":11,"x_max":1065,"o":"m 139 1032 l 388 1032 l 710 283 l 764 129 l 864 958 l 753 972 l 760 1032 l 1065 1032 l 1060 972 l 961 957 l 825 0 l 688 0 l 363 750 l 308 910 l 217 71 l 335 54 l 331 0 l 11 0 l 17 54 l 113 71 l 232 957 l 129 972 l 139 1032 m 606 1138 q 554 1160 576 1138 q 532 1214 532 1183 q 560 1284 532 1256 q 625 1313 588 1313 q 682 1292 660 1313 q 704 1240 704 1271 q 676 1167 704 1197 q 606 1138 649 1138 z "},"Ŋ":{"ha":1032,"x_min":10,"x_max":1061,"o":"m 825 0 q 716 -183 810 -114 q 499 -269 622 -253 l 476 -214 q 628 -134 563 -189 q 701 -1 693 -79 l 360 744 l 307 890 l 218 71 l 335 54 l 329 0 l 10 0 l 15 54 l 113 71 l 232 960 l 126 975 l 136 1035 l 386 1035 l 715 300 l 764 156 l 858 960 l 751 975 l 758 1035 l 1061 1035 l 1057 975 l 958 960 l 825 0 z "},"Ñ":{"ha":1032,"x_min":11,"x_max":1065,"o":"m 371 1221 q 431 1301 390 1268 q 528 1333 471 1333 q 585 1319 561 1333 q 638 1279 608 1306 q 682 1244 664 1256 q 722 1233 700 1233 q 779 1251 757 1233 q 826 1301 801 1269 l 865 1246 q 807 1165 847 1200 q 714 1129 767 1129 q 653 1143 678 1129 q 599 1185 629 1157 q 556 1219 574 1208 q 513 1231 538 1231 q 454 1213 479 1231 q 407 1165 429 1196 l 371 1221 m 139 1032 l 388 1032 l 710 283 l 764 129 l 864 958 l 753 972 l 760 1032 l 1065 1032 l 1060 972 l 961 957 l 825 0 l 688 0 l 363 750 l 308 910 l 217 71 l 335 54 l 331 0 l 11 0 l 17 54 l 113 71 l 232 957 l 129 972 l 139 1032 z "},"O":{"ha":953,"x_min":69,"x_max":910,"o":"m 557 1046 q 754 986 675 1046 q 872 826 833 926 q 910 601 910 725 q 850 291 910 432 q 680 68 790 150 q 424 -14 569 -14 q 228 44 307 -14 q 109 203 149 103 q 69 433 69 304 q 131 744 69 604 q 303 965 192 885 q 557 1046 414 1046 m 539 974 q 372 904 446 974 q 256 714 297 835 q 214 446 214 593 q 272 165 214 272 q 440 57 331 57 q 606 126 533 57 q 720 315 679 194 q 761 585 761 435 q 705 869 761 765 q 539 974 649 974 z "},"Ó":{"ha":953,"x_min":71,"x_max":911,"o":"m 700 1360 l 782 1279 q 687 1174 757 1231 q 556 1086 617 1118 l 510 1124 l 700 1360 m 558 1046 q 756 986 676 1046 q 873 826 835 926 q 911 601 911 725 q 851 291 911 432 q 681 68 792 150 q 425 -14 571 -14 q 229 44 308 -14 q 110 203 150 103 q 71 433 71 304 q 132 744 71 604 q 304 965 193 885 q 558 1046 415 1046 m 540 974 q 373 904 447 974 q 257 714 299 835 q 215 446 215 593 q 274 165 215 272 q 442 57 332 57 q 608 126 535 57 q 722 315 681 194 q 763 585 763 435 q 706 869 763 765 q 540 974 650 974 z "},"Ŏ":{"ha":953,"x_min":71,"x_max":911,"o":"m 572 1108 q 421 1169 468 1108 q 374 1317 374 1231 q 375 1349 374 1339 l 450 1349 q 478 1247 453 1288 q 575 1206 504 1206 q 683 1249 646 1206 q 728 1349 719 1292 l 800 1349 q 769 1231 800 1286 q 687 1142 739 1175 q 572 1108 635 1108 m 558 1046 q 756 986 676 1046 q 873 826 835 926 q 911 601 911 725 q 851 291 911 432 q 681 68 792 150 q 425 -14 571 -14 q 229 44 308 -14 q 110 203 150 103 q 71 433 71 304 q 132 744 71 604 q 304 965 193 885 q 558 1046 415 1046 m 540 974 q 373 904 447 974 q 257 714 299 835 q 215 446 215 593 q 274 165 215 272 q 442 57 332 57 q 608 126 535 57 q 722 315 681 194 q 763 585 763 435 q 706 869 763 765 q 540 974 650 974 z "},"Ô":{"ha":953,"x_min":69,"x_max":910,"o":"m 557 1046 q 754 986 675 1046 q 872 826 833 926 q 910 601 910 725 q 850 291 910 432 q 680 68 790 150 q 424 -14 569 -14 q 228 44 307 -14 q 109 203 149 103 q 69 433 69 304 q 131 744 69 604 q 303 965 192 885 q 557 1046 414 1046 m 539 974 q 372 904 446 974 q 256 714 297 835 q 214 446 214 593 q 272 165 214 272 q 440 57 331 57 q 606 126 533 57 q 720 315 679 194 q 761 585 761 435 q 705 869 761 765 q 539 974 649 974 m 338 1133 l 564 1360 l 664 1360 l 813 1132 l 763 1097 l 607 1263 l 381 1099 l 338 1133 z "},"Ố":{"ha":953,"x_min":69,"x_max":1031,"o":"m 957 1593 l 1031 1521 q 937 1417 1013 1489 q 813 1322 861 1346 l 778 1354 l 957 1593 m 321 1175 l 560 1425 l 660 1425 l 799 1174 l 747 1140 l 594 1324 l 364 1142 l 321 1175 m 557 1046 q 754 986 675 1046 q 872 826 833 926 q 910 601 910 725 q 850 291 910 432 q 680 68 790 150 q 424 -14 569 -14 q 228 44 307 -14 q 109 203 149 103 q 69 433 69 304 q 131 744 69 604 q 303 965 192 885 q 557 1046 414 1046 m 539 974 q 372 904 446 974 q 256 714 297 835 q 214 446 214 593 q 272 165 214 272 q 440 57 331 57 q 606 126 533 57 q 720 315 679 194 q 761 585 761 435 q 705 869 761 765 q 539 974 649 974 z "},"Ộ":{"ha":953,"x_min":69,"x_max":910,"o":"m 557 1046 q 754 986 675 1046 q 872 826 833 926 q 910 601 910 725 q 850 291 910 432 q 680 68 790 150 q 424 -14 569 -14 q 228 44 307 -14 q 109 203 149 103 q 69 433 69 304 q 131 744 69 604 q 303 965 192 885 q 557 1046 414 1046 m 539 974 q 372 904 446 974 q 256 714 297 835 q 214 446 214 593 q 272 165 214 272 q 440 57 331 57 q 606 126 533 57 q 720 315 679 194 q 761 585 761 435 q 705 869 761 765 q 539 974 649 974 m 328 -203 q 353 -136 328 -162 q 413 -110 379 -110 q 460 -128 444 -110 q 476 -175 476 -146 q 449 -243 476 -218 q 388 -268 422 -268 q 344 -251 360 -268 q 328 -203 328 -233 m 338 1133 l 564 1360 l 664 1360 l 813 1132 l 763 1097 l 607 1263 l 381 1099 l 338 1133 z "},"Ồ":{"ha":953,"x_min":69,"x_max":910,"o":"m 825 1394 q 711 1484 783 1418 q 617 1589 639 1550 l 694 1664 l 863 1425 l 825 1394 m 325 1185 l 564 1435 l 664 1435 l 803 1183 l 751 1150 l 599 1333 l 368 1151 l 325 1185 m 557 1046 q 754 986 675 1046 q 872 826 833 926 q 910 601 910 725 q 850 291 910 432 q 680 68 790 150 q 424 -14 569 -14 q 228 44 307 -14 q 109 203 149 103 q 69 433 69 304 q 131 744 69 604 q 303 965 192 885 q 557 1046 414 1046 m 539 974 q 372 904 446 974 q 256 714 297 835 q 214 446 214 593 q 272 165 214 272 q 440 57 331 57 q 606 126 533 57 q 720 315 679 194 q 761 585 761 435 q 705 869 761 765 q 539 974 649 974 z "},"Ổ":{"ha":953,"x_min":69,"x_max":983,"o":"m 800 1321 q 790 1347 794 1331 q 786 1372 785 1364 q 801 1398 789 1388 q 833 1421 813 1408 q 863 1441 853 1433 q 878 1461 872 1449 l 879 1467 q 881 1478 881 1471 q 867 1508 881 1496 q 825 1524 854 1521 q 785 1519 790 1524 l 797 1601 q 817 1608 799 1606 q 850 1610 836 1610 q 949 1585 914 1610 q 983 1511 983 1560 q 981 1482 983 1504 q 956 1435 975 1453 q 903 1396 938 1417 q 872 1375 881 1382 q 850 1329 850 1360 l 800 1321 m 319 1188 l 558 1438 l 658 1438 l 797 1186 l 746 1153 l 593 1336 l 363 1154 l 319 1188 m 557 1046 q 754 986 675 1046 q 872 826 833 926 q 910 601 910 725 q 850 291 910 432 q 680 68 790 150 q 424 -14 569 -14 q 228 44 307 -14 q 109 203 149 103 q 69 433 69 304 q 131 744 69 604 q 303 965 192 885 q 557 1046 414 1046 m 539 974 q 372 904 446 974 q 256 714 297 835 q 214 446 214 593 q 272 165 214 272 q 440 57 331 57 q 606 126 533 57 q 720 315 679 194 q 761 585 761 435 q 705 869 761 765 q 539 974 649 974 z "},"Ỗ":{"ha":953,"x_min":69,"x_max":910,"o":"m 399 1550 q 462 1623 419 1592 q 549 1654 504 1654 q 600 1641 579 1654 q 644 1603 621 1628 q 680 1572 665 1582 q 713 1563 694 1563 q 765 1581 744 1563 q 810 1633 786 1600 l 844 1578 q 787 1501 829 1533 q 697 1468 744 1468 q 640 1481 661 1468 q 596 1519 618 1494 q 562 1550 576 1540 q 526 1560 547 1560 q 428 1500 485 1560 l 399 1550 m 314 1179 l 553 1429 l 653 1429 l 792 1178 l 740 1144 l 588 1328 l 357 1146 l 314 1179 m 557 1046 q 754 986 675 1046 q 872 826 833 926 q 910 601 910 725 q 850 291 910 432 q 680 68 790 150 q 424 -14 569 -14 q 228 44 307 -14 q 109 203 149 103 q 69 433 69 304 q 131 744 69 604 q 303 965 192 885 q 557 1046 414 1046 m 539 974 q 372 904 446 974 q 256 714 297 835 q 214 446 214 593 q 272 165 214 272 q 440 57 331 57 q 606 126 533 57 q 720 315 679 194 q 761 585 761 435 q 705 869 761 765 q 539 974 649 974 z "},"Ö":{"ha":953,"x_min":71,"x_max":911,"o":"m 431 1167 q 382 1188 401 1167 q 363 1242 363 1210 q 390 1308 364 1281 q 450 1335 415 1335 q 501 1315 482 1335 q 521 1265 521 1294 q 495 1194 521 1222 q 431 1167 469 1167 m 721 1167 q 674 1188 693 1167 q 654 1240 654 1208 q 680 1308 654 1281 q 740 1335 706 1335 q 792 1315 772 1335 q 811 1265 811 1296 q 786 1194 811 1222 q 721 1167 761 1167 m 558 1046 q 756 986 676 1046 q 873 826 835 926 q 911 601 911 725 q 851 291 911 432 q 681 68 792 150 q 425 -14 571 -14 q 229 44 308 -14 q 110 203 150 103 q 71 433 71 304 q 132 744 71 604 q 304 965 193 885 q 558 1046 415 1046 m 540 974 q 373 904 447 974 q 257 714 299 835 q 215 446 215 593 q 274 165 215 272 q 442 57 332 57 q 608 126 535 57 q 722 315 681 194 q 763 585 763 435 q 706 869 763 765 q 540 974 650 974 z "},"Ọ":{"ha":953,"x_min":69,"x_max":910,"o":"m 557 1046 q 754 986 675 1046 q 872 826 833 926 q 910 601 910 725 q 850 291 910 432 q 680 68 790 150 q 424 -14 569 -14 q 228 44 307 -14 q 109 203 149 103 q 69 433 69 304 q 131 744 69 604 q 303 965 192 885 q 557 1046 414 1046 m 539 974 q 372 904 446 974 q 256 714 297 835 q 214 446 214 593 q 272 165 214 272 q 440 57 331 57 q 606 126 533 57 q 720 315 679 194 q 761 585 761 435 q 705 869 761 765 q 539 974 649 974 m 328 -203 q 353 -136 328 -162 q 413 -110 379 -110 q 460 -128 444 -110 q 476 -175 476 -146 q 449 -243 476 -218 q 388 -268 422 -268 q 344 -251 360 -268 q 328 -203 328 -233 z "},"Ò":{"ha":953,"x_min":71,"x_max":911,"o":"m 579 1086 q 450 1174 519 1118 q 357 1279 381 1231 l 440 1360 l 626 1124 l 579 1086 m 558 1046 q 756 986 676 1046 q 873 826 835 926 q 911 601 911 725 q 851 291 911 432 q 681 68 792 150 q 425 -14 571 -14 q 229 44 308 -14 q 110 203 150 103 q 71 433 71 304 q 132 744 71 604 q 304 965 193 885 q 558 1046 415 1046 m 540 974 q 373 904 447 974 q 257 714 299 835 q 215 446 215 593 q 274 165 215 272 q 442 57 332 57 q 608 126 535 57 q 722 315 681 194 q 763 585 763 435 q 706 869 763 765 q 540 974 650 974 z "},"Ỏ":{"ha":953,"x_min":69,"x_max":910,"o":"m 557 1046 q 754 986 675 1046 q 872 826 833 926 q 910 601 910 725 q 850 291 910 432 q 680 68 790 150 q 424 -14 569 -14 q 228 44 307 -14 q 109 203 149 103 q 69 433 69 304 q 131 744 69 604 q 303 965 192 885 q 557 1046 414 1046 m 539 974 q 372 904 446 974 q 256 714 297 835 q 214 446 214 593 q 272 165 214 272 q 440 57 331 57 q 606 126 533 57 q 720 315 679 194 q 761 585 761 435 q 705 869 761 765 q 539 974 649 974 m 540 1138 q 528 1167 533 1149 q 524 1196 522 1185 q 540 1225 528 1214 q 576 1250 553 1236 q 609 1272 597 1263 q 628 1296 621 1282 l 629 1301 q 631 1315 631 1306 q 568 1365 631 1360 q 522 1361 529 1365 l 536 1454 q 560 1461 539 1458 q 596 1464 581 1464 q 708 1435 668 1464 q 747 1351 747 1406 q 744 1319 747 1331 q 715 1265 738 1286 q 654 1221 693 1243 q 636 1208 644 1214 q 621 1199 628 1203 q 597 1146 596 1181 l 540 1138 z "},"Ơ":{"ha":953,"x_min":69,"x_max":943,"o":"m 939 1142 q 889 1031 931 1076 q 785 961 847 985 q 878 808 847 901 q 910 601 910 714 q 850 291 910 432 q 680 68 790 150 q 424 -14 569 -14 q 228 44 307 -14 q 109 203 149 103 q 69 433 69 304 q 131 744 69 604 q 303 965 192 885 q 557 1046 414 1046 q 674 1028 617 1046 q 753 1047 724 1029 q 795 1087 782 1064 q 822 1149 808 1110 q 826 1160 824 1153 q 828 1172 829 1168 l 943 1172 l 939 1142 m 761 585 q 733 803 761 711 q 649 938 704 894 l 647 938 l 647 939 q 539 974 601 974 q 372 904 446 974 q 256 714 297 835 q 214 446 214 593 q 272 165 214 272 q 440 57 331 57 q 606 126 533 57 q 720 315 679 194 q 761 585 761 435 z "},"Ớ":{"ha":953,"x_min":69,"x_max":943,"o":"m 939 1142 q 889 1031 931 1076 q 785 961 847 985 q 878 808 847 901 q 910 601 910 714 q 850 291 910 432 q 680 68 790 150 q 424 -14 569 -14 q 228 44 307 -14 q 109 203 149 103 q 69 433 69 304 q 131 744 69 604 q 303 965 192 885 q 557 1046 414 1046 q 674 1028 617 1046 q 753 1047 724 1029 q 795 1087 782 1064 q 822 1149 808 1110 q 826 1160 824 1153 q 828 1172 829 1168 l 943 1172 l 939 1142 m 761 585 q 733 803 761 711 q 649 938 704 894 l 647 938 l 647 939 q 539 974 601 974 q 372 904 446 974 q 256 714 297 835 q 214 446 214 593 q 272 165 214 272 q 440 57 331 57 q 606 126 533 57 q 720 315 679 194 q 761 585 761 435 m 699 1360 l 781 1279 q 685 1174 756 1231 q 554 1086 615 1118 l 508 1124 l 699 1360 z "},"Ợ":{"ha":953,"x_min":69,"x_max":943,"o":"m 939 1142 q 889 1031 931 1076 q 785 961 847 985 q 878 808 847 901 q 910 601 910 714 q 850 291 910 432 q 680 68 790 150 q 424 -14 569 -14 q 228 44 307 -14 q 109 203 149 103 q 69 433 69 304 q 131 744 69 604 q 303 965 192 885 q 557 1046 414 1046 q 674 1028 617 1046 q 753 1047 724 1029 q 795 1087 782 1064 q 822 1149 808 1110 q 826 1160 824 1153 q 828 1172 829 1168 l 943 1172 l 939 1142 m 761 585 q 733 803 761 711 q 649 938 704 894 l 647 938 l 647 939 q 539 974 601 974 q 372 904 446 974 q 256 714 297 835 q 214 446 214 593 q 272 165 214 272 q 440 57 331 57 q 606 126 533 57 q 720 315 679 194 q 761 585 761 435 m 328 -203 q 353 -136 328 -162 q 413 -110 379 -110 q 460 -128 444 -110 q 476 -175 476 -146 q 449 -243 476 -218 q 388 -268 422 -268 q 344 -251 360 -268 q 328 -203 328 -233 z "},"Ờ":{"ha":953,"x_min":69,"x_max":943,"o":"m 939 1142 q 889 1031 931 1076 q 785 961 847 985 q 878 808 847 901 q 910 601 910 714 q 850 291 910 432 q 680 68 790 150 q 424 -14 569 -14 q 228 44 307 -14 q 109 203 149 103 q 69 433 69 304 q 131 744 69 604 q 303 965 192 885 q 557 1046 414 1046 q 674 1028 617 1046 q 753 1047 724 1029 q 795 1087 782 1064 q 822 1149 808 1110 q 826 1160 824 1153 q 828 1172 829 1168 l 943 1172 l 939 1142 m 761 585 q 733 803 761 711 q 649 938 704 894 l 647 938 l 647 939 q 539 974 601 974 q 372 904 446 974 q 256 714 297 835 q 214 446 214 593 q 272 165 214 272 q 440 57 331 57 q 606 126 533 57 q 720 315 679 194 q 761 585 761 435 m 578 1086 q 449 1174 518 1118 q 356 1279 379 1231 l 439 1360 l 625 1124 l 578 1086 z "},"Ở":{"ha":953,"x_min":69,"x_max":943,"o":"m 939 1142 q 889 1031 931 1076 q 785 961 847 985 q 878 808 847 901 q 910 601 910 714 q 850 291 910 432 q 680 68 790 150 q 424 -14 569 -14 q 228 44 307 -14 q 109 203 149 103 q 69 433 69 304 q 131 744 69 604 q 303 965 192 885 q 557 1046 414 1046 q 674 1028 617 1046 q 753 1047 724 1029 q 795 1087 782 1064 q 822 1149 808 1110 q 826 1160 824 1153 q 828 1172 829 1168 l 943 1172 l 939 1142 m 761 585 q 733 803 761 711 q 649 938 704 894 l 647 938 l 647 939 q 539 974 601 974 q 372 904 446 974 q 256 714 297 835 q 214 446 214 593 q 272 165 214 272 q 440 57 331 57 q 606 126 533 57 q 720 315 679 194 q 761 585 761 435 m 540 1138 q 528 1167 533 1149 q 524 1196 522 1185 q 540 1225 528 1214 q 576 1250 553 1236 q 609 1272 597 1263 q 628 1296 621 1282 l 629 1301 q 631 1315 631 1306 q 568 1365 631 1360 q 522 1361 529 1365 l 536 1454 q 560 1461 539 1458 q 596 1464 581 1464 q 708 1435 668 1464 q 747 1351 747 1406 q 744 1319 747 1331 q 715 1265 738 1286 q 654 1221 693 1243 q 636 1208 644 1214 q 621 1199 628 1203 q 597 1146 596 1181 l 540 1138 z "},"Ỡ":{"ha":953,"x_min":69,"x_max":943,"o":"m 939 1142 q 889 1031 931 1076 q 785 961 847 985 q 878 808 847 901 q 910 601 910 714 q 850 291 910 432 q 680 68 790 150 q 424 -14 569 -14 q 228 44 307 -14 q 109 203 149 103 q 69 433 69 304 q 131 744 69 604 q 303 965 192 885 q 557 1046 414 1046 q 674 1028 617 1046 q 753 1047 724 1029 q 795 1087 782 1064 q 822 1149 808 1110 q 826 1160 824 1153 q 828 1172 829 1168 l 943 1172 l 939 1142 m 761 585 q 733 803 761 711 q 649 938 704 894 l 647 938 l 647 939 q 539 974 601 974 q 372 904 446 974 q 256 714 297 835 q 214 446 214 593 q 272 165 214 272 q 440 57 331 57 q 606 126 533 57 q 720 315 679 194 q 761 585 761 435 m 335 1221 q 394 1301 354 1268 q 492 1333 435 1333 q 549 1319 525 1333 q 601 1279 572 1306 q 646 1244 628 1256 q 686 1233 664 1233 q 743 1251 721 1233 q 790 1301 765 1269 l 829 1246 q 771 1165 811 1200 q 678 1129 731 1129 q 617 1143 642 1129 q 563 1185 593 1157 q 519 1219 538 1208 q 476 1231 501 1231 q 418 1213 443 1231 q 371 1165 393 1196 l 335 1221 z "},"Ő":{"ha":953,"x_min":69,"x_max":946,"o":"m 557 1046 q 754 986 675 1046 q 872 826 833 926 q 910 601 910 725 q 850 291 910 432 q 680 68 790 150 q 424 -14 569 -14 q 228 44 307 -14 q 109 203 149 103 q 69 433 69 304 q 131 744 69 604 q 303 965 192 885 q 557 1046 414 1046 m 539 974 q 372 904 446 974 q 256 714 297 835 q 214 446 214 593 q 272 165 214 272 q 440 57 331 57 q 606 126 533 57 q 720 315 679 194 q 761 585 761 435 q 705 869 761 765 q 539 974 649 974 m 865 1357 l 946 1286 q 847 1172 910 1229 q 726 1086 785 1115 l 672 1125 l 865 1357 m 563 1356 l 643 1286 q 551 1176 618 1233 q 421 1085 485 1119 l 371 1124 l 563 1356 z "},"Ō":{"ha":953,"x_min":71,"x_max":911,"o":"m 399 1274 l 757 1274 l 744 1176 l 388 1176 l 399 1274 m 558 1046 q 756 986 676 1046 q 873 826 835 926 q 911 601 911 725 q 851 291 911 432 q 681 68 792 150 q 425 -14 571 -14 q 229 44 308 -14 q 110 203 150 103 q 71 433 71 304 q 132 744 71 604 q 304 965 193 885 q 558 1046 415 1046 m 540 974 q 373 904 447 974 q 257 714 299 835 q 215 446 215 593 q 274 165 215 272 q 442 57 332 57 q 608 126 535 57 q 722 315 681 194 q 763 585 763 435 q 706 869 763 765 q 540 974 650 974 z "},"Ø":{"ha":954,"x_min":69,"x_max":910,"o":"m 778 967 q 877 814 844 908 q 910 603 910 719 q 850 292 910 432 q 681 69 790 151 q 425 -12 571 -12 q 232 44 310 -12 l 138 -106 l 86 -78 l 185 83 q 98 234 126 143 q 69 435 69 325 q 131 746 69 606 q 303 967 192 886 q 557 1047 414 1047 q 731 1003 656 1047 l 819 1146 l 871 1118 l 778 967 m 674 907 q 540 975 624 975 q 372 904 446 975 q 256 710 297 833 q 215 438 214 588 q 264 192 215 293 l 674 907 m 293 138 q 440 58 349 58 q 607 127 533 58 q 721 316 681 196 q 761 586 761 436 q 703 860 761 763 l 293 138 z "},"Ǿ":{"ha":954,"x_min":69,"x_max":910,"o":"m 778 967 q 877 814 844 908 q 910 603 910 719 q 850 292 910 432 q 681 69 790 151 q 425 -12 571 -12 q 232 44 310 -12 l 138 -106 l 86 -78 l 185 83 q 98 234 126 143 q 69 435 69 325 q 131 746 69 606 q 303 967 192 886 q 557 1047 414 1047 q 731 1003 656 1047 l 819 1146 l 871 1118 l 778 967 m 674 907 q 540 975 624 975 q 372 904 446 975 q 256 710 297 833 q 215 438 214 588 q 264 192 215 293 l 674 907 m 293 138 q 440 58 349 58 q 607 127 533 58 q 721 316 681 196 q 761 586 761 436 q 703 860 761 763 l 293 138 m 724 1360 l 806 1279 q 710 1174 781 1231 q 579 1086 640 1118 l 533 1124 l 724 1360 z "},"Õ":{"ha":953,"x_min":71,"x_max":911,"o":"m 336 1221 q 396 1301 356 1268 q 493 1333 436 1333 q 550 1319 526 1333 q 603 1279 574 1306 q 647 1244 629 1256 q 688 1233 665 1233 q 744 1251 722 1233 q 792 1301 767 1269 l 831 1246 q 772 1165 813 1200 q 679 1129 732 1129 q 619 1143 643 1129 q 564 1185 594 1157 q 521 1219 539 1208 q 478 1231 503 1231 q 419 1213 444 1231 q 372 1165 394 1196 l 336 1221 m 558 1046 q 756 986 676 1046 q 873 826 835 926 q 911 601 911 725 q 851 291 911 432 q 681 68 792 150 q 425 -14 571 -14 q 229 44 308 -14 q 110 203 150 103 q 71 433 71 304 q 132 744 71 604 q 304 965 193 885 q 558 1046 415 1046 m 540 974 q 373 904 447 974 q 257 714 299 835 q 215 446 215 593 q 274 165 215 272 q 442 57 332 57 q 608 126 535 57 q 722 315 681 194 q 763 585 763 435 q 706 869 763 765 q 540 974 650 974 z "},"Œ":{"ha":1467,"x_min":63,"x_max":1429,"o":"m 776 185 q 624 38 714 90 q 425 -14 535 -14 q 158 108 253 -14 q 63 438 63 229 q 126 747 63 608 q 301 965 189 885 q 556 1044 413 1044 q 744 985 668 1044 q 854 822 819 925 l 881 1032 l 1429 1032 l 1421 819 l 1339 819 l 1315 957 l 1015 968 l 963 572 l 1267 590 l 1256 481 l 956 493 l 901 71 l 1281 88 l 1349 246 l 1428 232 l 1379 0 l 754 0 l 776 185 m 539 972 q 368 903 444 972 q 249 718 292 835 q 206 461 206 601 q 265 165 208 272 q 442 57 322 57 q 611 126 538 57 q 726 315 685 194 q 767 583 767 435 q 539 972 767 972 z "},"P":{"ha":851,"x_min":11,"x_max":851,"o":"m 313 1032 q 419 1038 350 1032 q 522 1043 486 1043 q 769 975 688 1043 q 851 768 851 907 q 794 550 851 642 q 638 411 738 458 q 415 364 539 364 q 292 368 363 364 l 257 71 l 399 54 l 394 0 l 11 0 l 17 54 l 115 71 l 229 957 l 135 972 l 142 1032 l 313 1032 m 301 444 q 421 436 346 436 q 633 524 561 438 q 706 772 706 610 q 658 924 706 874 q 506 974 610 974 q 369 961 444 974 l 301 444 z "},"Ṗ":{"ha":851,"x_min":11,"x_max":851,"o":"m 567 1138 q 515 1160 538 1138 q 493 1214 493 1183 q 521 1284 493 1256 q 586 1313 549 1313 q 643 1292 621 1313 q 665 1240 665 1271 q 638 1167 665 1197 q 567 1138 610 1138 m 313 1032 q 419 1038 350 1032 q 522 1043 486 1043 q 769 975 688 1043 q 851 768 851 907 q 794 550 851 642 q 638 411 738 458 q 415 364 539 364 q 292 368 363 364 l 257 71 l 399 54 l 394 0 l 11 0 l 17 54 l 115 71 l 229 957 l 135 972 l 142 1032 l 313 1032 m 301 444 q 421 436 346 436 q 633 524 561 438 q 706 772 706 610 q 658 924 706 874 q 506 974 610 974 q 369 961 444 974 l 301 444 z "},"Þ":{"ha":847,"x_min":11,"x_max":831,"o":"m 350 808 q 511 819 428 819 q 753 753 675 819 q 831 567 831 686 q 781 390 831 468 q 637 267 732 311 q 410 222 542 222 q 276 228 321 222 l 256 71 l 371 54 l 367 0 l 11 0 l 18 54 l 117 71 l 229 961 l 136 976 l 143 1036 l 483 1036 l 476 976 l 369 961 l 350 808 m 285 299 q 413 293 360 293 q 615 360 540 293 q 689 542 689 428 q 639 697 689 647 q 472 747 589 747 q 407 744 444 747 q 340 736 369 740 l 285 299 z "},"Q":{"ha":954,"x_min":67,"x_max":907,"o":"m 851 -196 q 764 -239 822 -219 q 643 -258 706 -258 q 467 -209 533 -258 q 400 -69 400 -160 q 407 -12 400 -47 q 154 116 242 -6 q 67 431 67 238 q 128 743 67 603 q 300 965 189 883 q 556 1046 411 1046 q 753 986 674 1046 q 869 826 832 926 q 907 601 907 726 q 856 310 907 443 q 708 94 804 178 q 486 -8 613 10 q 540 -113 488 -86 q 686 -140 593 -140 q 770 -131 722 -140 q 850 -108 818 -122 l 851 -196 m 538 974 q 370 904 444 974 q 254 714 296 835 q 213 446 213 593 q 271 165 213 272 q 439 57 329 57 q 606 126 532 57 q 719 315 679 194 q 760 585 760 435 q 703 869 760 764 q 538 974 647 974 z "},"R":{"ha":924,"x_min":19,"x_max":889,"o":"m 317 1032 q 408 1038 347 1032 q 513 1043 472 1043 q 768 984 689 1043 q 847 801 847 925 q 777 593 847 682 q 588 471 707 504 q 655 379 619 444 q 726 235 690 314 l 746 192 q 790 103 775 128 q 826 69 806 79 q 889 60 847 60 l 886 0 l 715 0 q 672 35 694 0 q 615 158 650 69 q 520 373 558 297 q 447 454 482 449 l 353 454 l 297 454 l 253 71 l 379 54 l 375 0 l 19 0 l 24 54 l 117 71 l 228 957 l 135 972 l 142 1032 l 317 1032 m 307 526 q 461 524 338 524 q 638 603 572 529 q 704 792 704 676 q 654 930 704 886 q 485 974 604 974 q 429 971 463 974 q 365 964 396 968 l 307 526 z "},"Ŕ":{"ha":924,"x_min":19,"x_max":889,"o":"m 317 1032 q 408 1038 347 1032 q 513 1043 472 1043 q 768 984 689 1043 q 847 801 847 925 q 777 593 847 682 q 588 471 707 504 q 655 379 619 444 q 726 235 690 314 l 746 192 q 790 103 775 128 q 826 69 806 79 q 889 60 847 60 l 886 0 l 715 0 q 672 35 694 0 q 615 158 650 69 q 520 373 558 297 q 447 454 482 449 l 353 454 l 297 454 l 253 71 l 379 54 l 375 0 l 19 0 l 24 54 l 117 71 l 228 957 l 135 972 l 142 1032 l 317 1032 m 307 526 q 461 524 338 524 q 638 603 572 529 q 704 792 704 676 q 654 930 704 886 q 485 974 604 974 q 429 971 463 974 q 365 964 396 968 l 307 526 m 693 1360 l 775 1279 q 680 1174 750 1231 q 549 1086 610 1118 l 503 1124 l 693 1360 z "},"Ř":{"ha":921,"x_min":17,"x_max":886,"o":"m 336 1325 l 388 1360 l 540 1196 l 758 1360 l 803 1326 l 583 1096 l 483 1096 l 336 1325 m 314 1032 q 406 1038 344 1032 q 510 1043 469 1043 q 765 984 686 1043 q 844 801 844 925 q 774 593 844 682 q 585 471 704 504 q 652 379 617 444 q 724 235 688 314 l 743 192 q 788 103 772 128 q 824 69 803 79 q 886 60 844 60 l 883 0 l 713 0 q 669 35 692 0 q 613 158 647 69 q 517 373 556 297 q 444 454 479 449 l 350 454 l 294 454 l 250 71 l 376 54 l 372 0 l 17 0 l 21 54 l 114 71 l 225 957 l 132 972 l 139 1032 l 314 1032 m 304 526 q 458 524 335 524 q 635 603 569 529 q 701 792 701 676 q 651 930 701 886 q 482 974 601 974 q 426 971 460 974 q 363 964 393 968 l 304 526 z "},"Ŗ":{"ha":921,"x_min":17,"x_max":886,"o":"m 335 -336 q 374 -286 357 -318 q 392 -217 392 -254 q 378 -164 392 -189 q 344 -133 365 -139 l 346 -90 l 424 -32 q 485 -83 463 -43 q 507 -172 507 -122 q 487 -270 507 -225 q 437 -344 467 -315 q 381 -379 407 -372 l 333 -350 l 335 -336 m 314 1032 q 406 1038 344 1032 q 510 1043 469 1043 q 765 984 686 1043 q 844 801 844 925 q 774 593 844 682 q 585 471 704 504 q 652 379 617 444 q 724 235 688 314 l 743 192 q 788 103 772 128 q 824 69 803 79 q 886 60 844 60 l 883 0 l 713 0 q 669 35 692 0 q 613 158 647 69 q 517 373 556 297 q 444 454 479 449 l 350 454 l 294 454 l 250 71 l 376 54 l 372 0 l 17 0 l 21 54 l 114 71 l 225 957 l 132 972 l 139 1032 l 314 1032 m 304 526 q 458 524 335 524 q 635 603 569 529 q 701 792 701 676 q 651 930 701 886 q 482 974 601 974 q 426 971 460 974 q 363 964 393 968 l 304 526 z "},"S":{"ha":749,"x_min":29,"x_max":719,"o":"m 601 939 q 540 966 578 956 q 456 976 503 976 q 318 935 375 976 q 261 819 261 894 q 310 689 261 742 q 458 575 360 636 q 573 494 529 531 q 647 406 617 458 q 678 286 678 354 q 633 128 678 197 q 506 22 588 60 q 317 -15 424 -15 q 141 5 226 -15 q 29 46 56 25 l 60 243 l 143 243 l 151 97 q 224 67 179 78 q 317 56 269 56 q 477 103 411 56 q 543 236 543 150 q 499 358 543 308 q 364 463 454 407 q 244 547 293 508 q 163 642 196 586 q 129 768 129 697 q 174 915 129 851 q 297 1012 219 978 q 465 1046 374 1046 q 621 1029 557 1046 q 719 989 685 1013 l 688 806 l 613 806 l 601 939 z "},"Ś":{"ha":749,"x_min":29,"x_max":719,"o":"m 601 939 q 540 966 578 956 q 456 976 503 976 q 318 935 375 976 q 261 819 261 894 q 310 689 261 742 q 458 575 360 636 q 573 494 529 531 q 647 406 617 458 q 678 286 678 354 q 633 128 678 197 q 506 22 588 60 q 317 -15 424 -15 q 141 5 226 -15 q 29 46 56 25 l 60 243 l 143 243 l 151 97 q 224 67 179 78 q 317 56 269 56 q 477 103 411 56 q 543 236 543 150 q 499 358 543 308 q 364 463 454 407 q 244 547 293 508 q 163 642 196 586 q 129 768 129 697 q 174 915 129 851 q 297 1012 219 978 q 465 1046 374 1046 q 621 1029 557 1046 q 719 989 685 1013 l 688 806 l 613 806 l 601 939 m 608 1360 l 690 1279 q 595 1174 665 1231 q 464 1086 525 1118 l 418 1124 l 608 1360 z "},"Š":{"ha":749,"x_min":29,"x_max":744,"o":"m 601 939 q 540 966 578 956 q 456 976 503 976 q 318 935 375 976 q 261 819 261 894 q 310 689 261 742 q 458 575 360 636 q 573 494 529 531 q 647 406 617 458 q 678 286 678 354 q 633 128 678 197 q 506 22 588 60 q 317 -15 424 -15 q 141 5 226 -15 q 29 46 56 25 l 60 243 l 143 243 l 151 97 q 224 67 179 78 q 317 56 269 56 q 477 103 411 56 q 543 236 543 150 q 499 358 543 308 q 364 463 454 407 q 244 547 293 508 q 163 642 196 586 q 129 768 129 697 q 174 915 129 851 q 297 1012 219 978 q 465 1046 374 1046 q 621 1029 557 1046 q 719 989 685 1013 l 688 806 l 613 806 l 601 939 m 278 1325 l 329 1360 l 482 1196 l 700 1360 l 744 1326 l 525 1096 l 425 1096 l 278 1325 z "},"Ş":{"ha":749,"x_min":29,"x_max":719,"o":"m 456 976 q 318 935 375 976 q 261 819 261 894 q 310 689 261 742 q 458 575 360 636 q 573 494 529 531 q 647 406 617 458 q 678 286 678 354 q 590 78 678 160 q 354 -14 501 -3 q 369 -111 369 -56 q 319 -265 369 -212 q 182 -318 269 -318 q 123 -312 154 -318 q 81 -300 92 -307 l 94 -211 q 121 -220 103 -217 q 158 -224 139 -224 q 251 -183 218 -224 q 286 -71 285 -143 q 282 -14 286 -39 q 127 9 200 -10 q 29 46 54 28 l 60 243 l 143 243 l 151 97 q 224 67 179 78 q 317 56 269 56 q 477 103 411 56 q 543 236 543 150 q 499 358 543 308 q 364 463 454 407 q 244 547 293 508 q 163 642 196 586 q 129 768 129 697 q 174 915 129 851 q 297 1012 219 978 q 465 1046 374 1046 q 621 1029 557 1046 q 719 989 685 1013 l 688 806 l 613 806 l 601 939 q 540 966 578 956 q 456 976 503 976 z "},"Ŝ":{"ha":749,"x_min":29,"x_max":722,"o":"m 601 939 q 540 966 578 956 q 456 976 503 976 q 318 935 375 976 q 261 819 261 894 q 310 689 261 742 q 458 575 360 636 q 573 494 529 531 q 647 406 617 458 q 678 286 678 354 q 633 128 678 197 q 506 22 588 60 q 317 -15 424 -15 q 141 5 226 -15 q 29 46 56 25 l 60 243 l 143 243 l 151 97 q 224 67 179 78 q 317 56 269 56 q 477 103 411 56 q 543 236 543 150 q 499 358 543 308 q 364 463 454 407 q 244 547 293 508 q 163 642 196 586 q 129 768 129 697 q 174 915 129 851 q 297 1012 219 978 q 465 1046 374 1046 q 621 1029 557 1046 q 719 989 685 1013 l 688 806 l 613 806 l 601 939 m 247 1133 l 474 1360 l 574 1360 l 722 1132 l 672 1097 l 517 1263 l 290 1099 l 247 1133 z "},"Ș":{"ha":749,"x_min":29,"x_max":719,"o":"m 193 -336 q 233 -286 215 -318 q 250 -217 250 -254 q 237 -164 250 -189 q 203 -133 224 -139 l 204 -90 l 282 -32 q 343 -83 321 -43 q 365 -172 365 -122 q 345 -270 365 -225 q 295 -344 325 -315 q 239 -379 265 -372 l 192 -350 l 193 -336 m 601 939 q 540 966 578 956 q 456 976 503 976 q 318 935 375 976 q 261 819 261 894 q 310 689 261 742 q 458 575 360 636 q 573 494 529 531 q 647 406 617 458 q 678 286 678 354 q 633 128 678 197 q 506 22 588 60 q 317 -15 424 -15 q 141 5 226 -15 q 29 46 56 25 l 60 243 l 143 243 l 151 97 q 224 67 179 78 q 317 56 269 56 q 477 103 411 56 q 543 236 543 150 q 499 358 543 308 q 364 463 454 407 q 244 547 293 508 q 163 642 196 586 q 129 768 129 697 q 174 915 129 851 q 297 1012 219 978 q 465 1046 374 1046 q 621 1029 557 1046 q 719 989 685 1013 l 688 806 l 613 806 l 601 939 z "},"Ṡ":{"ha":749,"x_min":29,"x_max":719,"o":"m 481 1138 q 429 1160 451 1138 q 407 1214 407 1183 q 435 1284 407 1256 q 500 1313 463 1313 q 557 1292 535 1313 q 579 1240 579 1271 q 551 1167 579 1197 q 481 1138 524 1138 m 601 939 q 540 966 578 956 q 456 976 503 976 q 318 935 375 976 q 261 819 261 894 q 310 689 261 742 q 458 575 360 636 q 573 494 529 531 q 647 406 617 458 q 678 286 678 354 q 633 128 678 197 q 506 22 588 60 q 317 -15 424 -15 q 141 5 226 -15 q 29 46 56 25 l 60 243 l 143 243 l 151 97 q 224 67 179 78 q 317 56 269 56 q 477 103 411 56 q 543 236 543 150 q 499 358 543 308 q 364 463 454 407 q 244 547 293 508 q 163 642 196 586 q 129 768 129 697 q 174 915 129 851 q 297 1012 219 978 q 465 1046 374 1046 q 621 1029 557 1046 q 719 989 685 1013 l 688 806 l 613 806 l 601 939 z "},"ẞ":{"ha":992,"x_min":7,"x_max":949,"o":"m 165 621 q 239 833 179 738 q 395 983 299 928 q 613 1039 492 1039 q 786 1016 722 1039 q 897 956 850 993 l 892 918 l 674 624 q 871 503 793 574 q 949 313 949 432 q 905 145 949 219 q 785 29 861 71 q 617 -12 708 -12 q 516 -1 561 -12 q 426 26 471 10 q 376 40 389 39 l 407 264 l 483 264 l 490 107 q 542 69 503 85 q 628 54 581 54 q 765 119 715 54 q 814 279 814 183 q 730 449 814 376 q 553 558 646 522 l 557 585 l 772 888 q 713 945 760 918 q 589 972 665 972 q 398 886 472 972 q 304 644 324 800 l 224 -6 l 7 -6 l 11 53 l 96 69 l 165 621 z "},"Ə":{"ha":890,"x_min":51,"x_max":850,"o":"m 158 988 q 244 1006 190 989 q 369 1033 314 1024 q 510 1043 425 1043 q 691 992 614 1043 q 809 846 768 940 q 850 628 850 751 q 782 299 850 446 q 600 68 714 151 q 353 -15 486 -15 q 131 74 210 -15 q 51 325 51 163 q 60 437 51 382 q 79 522 68 492 l 710 524 q 714 611 714 565 q 647 881 714 783 q 469 978 581 978 q 335 957 392 978 q 249 907 278 936 l 201 783 l 126 783 l 158 988 m 203 456 q 182 306 182 364 q 235 126 182 199 q 385 54 289 54 q 588 156 501 54 q 703 456 675 258 l 203 456 z "},"T":{"ha":872,"x_min":54,"x_max":922,"o":"m 108 1032 l 922 1032 l 876 704 l 803 703 l 807 954 l 575 968 l 458 71 l 633 57 l 628 0 l 147 0 l 151 57 l 319 71 l 435 968 l 204 954 l 132 704 l 54 704 l 108 1032 z "},"Ŧ":{"ha":872,"x_min":54,"x_max":922,"o":"m 108 1032 l 922 1032 l 876 704 l 803 703 l 807 954 l 575 968 l 522 565 l 725 565 l 717 486 l 511 486 l 458 71 l 633 57 l 628 0 l 147 0 l 151 57 l 319 71 l 372 486 l 199 486 l 210 565 l 382 565 l 435 968 l 204 954 l 132 704 l 54 704 l 108 1032 z "},"Ť":{"ha":872,"x_min":54,"x_max":922,"o":"m 331 1325 l 382 1360 l 535 1196 l 753 1360 l 797 1326 l 578 1096 l 478 1096 l 331 1325 m 108 1032 l 922 1032 l 876 704 l 803 703 l 807 954 l 575 968 l 458 71 l 633 57 l 628 0 l 147 0 l 151 57 l 319 71 l 435 968 l 204 954 l 132 704 l 54 704 l 108 1032 z "},"Ţ":{"ha":872,"x_min":54,"x_max":922,"o":"m 922 1032 l 876 704 l 803 703 l 807 954 l 575 968 l 458 71 l 633 57 l 628 0 l 436 0 q 450 -51 444 -21 q 456 -111 456 -81 q 406 -265 456 -212 q 268 -318 356 -318 q 209 -312 240 -318 q 167 -300 178 -307 l 181 -211 q 207 -220 189 -217 q 244 -224 225 -224 q 338 -183 304 -224 q 372 -71 371 -143 q 364 0 372 -28 l 147 0 l 151 57 l 319 71 l 435 968 l 204 954 l 132 704 l 54 704 l 108 1032 l 922 1032 z "},"Ț":{"ha":872,"x_min":54,"x_max":922,"o":"m 257 -336 q 297 -286 279 -318 q 314 -217 314 -254 q 301 -164 314 -189 q 267 -133 288 -139 l 268 -90 l 346 -32 q 407 -83 385 -43 q 429 -172 429 -122 q 409 -270 429 -225 q 359 -344 389 -315 q 303 -379 329 -372 l 256 -350 l 257 -336 m 108 1032 l 922 1032 l 876 704 l 803 703 l 807 954 l 575 968 l 458 71 l 633 57 l 628 0 l 147 0 l 151 57 l 319 71 l 435 968 l 204 954 l 132 704 l 54 704 l 108 1032 z "},"Ṫ":{"ha":872,"x_min":54,"x_max":922,"o":"m 533 1138 q 482 1160 504 1138 q 460 1214 460 1183 q 488 1284 460 1256 q 553 1313 515 1313 q 610 1292 588 1313 q 632 1240 632 1271 q 604 1167 632 1197 q 533 1138 576 1138 m 108 1032 l 922 1032 l 876 704 l 803 703 l 807 954 l 575 968 l 458 71 l 633 57 l 628 0 l 147 0 l 151 57 l 319 71 l 435 968 l 204 954 l 132 704 l 54 704 l 108 1032 z "},"U":{"ha":950,"x_min":88,"x_max":1003,"o":"m 838 425 q 706 88 807 190 q 424 -14 606 -14 q 188 67 268 -14 q 106 289 107 149 q 110 403 103 342 l 182 958 l 88 972 l 93 1032 l 442 1032 l 436 972 l 324 957 l 251 414 q 243 303 243 351 q 294 119 243 185 q 447 54 344 54 q 643 146 574 54 q 736 425 713 238 l 807 957 l 714 972 l 719 1032 l 1003 1032 l 996 972 l 907 958 l 838 425 z "},"Ú":{"ha":950,"x_min":88,"x_max":1003,"o":"m 708 1360 l 790 1279 q 695 1174 765 1231 q 564 1086 625 1118 l 518 1124 l 708 1360 m 838 425 q 706 88 807 190 q 424 -14 606 -14 q 188 67 268 -14 q 106 289 107 149 q 110 403 103 342 l 182 958 l 88 972 l 93 1032 l 442 1032 l 436 972 l 324 957 l 251 414 q 243 303 243 351 q 294 119 243 185 q 447 54 344 54 q 643 146 574 54 q 736 425 713 238 l 807 957 l 714 972 l 719 1032 l 1003 1032 l 996 972 l 907 958 l 838 425 z "},"Ŭ":{"ha":950,"x_min":88,"x_max":1003,"o":"m 582 1108 q 431 1169 478 1108 q 383 1317 383 1231 q 385 1349 383 1339 l 460 1349 q 488 1247 463 1288 q 585 1206 514 1206 q 692 1249 656 1206 q 738 1349 729 1292 l 810 1349 q 779 1231 810 1286 q 697 1142 749 1175 q 582 1108 644 1108 m 838 425 q 706 88 807 190 q 424 -14 606 -14 q 188 67 268 -14 q 106 289 107 149 q 110 403 103 342 l 182 958 l 88 972 l 93 1032 l 442 1032 l 436 972 l 324 957 l 251 414 q 243 303 243 351 q 294 119 243 185 q 447 54 344 54 q 643 146 574 54 q 736 425 713 238 l 807 957 l 714 972 l 719 1032 l 1003 1032 l 996 972 l 907 958 l 838 425 z "},"Û":{"ha":950,"x_min":88,"x_max":1003,"o":"m 838 425 q 706 88 807 190 q 424 -14 606 -14 q 188 67 268 -14 q 106 289 107 149 q 110 403 103 342 l 182 958 l 88 972 l 93 1032 l 442 1032 l 436 972 l 324 957 l 251 414 q 243 303 243 351 q 294 119 243 185 q 447 54 344 54 q 643 146 574 54 q 736 425 713 238 l 807 957 l 714 972 l 719 1032 l 1003 1032 l 996 972 l 907 958 l 838 425 m 347 1133 l 574 1360 l 674 1360 l 822 1132 l 772 1097 l 617 1263 l 390 1099 l 347 1133 z "},"Ü":{"ha":950,"x_min":88,"x_max":1003,"o":"m 439 1167 q 390 1188 410 1167 q 371 1242 371 1210 q 398 1308 372 1281 q 458 1335 424 1335 q 510 1315 490 1335 q 529 1265 529 1294 q 503 1194 529 1222 q 439 1167 478 1167 m 729 1167 q 682 1188 701 1167 q 663 1240 663 1208 q 688 1308 663 1281 q 749 1335 714 1335 q 800 1315 781 1335 q 819 1265 819 1296 q 794 1194 819 1222 q 729 1167 769 1167 m 838 425 q 706 88 807 190 q 424 -14 606 -14 q 188 67 268 -14 q 106 289 107 149 q 110 403 103 342 l 182 958 l 88 972 l 93 1032 l 442 1032 l 436 972 l 324 957 l 251 414 q 243 303 243 351 q 294 119 243 185 q 447 54 344 54 q 643 146 574 54 q 736 425 713 238 l 807 957 l 714 972 l 719 1032 l 1003 1032 l 996 972 l 907 958 l 838 425 z "},"Ụ":{"ha":950,"x_min":88,"x_max":1003,"o":"m 838 425 q 706 88 807 190 q 424 -14 606 -14 q 188 67 268 -14 q 106 289 107 149 q 110 403 103 342 l 182 958 l 88 972 l 93 1032 l 442 1032 l 436 972 l 324 957 l 251 414 q 243 303 243 351 q 294 119 243 185 q 447 54 344 54 q 643 146 574 54 q 736 425 713 238 l 807 957 l 714 972 l 719 1032 l 1003 1032 l 996 972 l 907 958 l 838 425 m 326 -203 q 352 -136 326 -162 q 411 -110 378 -110 q 459 -128 443 -110 q 475 -175 475 -146 q 448 -243 475 -218 q 386 -268 421 -268 q 342 -251 358 -268 q 326 -203 326 -233 z "},"Ù":{"ha":950,"x_min":88,"x_max":1003,"o":"m 588 1086 q 458 1174 528 1118 q 365 1279 389 1231 l 449 1360 l 635 1124 l 588 1086 m 838 425 q 706 88 807 190 q 424 -14 606 -14 q 188 67 268 -14 q 106 289 107 149 q 110 403 103 342 l 182 958 l 88 972 l 93 1032 l 442 1032 l 436 972 l 324 957 l 251 414 q 243 303 243 351 q 294 119 243 185 q 447 54 344 54 q 643 146 574 54 q 736 425 713 238 l 807 957 l 714 972 l 719 1032 l 1003 1032 l 996 972 l 907 958 l 838 425 z "},"Ủ":{"ha":950,"x_min":88,"x_max":1003,"o":"m 838 425 q 706 88 807 190 q 424 -14 606 -14 q 188 67 268 -14 q 106 289 107 149 q 110 403 103 342 l 182 958 l 88 972 l 93 1032 l 442 1032 l 436 972 l 324 957 l 251 414 q 243 303 243 351 q 294 119 243 185 q 447 54 344 54 q 643 146 574 54 q 736 425 713 238 l 807 957 l 714 972 l 719 1032 l 1003 1032 l 996 972 l 907 958 l 838 425 m 550 1138 q 538 1167 543 1149 q 533 1196 532 1185 q 550 1225 538 1214 q 586 1250 563 1236 q 619 1272 607 1263 q 638 1296 631 1282 l 639 1301 q 640 1315 640 1306 q 578 1365 640 1360 q 532 1361 539 1365 l 546 1454 q 569 1461 549 1458 q 606 1464 590 1464 q 717 1435 678 1464 q 757 1351 757 1406 q 754 1319 757 1331 q 725 1265 747 1286 q 664 1221 703 1243 q 646 1208 654 1214 q 631 1199 638 1203 q 607 1146 606 1181 l 550 1138 z "},"Ư":{"ha":950,"x_min":88,"x_max":1146,"o":"m 1146 1172 l 1142 1142 q 1063 1003 1129 1054 q 904 942 997 953 l 838 425 q 706 88 807 190 q 424 -14 606 -14 q 188 67 268 -14 q 106 289 107 149 q 110 403 103 342 l 182 958 l 88 972 l 93 1032 l 442 1032 l 436 972 l 324 957 l 251 414 q 243 303 243 351 q 294 119 243 185 q 447 54 344 54 q 643 146 574 54 q 736 425 713 238 l 807 957 l 714 972 l 719 1032 l 915 1032 q 987 1070 965 1042 q 1025 1149 1008 1099 q 1029 1160 1026 1153 q 1031 1172 1032 1168 l 1146 1172 z "},"Ứ":{"ha":950,"x_min":88,"x_max":1146,"o":"m 1146 1172 l 1142 1142 q 1063 1003 1129 1054 q 904 942 997 953 l 838 425 q 706 88 807 190 q 424 -14 606 -14 q 188 67 268 -14 q 106 289 107 149 q 110 403 103 342 l 182 958 l 88 972 l 93 1032 l 442 1032 l 436 972 l 324 957 l 251 414 q 243 303 243 351 q 294 119 243 185 q 447 54 344 54 q 643 146 574 54 q 736 425 713 238 l 807 957 l 714 972 l 719 1032 l 915 1032 q 987 1070 965 1042 q 1025 1149 1008 1099 q 1029 1160 1026 1153 q 1031 1172 1032 1168 l 1146 1172 m 708 1360 l 790 1279 q 695 1174 765 1231 q 564 1086 625 1118 l 518 1124 l 708 1360 z "},"Ự":{"ha":950,"x_min":88,"x_max":1146,"o":"m 1146 1172 l 1142 1142 q 1063 1003 1129 1054 q 904 942 997 953 l 838 425 q 706 88 807 190 q 424 -14 606 -14 q 188 67 268 -14 q 106 289 107 149 q 110 403 103 342 l 182 958 l 88 972 l 93 1032 l 442 1032 l 436 972 l 324 957 l 251 414 q 243 303 243 351 q 294 119 243 185 q 447 54 344 54 q 643 146 574 54 q 736 425 713 238 l 807 957 l 714 972 l 719 1032 l 915 1032 q 987 1070 965 1042 q 1025 1149 1008 1099 q 1029 1160 1026 1153 q 1031 1172 1032 1168 l 1146 1172 m 326 -203 q 352 -136 326 -162 q 411 -110 378 -110 q 459 -128 443 -110 q 475 -175 475 -146 q 448 -243 475 -218 q 386 -268 421 -268 q 342 -251 358 -268 q 326 -203 326 -233 z "},"Ừ":{"ha":950,"x_min":88,"x_max":1146,"o":"m 1146 1172 l 1142 1142 q 1063 1003 1129 1054 q 904 942 997 953 l 838 425 q 706 88 807 190 q 424 -14 606 -14 q 188 67 268 -14 q 106 289 107 149 q 110 403 103 342 l 182 958 l 88 972 l 93 1032 l 442 1032 l 436 972 l 324 957 l 251 414 q 243 303 243 351 q 294 119 243 185 q 447 54 344 54 q 643 146 574 54 q 736 425 713 238 l 807 957 l 714 972 l 719 1032 l 915 1032 q 987 1070 965 1042 q 1025 1149 1008 1099 q 1029 1160 1026 1153 q 1031 1172 1032 1168 l 1146 1172 m 588 1086 q 458 1174 528 1118 q 365 1279 389 1231 l 449 1360 l 635 1124 l 588 1086 z "},"Ử":{"ha":950,"x_min":88,"x_max":1146,"o":"m 1146 1172 l 1142 1142 q 1063 1003 1129 1054 q 904 942 997 953 l 838 425 q 706 88 807 190 q 424 -14 606 -14 q 188 67 268 -14 q 106 289 107 149 q 110 403 103 342 l 182 958 l 88 972 l 93 1032 l 442 1032 l 436 972 l 324 957 l 251 414 q 243 303 243 351 q 294 119 243 185 q 447 54 344 54 q 643 146 574 54 q 736 425 713 238 l 807 957 l 714 972 l 719 1032 l 915 1032 q 987 1070 965 1042 q 1025 1149 1008 1099 q 1029 1160 1026 1153 q 1031 1172 1032 1168 l 1146 1172 m 550 1138 q 538 1167 543 1149 q 533 1196 532 1185 q 550 1225 538 1214 q 586 1250 563 1236 q 619 1272 607 1263 q 638 1296 631 1282 l 639 1301 q 640 1315 640 1306 q 578 1365 640 1360 q 532 1361 539 1365 l 546 1454 q 569 1461 549 1458 q 606 1464 590 1464 q 717 1435 678 1464 q 757 1351 757 1406 q 754 1319 757 1331 q 725 1265 747 1286 q 664 1221 703 1243 q 646 1208 654 1214 q 631 1199 638 1203 q 607 1146 606 1181 l 550 1138 z "},"Ữ":{"ha":950,"x_min":88,"x_max":1146,"o":"m 1146 1172 l 1142 1142 q 1063 1003 1129 1054 q 904 942 997 953 l 838 425 q 706 88 807 190 q 424 -14 606 -14 q 188 67 268 -14 q 106 289 107 149 q 110 403 103 342 l 182 958 l 88 972 l 93 1032 l 442 1032 l 436 972 l 324 957 l 251 414 q 243 303 243 351 q 294 119 243 185 q 447 54 344 54 q 643 146 574 54 q 736 425 713 238 l 807 957 l 714 972 l 719 1032 l 915 1032 q 987 1070 965 1042 q 1025 1149 1008 1099 q 1029 1160 1026 1153 q 1031 1172 1032 1168 l 1146 1172 m 344 1221 q 404 1301 364 1268 q 501 1333 444 1333 q 558 1319 535 1333 q 611 1279 582 1306 q 656 1244 638 1256 q 696 1233 674 1233 q 753 1251 731 1233 q 800 1301 775 1269 l 839 1246 q 781 1165 821 1200 q 688 1129 740 1129 q 627 1143 651 1129 q 572 1185 603 1157 q 529 1219 547 1208 q 486 1231 511 1231 q 428 1213 453 1231 q 381 1165 403 1196 l 344 1221 z "},"Ű":{"ha":950,"x_min":88,"x_max":1003,"o":"m 838 425 q 706 88 807 190 q 424 -14 606 -14 q 188 67 268 -14 q 106 289 107 149 q 110 403 103 342 l 182 958 l 88 972 l 93 1032 l 442 1032 l 436 972 l 324 957 l 251 414 q 243 303 243 351 q 294 119 243 185 q 447 54 344 54 q 643 146 574 54 q 736 425 713 238 l 807 957 l 714 972 l 719 1032 l 1003 1032 l 996 972 l 907 958 l 838 425 m 875 1357 l 956 1286 q 857 1172 919 1229 q 736 1086 794 1115 l 682 1125 l 875 1357 m 572 1356 l 653 1286 q 561 1176 628 1233 q 431 1085 494 1119 l 381 1124 l 572 1356 z "},"Ū":{"ha":950,"x_min":88,"x_max":1003,"o":"m 408 1274 l 767 1274 l 754 1176 l 397 1176 l 408 1274 m 838 425 q 706 88 807 190 q 424 -14 606 -14 q 188 67 268 -14 q 106 289 107 149 q 110 403 103 342 l 182 958 l 88 972 l 93 1032 l 442 1032 l 436 972 l 324 957 l 251 414 q 243 303 243 351 q 294 119 243 185 q 447 54 344 54 q 643 146 574 54 q 736 425 713 238 l 807 957 l 714 972 l 719 1032 l 1003 1032 l 996 972 l 907 958 l 838 425 z "},"Ų":{"ha":950,"x_min":88,"x_max":1003,"o":"m 838 425 q 738 127 811 229 q 536 -1 665 25 q 435 -149 435 -100 q 446 -192 433 -178 q 479 -207 458 -207 q 586 -161 531 -207 l 604 -219 q 417 -293 525 -293 q 337 -267 364 -293 q 310 -200 310 -240 q 317 -160 310 -182 q 335 -121 324 -137 q 385 -62 357 -87 q 453 -12 414 -36 l 424 -14 q 188 67 268 -14 q 106 289 107 149 q 110 403 103 342 l 182 958 l 88 972 l 93 1032 l 442 1032 l 436 972 l 324 957 l 251 414 q 243 303 243 351 q 294 119 243 185 q 447 54 344 54 q 643 146 574 54 q 736 425 713 238 l 807 957 l 714 972 l 719 1032 l 1003 1032 l 996 972 l 907 958 l 838 425 z "},"Ů":{"ha":950,"x_min":88,"x_max":1003,"o":"m 838 425 q 706 88 807 190 q 424 -14 606 -14 q 188 67 268 -14 q 106 289 107 149 q 110 403 103 342 l 182 958 l 88 972 l 93 1032 l 442 1032 l 436 972 l 324 957 l 251 414 q 243 303 243 351 q 294 119 243 185 q 447 54 344 54 q 643 146 574 54 q 736 425 713 238 l 807 957 l 714 972 l 719 1032 l 1003 1032 l 996 972 l 907 958 l 838 425 m 576 1039 q 433 1078 485 1039 q 382 1186 382 1117 q 418 1283 382 1244 q 510 1339 454 1321 q 621 1357 565 1357 q 758 1322 707 1357 q 810 1225 810 1288 q 776 1122 810 1164 q 688 1059 742 1079 q 576 1039 635 1039 m 583 1096 q 683 1124 642 1096 q 724 1215 724 1153 q 692 1277 724 1254 q 611 1300 660 1300 q 510 1274 554 1300 q 467 1194 467 1247 q 499 1124 467 1151 q 583 1096 532 1096 z "},"Ũ":{"ha":950,"x_min":88,"x_max":1003,"o":"m 344 1221 q 404 1301 364 1268 q 501 1333 444 1333 q 558 1319 535 1333 q 611 1279 582 1306 q 656 1244 638 1256 q 696 1233 674 1233 q 753 1251 731 1233 q 800 1301 775 1269 l 839 1246 q 781 1165 821 1200 q 688 1129 740 1129 q 627 1143 651 1129 q 572 1185 603 1157 q 529 1219 547 1208 q 486 1231 511 1231 q 428 1213 453 1231 q 381 1165 403 1196 l 344 1221 m 838 425 q 706 88 807 190 q 424 -14 606 -14 q 188 67 268 -14 q 106 289 107 149 q 110 403 103 342 l 182 958 l 88 972 l 93 1032 l 442 1032 l 436 972 l 324 957 l 251 414 q 243 303 243 351 q 294 119 243 185 q 447 54 344 54 q 643 146 574 54 q 736 425 713 238 l 807 957 l 714 972 l 719 1032 l 1003 1032 l 996 972 l 907 958 l 838 425 z "},"V":{"ha":826,"x_min":26,"x_max":939,"o":"m 32 1032 l 393 1032 l 386 972 l 267 957 l 360 315 l 382 121 l 458 315 l 744 957 l 638 972 l 643 1032 l 939 1032 l 931 972 l 846 958 l 403 -7 l 282 -12 l 121 957 l 26 972 l 32 1032 z "},"W":{"ha":1246,"x_min":13,"x_max":1399,"o":"m 19 1032 l 368 1032 l 364 972 l 247 958 l 329 308 l 353 122 l 410 279 l 640 861 l 629 958 l 532 972 l 538 1032 l 894 1032 l 885 972 l 769 958 l 833 308 l 846 122 l 911 290 l 1192 957 l 1075 972 l 1082 1032 l 1399 1032 l 1392 972 l 1293 957 l 867 -7 l 733 -7 l 663 696 l 381 -7 l 249 -7 l 110 957 l 13 972 l 19 1032 z "},"Ẃ":{"ha":1246,"x_min":13,"x_max":1399,"o":"m 857 1360 l 939 1279 q 844 1174 914 1231 q 713 1086 774 1118 l 667 1124 l 857 1360 m 19 1032 l 368 1032 l 364 972 l 247 958 l 329 308 l 353 122 l 410 279 l 640 861 l 629 958 l 532 972 l 538 1032 l 894 1032 l 885 972 l 769 958 l 833 308 l 846 122 l 911 290 l 1192 957 l 1075 972 l 1082 1032 l 1399 1032 l 1392 972 l 1293 957 l 867 -7 l 733 -7 l 663 696 l 381 -7 l 249 -7 l 110 957 l 13 972 l 19 1032 z "},"Ŵ":{"ha":1246,"x_min":13,"x_max":1399,"o":"m 19 1032 l 368 1032 l 364 972 l 247 958 l 329 308 l 353 122 l 410 279 l 640 861 l 629 958 l 532 972 l 538 1032 l 894 1032 l 885 972 l 769 958 l 833 308 l 846 122 l 911 290 l 1192 957 l 1075 972 l 1082 1032 l 1399 1032 l 1392 972 l 1293 957 l 867 -7 l 733 -7 l 663 696 l 381 -7 l 249 -7 l 110 957 l 13 972 l 19 1032 m 494 1133 l 721 1360 l 821 1360 l 969 1132 l 919 1097 l 764 1263 l 538 1099 l 494 1133 z "},"Ẅ":{"ha":1246,"x_min":13,"x_max":1399,"o":"m 588 1167 q 539 1188 558 1167 q 519 1242 519 1210 q 547 1308 521 1281 q 607 1335 572 1335 q 658 1315 639 1335 q 678 1265 678 1294 q 652 1194 678 1222 q 588 1167 626 1167 m 878 1167 q 831 1188 850 1167 q 811 1240 811 1208 q 837 1308 811 1281 q 897 1335 863 1335 q 949 1315 929 1335 q 968 1265 968 1296 q 943 1194 968 1222 q 878 1167 918 1167 m 19 1032 l 368 1032 l 364 972 l 247 958 l 329 308 l 353 122 l 410 279 l 640 861 l 629 958 l 532 972 l 538 1032 l 894 1032 l 885 972 l 769 958 l 833 308 l 846 122 l 911 290 l 1192 957 l 1075 972 l 1082 1032 l 1399 1032 l 1392 972 l 1293 957 l 867 -7 l 733 -7 l 663 696 l 381 -7 l 249 -7 l 110 957 l 13 972 l 19 1032 z "},"Ẁ":{"ha":1246,"x_min":13,"x_max":1399,"o":"m 735 1086 q 606 1174 675 1118 q 513 1279 536 1231 l 596 1360 l 782 1124 l 735 1086 m 19 1032 l 368 1032 l 364 972 l 247 958 l 329 308 l 353 122 l 410 279 l 640 861 l 629 958 l 532 972 l 538 1032 l 894 1032 l 885 972 l 769 958 l 833 308 l 846 122 l 911 290 l 1192 957 l 1075 972 l 1082 1032 l 1399 1032 l 1392 972 l 1293 957 l 867 -7 l 733 -7 l 663 696 l 381 -7 l 249 -7 l 110 957 l 13 972 l 19 1032 z "},"X":{"ha":893,"x_min":-46,"x_max":956,"o":"m 93 1032 l 463 1032 l 457 972 l 344 958 l 490 604 l 735 957 l 625 972 l 631 1032 l 956 1032 l 950 972 l 853 958 l 526 529 l 754 71 l 860 54 l 856 0 l 471 0 l 475 54 l 590 71 l 428 439 l 171 71 l 288 54 l 282 0 l -46 0 l -39 54 l 50 71 l 392 517 l 185 957 l 88 972 l 93 1032 z "},"Y":{"ha":819,"x_min":33,"x_max":936,"o":"m 39 1032 l 404 1032 l 396 972 l 272 957 l 424 572 l 456 478 l 506 568 l 742 957 l 635 972 l 642 1032 l 936 1032 l 929 972 l 851 958 l 494 400 l 451 71 l 606 54 l 600 0 l 153 0 l 158 54 l 317 71 l 358 400 l 115 957 l 33 972 l 39 1032 z "},"Ý":{"ha":819,"x_min":33,"x_max":936,"o":"m 39 1032 l 404 1032 l 396 972 l 272 957 l 424 572 l 456 478 l 506 568 l 742 957 l 635 972 l 642 1032 l 936 1032 l 929 972 l 851 958 l 494 400 l 451 71 l 606 54 l 600 0 l 153 0 l 158 54 l 317 71 l 358 400 l 115 957 l 33 972 l 39 1032 m 656 1360 l 738 1279 q 642 1174 713 1231 q 511 1086 572 1118 l 465 1124 l 656 1360 z "},"Ŷ":{"ha":819,"x_min":33,"x_max":936,"o":"m 39 1032 l 404 1032 l 396 972 l 272 957 l 424 572 l 456 478 l 506 568 l 742 957 l 635 972 l 642 1032 l 936 1032 l 929 972 l 851 958 l 494 400 l 451 71 l 606 54 l 600 0 l 153 0 l 158 54 l 317 71 l 358 400 l 115 957 l 33 972 l 39 1032 m 294 1133 l 521 1360 l 621 1360 l 769 1132 l 719 1097 l 564 1263 l 338 1099 l 294 1133 z "},"Ÿ":{"ha":819,"x_min":33,"x_max":936,"o":"m 39 1032 l 404 1032 l 396 972 l 272 957 l 424 572 l 456 478 l 506 568 l 742 957 l 635 972 l 642 1032 l 936 1032 l 929 972 l 851 958 l 494 400 l 451 71 l 606 54 l 600 0 l 153 0 l 158 54 l 317 71 l 358 400 l 115 957 l 33 972 l 39 1032 m 386 1167 q 338 1188 357 1167 q 318 1242 318 1210 q 345 1308 319 1281 q 406 1335 371 1335 q 457 1315 438 1335 q 476 1265 476 1294 q 451 1194 476 1222 q 386 1167 425 1167 m 676 1167 q 629 1188 649 1167 q 610 1240 610 1208 q 635 1308 610 1281 q 696 1335 661 1335 q 747 1315 728 1335 q 767 1265 767 1296 q 742 1194 767 1222 q 676 1167 717 1167 z "},"Ẏ":{"ha":819,"x_min":33,"x_max":936,"o":"m 39 1032 l 404 1032 l 396 972 l 272 957 l 424 572 l 456 478 l 506 568 l 742 957 l 635 972 l 642 1032 l 936 1032 l 929 972 l 851 958 l 494 400 l 451 71 l 606 54 l 600 0 l 153 0 l 158 54 l 317 71 l 358 400 l 115 957 l 33 972 l 39 1032 m 528 1138 q 476 1160 499 1138 q 454 1214 454 1183 q 482 1284 454 1256 q 547 1313 510 1313 q 604 1292 582 1313 q 626 1240 626 1271 q 599 1167 626 1197 q 528 1138 571 1138 z "},"Ỵ":{"ha":819,"x_min":33,"x_max":936,"o":"m 39 1032 l 404 1032 l 396 972 l 272 957 l 424 572 l 456 478 l 506 568 l 742 957 l 635 972 l 642 1032 l 936 1032 l 929 972 l 851 958 l 494 400 l 451 71 l 606 54 l 600 0 l 153 0 l 158 54 l 317 71 l 358 400 l 115 957 l 33 972 l 39 1032 m 261 -203 q 287 -136 261 -162 q 346 -110 313 -110 q 394 -128 378 -110 q 410 -175 410 -146 q 383 -243 410 -218 q 321 -268 356 -268 q 277 -251 293 -268 q 261 -203 261 -233 z "},"Ỳ":{"ha":819,"x_min":33,"x_max":936,"o":"m 39 1032 l 404 1032 l 396 972 l 272 957 l 424 572 l 456 478 l 506 568 l 742 957 l 635 972 l 642 1032 l 936 1032 l 929 972 l 851 958 l 494 400 l 451 71 l 606 54 l 600 0 l 153 0 l 158 54 l 317 71 l 358 400 l 115 957 l 33 972 l 39 1032 m 535 1086 q 406 1174 475 1118 q 313 1279 336 1231 l 396 1360 l 582 1124 l 535 1086 z "},"Ỷ":{"ha":819,"x_min":33,"x_max":936,"o":"m 39 1032 l 404 1032 l 396 972 l 272 957 l 424 572 l 456 478 l 506 568 l 742 957 l 635 972 l 642 1032 l 936 1032 l 929 972 l 851 958 l 494 400 l 451 71 l 606 54 l 600 0 l 153 0 l 158 54 l 317 71 l 358 400 l 115 957 l 33 972 l 39 1032 m 497 1138 q 485 1167 490 1149 q 481 1196 479 1185 q 497 1225 485 1214 q 533 1250 510 1236 q 566 1272 554 1263 q 585 1296 578 1282 l 586 1301 q 588 1315 588 1306 q 525 1365 588 1360 q 479 1361 486 1365 l 493 1454 q 517 1461 496 1458 q 553 1464 538 1464 q 665 1435 625 1464 q 704 1351 704 1406 q 701 1319 704 1331 q 672 1265 694 1286 q 611 1221 650 1243 q 593 1208 601 1214 q 578 1199 585 1203 q 554 1146 553 1181 l 497 1138 z "},"Ỹ":{"ha":819,"x_min":33,"x_max":936,"o":"m 39 1032 l 404 1032 l 396 972 l 272 957 l 424 572 l 456 478 l 506 568 l 742 957 l 635 972 l 642 1032 l 936 1032 l 929 972 l 851 958 l 494 400 l 451 71 l 606 54 l 600 0 l 153 0 l 158 54 l 317 71 l 358 400 l 115 957 l 33 972 l 39 1032 m 292 1221 q 351 1301 311 1268 q 449 1333 392 1333 q 506 1319 482 1333 q 558 1279 529 1306 q 603 1244 585 1256 q 643 1233 621 1233 q 700 1251 678 1233 q 747 1301 722 1269 l 786 1246 q 728 1165 768 1200 q 635 1129 688 1129 q 574 1143 599 1129 q 519 1185 550 1157 q 476 1219 494 1208 q 433 1231 458 1231 q 375 1213 400 1231 q 328 1165 350 1196 l 292 1221 z "},"Z":{"ha":817,"x_min":-7,"x_max":835,"o":"m 164 1032 l 819 1032 l 835 982 l 250 179 l 157 68 l 607 82 l 700 276 l 778 254 l 714 0 l 10 0 l -7 53 l 568 840 l 679 963 l 269 957 l 201 776 l 125 789 l 164 1032 z "},"Ź":{"ha":817,"x_min":-7,"x_max":835,"o":"m 164 1032 l 819 1032 l 835 982 l 250 179 l 157 68 l 607 82 l 700 276 l 778 254 l 714 0 l 10 0 l -7 53 l 568 840 l 679 963 l 269 957 l 201 776 l 125 789 l 164 1032 m 633 1360 l 715 1279 q 620 1174 690 1231 q 489 1086 550 1118 l 443 1124 l 633 1360 z "},"Ž":{"ha":817,"x_min":-7,"x_max":835,"o":"m 301 1325 l 353 1360 l 506 1196 l 724 1360 l 768 1326 l 549 1096 l 449 1096 l 301 1325 m 164 1032 l 819 1032 l 835 982 l 250 179 l 157 68 l 607 82 l 700 276 l 778 254 l 714 0 l 10 0 l -7 53 l 568 840 l 679 963 l 269 957 l 201 776 l 125 789 l 164 1032 z "},"Ż":{"ha":817,"x_min":-7,"x_max":835,"o":"m 504 1138 q 453 1160 475 1138 q 431 1214 431 1183 q 458 1284 431 1256 q 524 1313 486 1313 q 581 1292 558 1313 q 603 1240 603 1271 q 575 1167 603 1197 q 504 1138 547 1138 m 164 1032 l 819 1032 l 835 982 l 250 179 l 157 68 l 607 82 l 700 276 l 778 254 l 714 0 l 10 0 l -7 53 l 568 840 l 679 963 l 269 957 l 201 776 l 125 789 l 164 1032 z "},"a":{"ha":803,"x_min":54,"x_max":740,"o":"m 633 126 q 632 108 632 119 q 640 80 632 89 q 660 71 649 71 q 686 79 672 71 q 721 107 700 88 l 740 72 q 684 17 725 47 q 592 -14 643 -14 q 525 8 549 -14 q 503 76 501 31 l 510 121 q 405 26 465 65 q 276 -14 344 -14 q 109 66 164 -14 q 54 278 54 146 q 107 513 54 394 q 260 710 160 632 q 496 789 361 789 q 567 781 528 789 q 639 764 607 774 l 722 788 l 633 126 m 575 690 q 481 715 535 715 q 326 650 390 715 q 228 485 261 585 q 196 289 196 386 q 226 131 196 188 q 315 75 256 75 q 422 115 368 75 q 511 207 475 156 l 575 690 z "},"á":{"ha":803,"x_min":54,"x_max":740,"o":"m 633 126 q 632 108 632 119 q 640 80 632 89 q 660 71 649 71 q 686 79 672 71 q 721 107 700 88 l 740 72 q 684 17 725 47 q 592 -14 643 -14 q 525 8 549 -14 q 503 76 501 31 l 510 121 q 405 26 465 65 q 276 -14 344 -14 q 109 66 164 -14 q 54 278 54 146 q 107 513 54 394 q 260 710 160 632 q 496 789 361 789 q 567 781 528 789 q 639 764 607 774 l 722 788 l 633 126 m 575 690 q 481 715 535 715 q 326 650 390 715 q 228 485 261 585 q 196 289 196 386 q 226 131 196 188 q 315 75 256 75 q 422 115 368 75 q 511 207 475 156 l 575 690 m 644 1175 l 733 1088 q 672 1013 721 1064 q 566 915 624 963 q 469 847 508 867 l 426 886 l 644 1175 z "},"ă":{"ha":803,"x_min":54,"x_max":740,"o":"m 633 126 q 632 108 632 119 q 640 80 632 89 q 660 71 649 71 q 686 79 672 71 q 721 107 700 88 l 740 72 q 684 17 725 47 q 592 -14 643 -14 q 525 8 549 -14 q 503 76 501 31 l 510 121 q 405 26 465 65 q 276 -14 344 -14 q 109 66 164 -14 q 54 278 54 146 q 107 513 54 394 q 260 710 160 632 q 496 789 361 789 q 567 781 528 789 q 639 764 607 774 l 722 788 l 633 126 m 575 690 q 481 715 535 715 q 326 650 390 715 q 228 485 261 585 q 196 289 196 386 q 226 131 196 188 q 315 75 256 75 q 422 115 368 75 q 511 207 475 156 l 575 690 m 501 883 q 391 915 436 883 q 324 996 346 946 q 301 1101 301 1046 l 301 1124 l 376 1124 l 378 1100 q 414 1017 383 1053 q 503 982 444 982 q 609 1027 571 982 q 656 1124 647 1072 l 728 1124 q 726 1103 728 1108 q 692 999 722 1050 q 613 916 663 949 q 501 883 563 883 z "},"ắ":{"ha":803,"x_min":54,"x_max":740,"o":"m 650 1390 l 724 1318 q 630 1215 706 1286 q 506 1119 554 1143 l 471 1151 l 650 1390 m 501 883 q 391 915 436 883 q 324 996 346 946 q 301 1101 301 1046 l 301 1124 l 376 1124 l 378 1100 q 414 1017 383 1053 q 503 982 444 982 q 609 1027 571 982 q 656 1124 647 1072 l 728 1124 q 726 1103 728 1108 q 692 999 722 1050 q 613 916 663 949 q 501 883 563 883 m 633 126 q 632 108 632 119 q 640 80 632 89 q 660 71 649 71 q 686 79 672 71 q 721 107 700 88 l 740 72 q 684 17 725 47 q 592 -14 643 -14 q 525 8 549 -14 q 503 76 501 31 l 510 121 q 405 26 465 65 q 276 -14 344 -14 q 109 66 164 -14 q 54 278 54 146 q 107 513 54 394 q 260 710 160 632 q 496 789 361 789 q 567 781 528 789 q 639 764 607 774 l 722 788 l 633 126 m 575 690 q 481 715 535 715 q 326 650 390 715 q 228 485 261 585 q 196 289 196 386 q 226 131 196 188 q 315 75 256 75 q 422 115 368 75 q 511 207 475 156 l 575 690 z "},"ặ":{"ha":803,"x_min":54,"x_max":740,"o":"m 633 126 q 632 108 632 119 q 640 80 632 89 q 660 71 649 71 q 686 79 672 71 q 721 107 700 88 l 740 72 q 684 17 725 47 q 592 -14 643 -14 q 525 8 549 -14 q 503 76 501 31 l 510 121 q 405 26 465 65 q 276 -14 344 -14 q 109 66 164 -14 q 54 278 54 146 q 107 513 54 394 q 260 710 160 632 q 496 789 361 789 q 567 781 528 789 q 639 764 607 774 l 722 788 l 633 126 m 575 690 q 481 715 535 715 q 326 650 390 715 q 228 485 261 585 q 196 289 196 386 q 226 131 196 188 q 315 75 256 75 q 422 115 368 75 q 511 207 475 156 l 575 690 m 253 -203 q 278 -136 253 -162 q 338 -110 304 -110 q 385 -128 369 -110 q 401 -175 401 -146 q 374 -243 401 -218 q 313 -268 347 -268 q 269 -251 285 -268 q 253 -203 253 -233 m 501 883 q 391 915 436 883 q 324 996 346 946 q 301 1101 301 1046 l 301 1124 l 376 1124 l 378 1100 q 414 1017 383 1053 q 503 982 444 982 q 609 1027 571 982 q 656 1124 647 1072 l 728 1124 q 726 1103 728 1108 q 692 999 722 1050 q 613 916 663 949 q 501 883 563 883 z "},"ằ":{"ha":803,"x_min":54,"x_max":740,"o":"m 533 1108 q 419 1198 492 1132 q 325 1303 347 1264 l 403 1378 l 571 1139 l 533 1108 m 501 883 q 391 915 436 883 q 324 996 346 946 q 301 1101 301 1046 l 301 1124 l 376 1124 l 378 1100 q 414 1017 383 1053 q 503 982 444 982 q 609 1027 571 982 q 656 1124 647 1072 l 728 1124 q 726 1103 728 1108 q 692 999 722 1050 q 613 916 663 949 q 501 883 563 883 m 633 126 q 632 108 632 119 q 640 80 632 89 q 660 71 649 71 q 686 79 672 71 q 721 107 700 88 l 740 72 q 684 17 725 47 q 592 -14 643 -14 q 525 8 549 -14 q 503 76 501 31 l 510 121 q 405 26 465 65 q 276 -14 344 -14 q 109 66 164 -14 q 54 278 54 146 q 107 513 54 394 q 260 710 160 632 q 496 789 361 789 q 567 781 528 789 q 639 764 607 774 l 722 788 l 633 126 m 575 690 q 481 715 535 715 q 326 650 390 715 q 228 485 261 585 q 196 289 196 386 q 226 131 196 188 q 315 75 256 75 q 422 115 368 75 q 511 207 475 156 l 575 690 z "},"ẳ":{"ha":803,"x_min":54,"x_max":740,"o":"m 488 1115 q 476 1142 482 1125 q 472 1171 471 1160 q 488 1197 476 1188 q 522 1222 499 1207 q 554 1243 543 1235 q 571 1265 565 1251 l 572 1271 q 574 1285 574 1275 q 514 1332 574 1326 q 471 1328 478 1332 l 483 1417 q 506 1422 486 1419 q 540 1425 526 1425 q 647 1398 608 1425 q 685 1319 685 1371 q 682 1288 685 1299 q 656 1235 676 1256 q 597 1193 635 1215 l 565 1172 q 542 1122 540 1156 l 488 1115 m 501 883 q 391 915 436 883 q 324 996 346 946 q 301 1101 301 1046 l 301 1124 l 376 1124 l 378 1100 q 414 1017 383 1053 q 503 982 444 982 q 609 1027 571 982 q 656 1124 647 1072 l 728 1124 q 726 1103 728 1108 q 692 999 722 1050 q 613 916 663 949 q 501 883 563 883 m 633 126 q 632 108 632 119 q 640 80 632 89 q 660 71 649 71 q 686 79 672 71 q 721 107 700 88 l 740 72 q 684 17 725 47 q 592 -14 643 -14 q 525 8 549 -14 q 503 76 501 31 l 510 121 q 405 26 465 65 q 276 -14 344 -14 q 109 66 164 -14 q 54 278 54 146 q 107 513 54 394 q 260 710 160 632 q 496 789 361 789 q 567 781 528 789 q 639 764 607 774 l 722 788 l 633 126 m 575 690 q 481 715 535 715 q 326 650 390 715 q 228 485 261 585 q 196 289 196 386 q 226 131 196 188 q 315 75 256 75 q 422 115 368 75 q 511 207 475 156 l 575 690 z "},"ẵ":{"ha":803,"x_min":54,"x_max":788,"o":"m 633 126 q 632 108 632 119 q 640 80 632 89 q 660 71 649 71 q 686 79 672 71 q 721 107 700 88 l 740 72 q 684 17 725 47 q 592 -14 643 -14 q 525 8 549 -14 q 503 76 501 31 l 510 121 q 405 26 465 65 q 276 -14 344 -14 q 109 66 164 -14 q 54 278 54 146 q 107 513 54 394 q 260 710 160 632 q 496 789 361 789 q 567 781 528 789 q 639 764 607 774 l 722 788 l 633 126 m 575 690 q 481 715 535 715 q 326 650 390 715 q 228 485 261 585 q 196 289 196 386 q 226 131 196 188 q 315 75 256 75 q 422 115 368 75 q 511 207 475 156 l 575 690 m 500 883 q 390 915 435 883 q 322 996 344 946 q 300 1101 300 1046 l 300 1124 l 375 1124 l 376 1100 q 413 1017 382 1053 q 501 982 443 982 q 608 1027 569 982 q 654 1124 646 1072 l 726 1124 q 725 1103 726 1108 q 691 999 721 1050 q 611 916 661 949 q 500 883 561 883 m 296 1269 q 366 1349 319 1315 q 461 1383 413 1383 q 517 1369 494 1383 q 568 1328 539 1356 q 605 1294 589 1306 q 642 1283 621 1283 q 700 1305 676 1283 q 749 1361 724 1326 l 788 1300 q 724 1215 771 1251 q 625 1179 676 1179 q 563 1193 585 1179 q 513 1236 540 1207 q 476 1268 493 1257 q 436 1281 460 1279 q 328 1214 392 1281 l 296 1269 z "},"ǎ":{"ha":803,"x_min":54,"x_max":764,"o":"m 633 126 q 632 108 632 119 q 640 80 632 89 q 660 71 649 71 q 686 79 672 71 q 721 107 700 88 l 740 72 q 684 17 725 47 q 592 -14 643 -14 q 525 8 549 -14 q 503 76 501 31 l 510 121 q 405 26 465 65 q 276 -14 344 -14 q 109 66 164 -14 q 54 278 54 146 q 107 513 54 394 q 260 710 160 632 q 496 789 361 789 q 567 781 528 789 q 639 764 607 774 l 722 788 l 633 126 m 575 690 q 481 715 535 715 q 326 650 390 715 q 228 485 261 585 q 196 289 196 386 q 226 131 196 188 q 315 75 256 75 q 422 115 368 75 q 511 207 475 156 l 575 690 m 286 1089 l 340 1122 l 499 949 l 717 1122 l 764 1089 l 538 851 l 439 851 l 286 1089 z "},"â":{"ha":803,"x_min":54,"x_max":740,"o":"m 633 126 q 632 108 632 119 q 640 80 632 89 q 660 71 649 71 q 686 79 672 71 q 721 107 700 88 l 740 72 q 684 17 725 47 q 592 -14 643 -14 q 525 8 549 -14 q 503 76 501 31 l 510 121 q 405 26 465 65 q 276 -14 344 -14 q 109 66 164 -14 q 54 278 54 146 q 107 513 54 394 q 260 710 160 632 q 496 789 361 789 q 567 781 528 789 q 639 764 607 774 l 722 788 l 633 126 m 575 690 q 481 715 535 715 q 326 650 390 715 q 228 485 261 585 q 196 289 196 386 q 226 131 196 188 q 315 75 256 75 q 422 115 368 75 q 511 207 475 156 l 575 690 m 250 872 l 489 1122 l 589 1122 l 728 871 l 676 838 l 524 1021 l 293 839 l 250 872 z "},"ấ":{"ha":803,"x_min":54,"x_max":958,"o":"m 885 1290 l 958 1218 q 865 1115 940 1186 q 740 1019 789 1043 l 706 1051 l 885 1290 m 250 872 l 489 1122 l 589 1122 l 728 871 l 676 838 l 524 1021 l 293 839 l 250 872 m 633 126 q 632 108 632 119 q 640 80 632 89 q 660 71 649 71 q 686 79 672 71 q 721 107 700 88 l 740 72 q 684 17 725 47 q 592 -14 643 -14 q 525 8 549 -14 q 503 76 501 31 l 510 121 q 405 26 465 65 q 276 -14 344 -14 q 109 66 164 -14 q 54 278 54 146 q 107 513 54 394 q 260 710 160 632 q 496 789 361 789 q 567 781 528 789 q 639 764 607 774 l 722 788 l 633 126 m 575 690 q 481 715 535 715 q 326 650 390 715 q 228 485 261 585 q 196 289 196 386 q 226 131 196 188 q 315 75 256 75 q 422 115 368 75 q 511 207 475 156 l 575 690 z "},"ậ":{"ha":803,"x_min":54,"x_max":740,"o":"m 633 126 q 632 108 632 119 q 640 80 632 89 q 660 71 649 71 q 686 79 672 71 q 721 107 700 88 l 740 72 q 684 17 725 47 q 592 -14 643 -14 q 525 8 549 -14 q 503 76 501 31 l 510 121 q 405 26 465 65 q 276 -14 344 -14 q 109 66 164 -14 q 54 278 54 146 q 107 513 54 394 q 260 710 160 632 q 496 789 361 789 q 567 781 528 789 q 639 764 607 774 l 722 788 l 633 126 m 575 690 q 481 715 535 715 q 326 650 390 715 q 228 485 261 585 q 196 289 196 386 q 226 131 196 188 q 315 75 256 75 q 422 115 368 75 q 511 207 475 156 l 575 690 m 253 -203 q 278 -136 253 -162 q 338 -110 304 -110 q 385 -128 369 -110 q 401 -175 401 -146 q 374 -243 401 -218 q 313 -268 347 -268 q 269 -251 285 -268 q 253 -203 253 -233 m 250 872 l 489 1122 l 589 1122 l 728 871 l 676 838 l 524 1021 l 293 839 l 250 872 z "},"ầ":{"ha":803,"x_min":54,"x_max":788,"o":"m 750 1081 q 636 1170 708 1104 q 542 1275 564 1236 l 619 1350 l 788 1111 l 750 1081 m 250 872 l 489 1122 l 589 1122 l 728 871 l 676 838 l 524 1021 l 293 839 l 250 872 m 633 126 q 632 108 632 119 q 640 80 632 89 q 660 71 649 71 q 686 79 672 71 q 721 107 700 88 l 740 72 q 684 17 725 47 q 592 -14 643 -14 q 525 8 549 -14 q 503 76 501 31 l 510 121 q 405 26 465 65 q 276 -14 344 -14 q 109 66 164 -14 q 54 278 54 146 q 107 513 54 394 q 260 710 160 632 q 496 789 361 789 q 567 781 528 789 q 639 764 607 774 l 722 788 l 633 126 m 575 690 q 481 715 535 715 q 326 650 390 715 q 228 485 261 585 q 196 289 196 386 q 226 131 196 188 q 315 75 256 75 q 422 115 368 75 q 511 207 475 156 l 575 690 z "},"ẩ":{"ha":803,"x_min":54,"x_max":914,"o":"m 731 1007 q 720 1033 725 1017 q 717 1058 715 1050 q 731 1084 719 1074 q 764 1107 743 1094 q 793 1127 783 1119 q 808 1147 803 1135 l 810 1153 q 811 1164 811 1157 q 798 1194 811 1182 q 756 1210 785 1207 q 715 1206 721 1210 l 728 1288 q 748 1294 729 1292 q 781 1296 767 1296 q 879 1271 844 1296 q 914 1197 914 1246 q 911 1168 914 1190 q 887 1121 906 1139 q 833 1082 868 1103 q 803 1061 811 1068 q 781 1015 781 1046 l 731 1007 m 250 872 l 489 1122 l 589 1122 l 728 871 l 676 838 l 524 1021 l 293 839 l 250 872 m 633 126 q 632 108 632 119 q 640 80 632 89 q 660 71 649 71 q 686 79 672 71 q 721 107 700 88 l 740 72 q 684 17 725 47 q 592 -14 643 -14 q 525 8 549 -14 q 503 76 501 31 l 510 121 q 405 26 465 65 q 276 -14 344 -14 q 109 66 164 -14 q 54 278 54 146 q 107 513 54 394 q 260 710 160 632 q 496 789 361 789 q 567 781 528 789 q 639 764 607 774 l 722 788 l 633 126 m 575 690 q 481 715 535 715 q 326 650 390 715 q 228 485 261 585 q 196 289 196 386 q 226 131 196 188 q 315 75 256 75 q 422 115 368 75 q 511 207 475 156 l 575 690 z "},"ẫ":{"ha":803,"x_min":54,"x_max":781,"o":"m 335 1243 q 398 1316 356 1285 q 485 1347 440 1347 q 536 1334 515 1347 q 581 1296 557 1321 q 616 1265 601 1275 q 649 1256 631 1256 q 701 1274 681 1256 q 746 1326 722 1293 l 781 1271 q 723 1194 765 1226 q 633 1161 681 1161 q 576 1174 597 1161 q 532 1213 554 1188 q 498 1243 513 1233 q 463 1253 483 1253 q 364 1193 421 1253 l 335 1243 m 250 872 l 489 1122 l 589 1122 l 728 871 l 676 838 l 524 1021 l 293 839 l 250 872 m 633 126 q 632 108 632 119 q 640 80 632 89 q 660 71 649 71 q 686 79 672 71 q 721 107 700 88 l 740 72 q 684 17 725 47 q 592 -14 643 -14 q 525 8 549 -14 q 503 76 501 31 l 510 121 q 405 26 465 65 q 276 -14 344 -14 q 109 66 164 -14 q 54 278 54 146 q 107 513 54 394 q 260 710 160 632 q 496 789 361 789 q 567 781 528 789 q 639 764 607 774 l 722 788 l 633 126 m 575 690 q 481 715 535 715 q 326 650 390 715 q 228 485 261 585 q 196 289 196 386 q 226 131 196 188 q 315 75 256 75 q 422 115 368 75 q 511 207 475 156 l 575 690 z "},"ä":{"ha":803,"x_min":54,"x_max":740,"o":"m 633 126 q 632 108 632 119 q 640 80 632 89 q 660 71 649 71 q 686 79 672 71 q 721 107 700 88 l 740 72 q 684 17 725 47 q 592 -14 643 -14 q 525 8 549 -14 q 503 76 501 31 l 510 121 q 405 26 465 65 q 276 -14 344 -14 q 109 66 164 -14 q 54 278 54 146 q 107 513 54 394 q 260 710 160 632 q 496 789 361 789 q 567 781 528 789 q 639 764 607 774 l 722 788 l 633 126 m 575 690 q 481 715 535 715 q 326 650 390 715 q 228 485 261 585 q 196 289 196 386 q 226 131 196 188 q 315 75 256 75 q 422 115 368 75 q 511 207 475 156 l 575 690 m 356 939 q 306 963 326 939 q 286 1018 286 986 q 313 1087 288 1058 q 375 1115 339 1115 q 427 1094 407 1115 q 447 1042 447 1072 q 422 968 447 997 q 356 939 397 939 m 647 939 q 599 963 619 939 q 578 1018 578 986 q 604 1088 579 1060 q 667 1115 629 1115 q 719 1094 699 1115 q 739 1042 739 1072 q 713 969 739 999 q 647 939 688 939 z "},"ạ":{"ha":803,"x_min":54,"x_max":740,"o":"m 633 126 q 632 108 632 119 q 640 80 632 89 q 660 71 649 71 q 686 79 672 71 q 721 107 700 88 l 740 72 q 684 17 725 47 q 592 -14 643 -14 q 525 8 549 -14 q 503 76 501 31 l 510 121 q 405 26 465 65 q 276 -14 344 -14 q 109 66 164 -14 q 54 278 54 146 q 107 513 54 394 q 260 710 160 632 q 496 789 361 789 q 567 781 528 789 q 639 764 607 774 l 722 788 l 633 126 m 575 690 q 481 715 535 715 q 326 650 390 715 q 228 485 261 585 q 196 289 196 386 q 226 131 196 188 q 315 75 256 75 q 422 115 368 75 q 511 207 475 156 l 575 690 m 253 -203 q 278 -136 253 -162 q 338 -110 304 -110 q 385 -128 369 -110 q 401 -175 401 -146 q 374 -243 401 -218 q 313 -268 347 -268 q 269 -251 285 -268 q 253 -203 253 -233 z "},"à":{"ha":803,"x_min":54,"x_max":740,"o":"m 633 126 q 632 108 632 119 q 640 80 632 89 q 660 71 649 71 q 686 79 672 71 q 721 107 700 88 l 740 72 q 684 17 725 47 q 592 -14 643 -14 q 525 8 549 -14 q 503 76 501 31 l 510 121 q 405 26 465 65 q 276 -14 344 -14 q 109 66 164 -14 q 54 278 54 146 q 107 513 54 394 q 260 710 160 632 q 496 789 361 789 q 567 781 528 789 q 639 764 607 774 l 722 788 l 633 126 m 575 690 q 481 715 535 715 q 326 650 390 715 q 228 485 261 585 q 196 289 196 386 q 226 131 196 188 q 315 75 256 75 q 422 115 368 75 q 511 207 475 156 l 575 690 m 482 849 q 343 958 431 878 q 229 1085 256 1038 l 324 1175 l 526 886 l 482 849 z "},"ả":{"ha":803,"x_min":54,"x_max":740,"o":"m 633 126 q 632 108 632 119 q 640 80 632 89 q 660 71 649 71 q 686 79 672 71 q 721 107 700 88 l 740 72 q 684 17 725 47 q 592 -14 643 -14 q 525 8 549 -14 q 503 76 501 31 l 510 121 q 405 26 465 65 q 276 -14 344 -14 q 109 66 164 -14 q 54 278 54 146 q 107 513 54 394 q 260 710 160 632 q 496 789 361 789 q 567 781 528 789 q 639 764 607 774 l 722 788 l 633 126 m 575 690 q 481 715 535 715 q 326 650 390 715 q 228 485 261 585 q 196 289 196 386 q 226 131 196 188 q 315 75 256 75 q 422 115 368 75 q 511 207 475 156 l 575 690 m 474 836 q 461 865 467 847 q 457 894 456 883 q 474 924 461 913 q 510 949 486 935 q 542 971 531 961 q 561 994 554 981 l 563 1000 q 564 1014 564 1004 q 501 1064 564 1058 q 456 1060 463 1064 l 469 1153 q 493 1160 472 1157 q 529 1163 514 1163 q 641 1133 601 1163 q 681 1050 681 1104 q 678 1018 681 1029 q 649 963 671 985 q 588 919 626 942 q 569 907 578 913 q 554 897 561 901 q 531 844 529 879 l 474 836 z "},"ā":{"ha":803,"x_min":54,"x_max":740,"o":"m 633 126 q 632 108 632 119 q 640 80 632 89 q 660 71 649 71 q 686 79 672 71 q 721 107 700 88 l 740 72 q 684 17 725 47 q 592 -14 643 -14 q 525 8 549 -14 q 503 76 501 31 l 510 121 q 405 26 465 65 q 276 -14 344 -14 q 109 66 164 -14 q 54 278 54 146 q 107 513 54 394 q 260 710 160 632 q 496 789 361 789 q 567 781 528 789 q 639 764 607 774 l 722 788 l 633 126 m 575 690 q 481 715 535 715 q 326 650 390 715 q 228 485 261 585 q 196 289 196 386 q 226 131 196 188 q 315 75 256 75 q 422 115 368 75 q 511 207 475 156 l 575 690 m 321 1063 l 678 1063 l 665 965 l 308 965 l 321 1063 z "},"ą":{"ha":803,"x_min":54,"x_max":740,"o":"m 603 -189 q 704 -144 653 -189 l 721 -199 q 644 -250 689 -231 q 543 -269 599 -269 q 467 -245 493 -269 q 442 -183 442 -221 q 449 -144 442 -167 q 467 -106 456 -122 q 560 -10 503 -50 q 503 76 501 4 l 510 121 q 405 26 465 65 q 276 -14 344 -14 q 109 66 164 -14 q 54 278 54 146 q 107 513 54 394 q 260 710 160 632 q 496 789 361 789 q 567 781 528 789 q 639 764 607 774 l 722 788 l 633 126 q 632 108 632 119 q 640 80 632 89 q 660 71 649 71 q 686 79 672 71 q 721 107 700 88 l 740 72 q 716 42 733 60 q 675 11 699 25 q 593 -67 624 -31 q 563 -135 563 -103 q 603 -189 561 -189 m 575 690 q 481 715 535 715 q 326 650 390 715 q 228 485 261 585 q 196 289 196 386 q 226 131 196 188 q 315 75 256 75 q 422 115 368 75 q 511 207 475 156 l 575 690 z "},"å":{"ha":803,"x_min":54,"x_max":740,"o":"m 633 126 q 632 108 632 119 q 640 80 632 89 q 660 71 649 71 q 686 79 672 71 q 721 107 700 88 l 740 72 q 684 17 725 47 q 592 -14 643 -14 q 525 8 549 -14 q 503 76 501 31 l 510 121 q 405 26 465 65 q 276 -14 344 -14 q 109 66 164 -14 q 54 278 54 146 q 107 513 54 394 q 260 710 160 632 q 496 789 361 789 q 567 781 528 789 q 639 764 607 774 l 722 788 l 633 126 m 575 690 q 481 715 535 715 q 326 650 390 715 q 228 485 261 585 q 196 289 196 386 q 226 131 196 188 q 315 75 256 75 q 422 115 368 75 q 511 207 475 156 l 575 690 m 506 851 q 365 893 414 851 q 315 1010 315 935 q 351 1124 315 1078 q 442 1190 388 1169 q 554 1211 497 1211 q 690 1171 640 1211 q 740 1060 740 1131 q 706 944 740 992 q 619 874 672 897 q 506 851 565 851 m 515 910 q 616 942 576 910 q 656 1044 656 974 q 624 1123 656 1093 q 543 1153 593 1153 q 443 1121 485 1153 q 401 1021 401 1089 q 433 942 401 974 q 515 910 465 910 z "},"ǻ":{"ha":803,"x_min":54,"x_max":800,"o":"m 633 126 q 632 108 632 119 q 640 80 632 89 q 660 71 649 71 q 686 79 672 71 q 721 107 700 88 l 740 72 q 684 17 725 47 q 592 -14 643 -14 q 525 8 549 -14 q 503 76 501 31 l 510 121 q 405 26 465 65 q 276 -14 344 -14 q 109 66 164 -14 q 54 278 54 146 q 107 513 54 394 q 260 710 160 632 q 496 789 361 789 q 567 781 528 789 q 639 764 607 774 l 722 788 l 633 126 m 575 690 q 481 715 535 715 q 326 650 390 715 q 228 485 261 585 q 196 289 196 386 q 226 131 196 188 q 315 75 256 75 q 422 115 368 75 q 511 207 475 156 l 575 690 m 506 851 q 365 893 414 851 q 315 1010 315 935 q 351 1124 315 1078 q 442 1190 388 1169 q 554 1211 497 1211 q 690 1171 640 1211 q 740 1060 740 1131 q 706 944 740 992 q 619 874 672 897 q 506 851 565 851 m 515 910 q 616 942 576 910 q 656 1044 656 974 q 624 1123 656 1093 q 543 1153 593 1153 q 443 1121 485 1153 q 401 1021 401 1089 q 433 942 401 974 q 515 910 465 910 m 711 1613 l 800 1525 q 739 1451 788 1501 q 633 1352 690 1400 q 536 1285 575 1304 l 493 1324 l 711 1613 z "},"ã":{"ha":803,"x_min":54,"x_max":750,"o":"m 633 126 q 632 108 632 119 q 640 80 632 89 q 660 71 649 71 q 686 79 672 71 q 721 107 700 88 l 740 72 q 684 17 725 47 q 592 -14 643 -14 q 525 8 549 -14 q 503 76 501 31 l 510 121 q 405 26 465 65 q 276 -14 344 -14 q 109 66 164 -14 q 54 278 54 146 q 107 513 54 394 q 260 710 160 632 q 496 789 361 789 q 567 781 528 789 q 639 764 607 774 l 722 788 l 633 126 m 575 690 q 481 715 535 715 q 326 650 390 715 q 228 485 261 585 q 196 289 196 386 q 226 131 196 188 q 315 75 256 75 q 422 115 368 75 q 511 207 475 156 l 575 690 m 258 997 q 328 1077 282 1043 q 424 1111 375 1111 q 479 1097 457 1111 q 531 1056 501 1083 q 567 1022 551 1033 q 604 1011 583 1011 q 663 1033 639 1011 q 711 1089 686 1054 l 750 1028 q 686 943 733 979 q 588 907 639 907 q 525 921 547 907 q 475 964 503 935 q 439 996 456 985 q 399 1008 422 1007 q 290 942 354 1008 l 258 997 z "},"æ":{"ha":1179,"x_min":54,"x_max":1125,"o":"m 706 696 q 813 763 754 739 q 933 788 871 788 q 1077 740 1029 788 q 1125 617 1125 692 q 1047 450 1125 518 q 860 349 968 382 q 667 314 753 317 q 815 75 657 75 q 942 103 879 75 q 1056 183 1004 132 l 1085 132 q 1020 66 1064 100 q 915 9 976 32 q 786 -14 854 -14 q 613 44 675 -14 q 532 201 550 101 q 415 51 488 115 q 261 -14 343 -14 q 104 63 154 -14 q 54 275 54 140 q 110 511 54 392 q 269 709 165 631 q 510 788 374 788 q 647 765 578 788 l 721 788 l 706 696 m 896 717 q 783 665 832 717 q 704 535 733 613 q 668 381 675 457 q 813 411 738 383 q 938 490 888 439 q 989 606 989 540 q 965 688 989 660 q 896 717 942 717 m 585 688 q 499 714 550 714 q 335 649 404 714 q 231 484 267 583 q 196 288 196 385 q 222 133 196 188 q 296 79 247 79 q 419 140 360 79 q 518 271 479 200 l 585 688 z "},"ǽ":{"ha":1165,"x_min":49,"x_max":1119,"o":"m 774 1175 l 863 1088 q 801 1013 850 1064 q 695 915 753 963 q 599 847 638 867 l 556 886 l 774 1175 m 700 696 q 807 763 749 739 q 928 788 865 788 q 1072 740 1024 788 q 1119 617 1119 692 q 1041 450 1119 518 q 855 349 963 382 q 661 314 747 317 q 810 75 651 75 q 936 103 874 75 q 1050 183 999 132 l 1079 132 q 1015 66 1058 100 q 910 9 971 32 q 781 -14 849 -14 q 607 44 669 -14 q 526 201 544 101 q 410 51 482 115 q 256 -14 338 -14 q 99 63 149 -14 q 49 275 49 140 q 104 511 49 392 q 264 709 160 631 q 504 788 368 788 q 642 765 572 788 l 715 788 l 700 696 m 890 717 q 777 665 826 717 q 699 535 728 613 q 663 381 669 457 q 807 411 732 383 q 933 490 882 439 q 983 606 983 540 q 960 688 983 660 q 890 717 936 717 m 579 688 q 493 714 544 714 q 330 649 399 714 q 226 484 261 583 q 190 288 190 385 q 216 133 190 188 q 290 79 242 79 q 414 140 354 79 q 513 271 474 200 l 579 688 z "},"b":{"ha":803,"x_min":76,"x_max":747,"o":"m 297 675 q 392 756 335 724 q 515 789 449 789 q 688 710 629 789 q 747 494 747 631 q 694 258 747 376 q 540 63 640 139 q 308 -14 439 -14 q 220 -3 267 -14 q 143 21 174 7 l 76 -6 l 211 1022 l 144 1047 l 157 1096 l 325 1119 l 354 1101 l 297 675 m 219 88 q 325 60 257 60 q 479 126 415 60 q 575 291 543 192 q 607 489 607 390 q 573 643 607 586 q 476 700 539 700 q 366 662 418 700 q 283 578 314 624 l 219 88 z "},"ḃ":{"ha":803,"x_min":76,"x_max":747,"o":"m 297 675 q 392 756 335 724 q 515 789 449 789 q 688 710 629 789 q 747 494 747 631 q 694 258 747 376 q 540 63 640 139 q 308 -14 439 -14 q 220 -3 267 -14 q 143 21 174 7 l 76 -6 l 211 1022 l 144 1047 l 157 1096 l 325 1119 l 354 1101 l 297 675 m 219 88 q 325 60 257 60 q 479 126 415 60 q 575 291 543 192 q 607 489 607 390 q 573 643 607 586 q 476 700 539 700 q 366 662 418 700 q 283 578 314 624 l 219 88 m 582 939 q 531 961 553 939 q 510 1015 510 983 q 537 1086 510 1057 q 601 1115 564 1115 q 657 1094 636 1115 q 678 1042 678 1072 q 651 969 678 999 q 582 939 625 939 z "},"c":{"ha":617,"x_min":49,"x_max":613,"o":"m 551 631 q 425 701 471 701 q 303 652 357 701 q 220 515 250 603 q 190 313 190 426 q 229 135 190 194 q 342 76 268 76 q 441 98 399 76 q 532 163 483 119 l 560 111 q 456 26 524 65 q 297 -14 389 -14 q 115 69 181 -14 q 49 299 49 151 q 97 526 49 413 q 237 714 144 639 q 456 789 329 789 q 540 781 496 789 q 613 757 583 772 l 575 622 l 551 631 z "},"ć":{"ha":617,"x_min":49,"x_max":682,"o":"m 593 1175 l 682 1088 q 621 1013 669 1064 q 515 915 572 963 q 418 847 457 867 l 375 886 l 593 1175 m 551 631 q 425 701 471 701 q 303 652 357 701 q 220 515 250 603 q 190 313 190 426 q 229 135 190 194 q 342 76 268 76 q 441 98 399 76 q 532 163 483 119 l 560 111 q 456 26 524 65 q 297 -14 389 -14 q 115 69 181 -14 q 49 299 49 151 q 97 526 49 413 q 237 714 144 639 q 456 789 329 789 q 540 781 496 789 q 613 757 583 772 l 575 622 l 551 631 z "},"č":{"ha":617,"x_min":49,"x_max":708,"o":"m 231 1089 l 285 1122 l 443 949 l 661 1122 l 708 1089 l 482 851 l 383 851 l 231 1089 m 551 631 q 425 701 471 701 q 303 652 357 701 q 220 515 250 603 q 190 313 190 426 q 229 135 190 194 q 342 76 268 76 q 441 98 399 76 q 532 163 483 119 l 560 111 q 456 26 524 65 q 297 -14 389 -14 q 115 69 181 -14 q 49 299 49 151 q 97 526 49 413 q 237 714 144 639 q 456 789 329 789 q 540 781 496 789 q 613 757 583 772 l 575 622 l 551 631 z "},"ç":{"ha":617,"x_min":49,"x_max":613,"o":"m 425 701 q 303 652 357 701 q 220 515 250 603 q 190 313 190 426 q 229 135 190 194 q 342 76 268 76 q 441 98 399 76 q 532 163 483 119 l 560 111 q 479 39 531 74 q 358 -8 428 4 q 375 -111 375 -54 q 325 -265 375 -212 q 188 -318 275 -318 q 128 -312 160 -318 q 86 -300 97 -307 l 100 -211 q 126 -220 108 -217 q 164 -224 144 -224 q 257 -183 224 -224 q 292 -71 290 -143 q 288 -14 292 -37 q 112 72 175 -10 q 49 299 49 154 q 97 526 49 413 q 237 714 144 639 q 456 789 329 789 q 540 781 496 789 q 613 757 583 772 l 575 622 l 551 631 q 425 701 471 701 z "},"ĉ":{"ha":617,"x_min":49,"x_max":676,"o":"m 199 872 l 438 1122 l 538 1122 l 676 871 l 625 838 l 472 1021 l 242 839 l 199 872 m 551 631 q 425 701 471 701 q 303 652 357 701 q 220 515 250 603 q 190 313 190 426 q 229 135 190 194 q 342 76 268 76 q 441 98 399 76 q 532 163 483 119 l 560 111 q 456 26 524 65 q 297 -14 389 -14 q 115 69 181 -14 q 49 299 49 151 q 97 526 49 413 q 237 714 144 639 q 456 789 329 789 q 540 781 496 789 q 613 757 583 772 l 575 622 l 551 631 z "},"ċ":{"ha":617,"x_min":49,"x_max":613,"o":"m 551 631 q 425 701 471 701 q 303 652 357 701 q 220 515 250 603 q 190 313 190 426 q 229 135 190 194 q 342 76 268 76 q 441 98 399 76 q 532 163 483 119 l 560 111 q 456 26 524 65 q 297 -14 389 -14 q 115 69 181 -14 q 49 299 49 151 q 97 526 49 413 q 237 714 144 639 q 456 789 329 789 q 540 781 496 789 q 613 757 583 772 l 575 622 l 551 631 m 451 939 q 401 961 422 939 q 379 1015 379 983 q 406 1086 379 1057 q 471 1115 433 1115 q 526 1094 506 1115 q 547 1042 547 1072 q 521 969 547 999 q 451 939 494 939 z "},"d":{"ha":813,"x_min":53,"x_max":782,"o":"m 638 121 q 636 106 636 115 q 657 71 636 71 q 721 106 682 71 l 740 71 q 680 15 719 43 q 589 -14 640 -14 q 507 75 507 -14 l 507 106 q 410 21 468 56 q 279 -14 351 -14 q 110 66 167 -14 q 53 278 53 146 q 106 515 53 396 q 258 711 158 633 q 494 789 358 789 q 599 772 544 789 l 636 1022 l 544 1046 l 556 1094 l 751 1119 l 782 1101 l 638 121 m 586 685 q 478 715 546 715 q 320 648 385 715 q 224 481 256 581 q 193 286 193 382 q 226 131 193 186 q 318 75 258 75 q 429 112 376 75 q 511 194 482 149 l 586 685 z "},"ð":{"ha":790,"x_min":53,"x_max":735,"o":"m 383 1028 q 236 1106 300 1089 l 264 1182 q 352 1149 301 1172 q 449 1097 403 1126 q 513 1173 483 1136 q 553 1222 543 1210 l 611 1167 l 511 1053 q 681 829 626 951 q 735 554 735 707 q 687 265 735 394 q 547 61 639 136 q 328 -14 456 -14 q 178 31 240 -14 q 84 146 115 75 q 53 293 53 217 q 105 535 53 431 q 244 697 157 640 q 429 753 331 753 q 528 738 485 753 q 594 690 571 722 q 545 852 576 792 q 443 979 514 913 l 339 861 l 279 914 l 383 1028 m 431 683 q 305 624 358 683 q 224 470 251 564 q 196 276 196 376 q 234 117 196 181 q 343 53 272 53 q 497 146 432 53 q 581 381 561 239 q 588 458 585 415 q 590 521 592 500 q 572 587 589 549 q 520 654 556 625 q 431 683 485 683 z "},"ď":{"ha":976,"x_min":53,"x_max":1004,"o":"m 638 121 q 636 106 636 115 q 657 71 636 71 q 721 106 682 71 l 740 71 q 680 15 719 43 q 589 -14 640 -14 q 507 75 507 -14 l 507 106 q 410 21 468 56 q 279 -14 351 -14 q 110 66 167 -14 q 53 278 53 146 q 106 515 53 396 q 258 711 158 633 q 494 789 358 789 q 599 772 544 789 l 636 1022 l 544 1046 l 556 1094 l 751 1119 l 782 1101 l 638 121 m 586 685 q 478 715 546 715 q 320 648 385 715 q 224 481 256 581 q 193 286 193 382 q 226 131 193 186 q 318 75 258 75 q 429 112 376 75 q 511 194 482 149 l 586 685 m 847 722 q 894 967 894 849 q 889 1030 894 1000 q 875 1072 883 1060 l 886 1096 l 982 1122 q 1004 1015 1004 1099 q 1003 974 1004 988 q 966 813 996 890 q 897 690 936 736 l 850 707 l 847 722 z "},"đ":{"ha":813,"x_min":53,"x_max":853,"o":"m 638 121 q 636 106 636 115 q 657 71 636 71 q 721 106 682 71 l 740 71 q 680 15 719 43 q 589 -14 640 -14 q 507 75 507 -14 l 507 106 q 410 21 468 56 q 279 -14 351 -14 q 110 66 167 -14 q 53 278 53 146 q 106 515 53 396 q 258 711 158 633 q 494 789 358 789 q 599 772 544 789 l 613 868 l 419 868 l 429 944 l 625 944 l 636 1022 l 544 1046 l 556 1094 l 751 1119 l 782 1101 l 758 944 l 853 944 l 843 868 l 747 868 l 638 121 m 586 685 q 478 715 546 715 q 320 648 385 715 q 224 481 256 581 q 193 286 193 382 q 226 131 193 186 q 318 75 258 75 q 429 112 376 75 q 511 194 482 149 l 586 685 z "},"ḋ":{"ha":813,"x_min":53,"x_max":782,"o":"m 638 121 q 636 106 636 115 q 657 71 636 71 q 721 106 682 71 l 740 71 q 680 15 719 43 q 589 -14 640 -14 q 507 75 507 -14 l 507 106 q 410 21 468 56 q 279 -14 351 -14 q 110 66 167 -14 q 53 278 53 146 q 106 515 53 396 q 258 711 158 633 q 494 789 358 789 q 599 772 544 789 l 636 1022 l 544 1046 l 556 1094 l 751 1119 l 782 1101 l 638 121 m 586 685 q 478 715 546 715 q 320 648 385 715 q 224 481 256 581 q 193 286 193 382 q 226 131 193 186 q 318 75 258 75 q 429 112 376 75 q 511 194 482 149 l 586 685 m 318 939 q 267 961 289 939 q 246 1015 246 983 q 273 1086 246 1057 q 338 1115 300 1115 q 393 1094 372 1115 q 414 1042 414 1072 q 388 969 414 999 q 318 939 361 939 z "},"ǳ":{"ha":1510,"x_min":53,"x_max":1514,"o":"m 638 121 q 636 106 636 115 q 657 71 636 71 q 721 106 682 71 l 740 71 q 680 15 719 43 q 589 -14 640 -14 q 507 75 507 -14 l 507 106 q 410 21 468 56 q 279 -14 351 -14 q 110 66 167 -14 q 53 278 53 146 q 106 515 53 396 q 258 711 158 633 q 494 789 358 789 q 599 772 544 789 l 636 1022 l 544 1046 l 556 1094 l 751 1119 l 782 1101 l 638 121 m 586 685 q 478 715 546 715 q 320 648 385 715 q 224 481 256 581 q 193 286 193 382 q 226 131 193 186 q 318 75 258 75 q 429 112 376 75 q 511 194 482 149 l 586 685 m 1353 661 q 1050 665 1074 668 q 988 626 1013 664 q 960 536 963 588 l 911 536 q 919 676 907 596 q 961 772 932 756 q 1024 788 982 788 q 1236 775 1096 788 q 1327 769 1267 774 q 1415 765 1388 765 q 1482 786 1456 765 l 1514 753 l 1157 292 l 985 110 l 1271 106 q 1390 233 1375 106 l 1439 233 q 1424 87 1438 156 q 1382 -1 1411 18 q 1313 -15 1357 -15 q 1094 -3 1272 -15 q 918 8 953 8 q 850 -15 878 8 l 813 21 l 1263 569 l 1353 661 z "},"ǆ":{"ha":1510,"x_min":53,"x_max":1514,"o":"m 638 121 q 636 106 636 115 q 657 71 636 71 q 721 106 682 71 l 740 71 q 680 15 719 43 q 589 -14 640 -14 q 507 75 507 -14 l 507 106 q 410 21 468 56 q 279 -14 351 -14 q 110 66 167 -14 q 53 278 53 146 q 106 515 53 396 q 258 711 158 633 q 494 789 358 789 q 599 772 544 789 l 636 1022 l 544 1046 l 556 1094 l 751 1119 l 782 1101 l 638 121 m 586 685 q 478 715 546 715 q 320 648 385 715 q 224 481 256 581 q 193 286 193 382 q 226 131 193 186 q 318 75 258 75 q 429 112 376 75 q 511 194 482 149 l 586 685 m 1353 661 q 1050 665 1074 668 q 988 626 1013 664 q 960 536 963 588 l 911 536 q 919 676 907 596 q 961 772 932 756 q 1024 788 982 788 q 1236 775 1096 788 q 1327 769 1267 774 q 1415 765 1388 765 q 1482 786 1456 765 l 1514 753 l 1157 292 l 985 110 l 1271 106 q 1390 233 1375 106 l 1439 233 q 1424 87 1438 156 q 1382 -1 1411 18 q 1313 -15 1357 -15 q 1094 -3 1272 -15 q 918 8 953 8 q 850 -15 878 8 l 813 21 l 1263 569 l 1353 661 m 1022 1089 l 1076 1122 l 1235 949 l 1453 1122 l 1500 1089 l 1274 851 l 1175 851 l 1022 1089 z "},"e":{"ha":718,"x_min":57,"x_max":664,"o":"m 624 132 q 508 32 588 79 q 332 -15 429 -15 q 177 27 239 -15 q 86 138 115 69 q 57 286 57 207 q 110 535 57 419 q 258 719 164 650 q 465 789 351 789 q 614 742 564 789 q 664 618 664 694 q 584 451 664 519 q 396 350 504 383 q 201 314 288 317 q 235 145 196 217 q 361 74 274 74 q 483 102 422 74 q 593 183 544 131 l 624 132 m 433 717 q 318 665 368 717 q 239 534 268 613 q 204 381 210 456 q 351 411 275 383 q 478 490 426 439 q 529 606 529 540 q 503 688 529 660 q 433 717 478 717 z "},"é":{"ha":718,"x_min":57,"x_max":683,"o":"m 594 1175 l 683 1088 q 622 1013 671 1064 q 516 915 574 963 q 419 847 458 867 l 376 886 l 594 1175 m 624 132 q 508 32 588 79 q 332 -15 429 -15 q 177 27 239 -15 q 86 138 115 69 q 57 286 57 207 q 110 535 57 419 q 258 719 164 650 q 465 789 351 789 q 614 742 564 789 q 664 618 664 694 q 584 451 664 519 q 396 350 504 383 q 201 314 288 317 q 235 145 196 217 q 361 74 274 74 q 483 102 422 74 q 593 183 544 131 l 624 132 m 433 717 q 318 665 368 717 q 239 534 268 613 q 204 381 210 456 q 351 411 275 383 q 478 490 426 439 q 529 606 529 540 q 503 688 529 660 q 433 717 478 717 z "},"ĕ":{"ha":718,"x_min":57,"x_max":678,"o":"m 624 132 q 508 32 588 79 q 332 -15 429 -15 q 177 27 239 -15 q 86 138 115 69 q 57 286 57 207 q 110 535 57 419 q 258 719 164 650 q 465 789 351 789 q 614 742 564 789 q 664 618 664 694 q 584 451 664 519 q 396 350 504 383 q 201 314 288 317 q 235 145 196 217 q 361 74 274 74 q 483 102 422 74 q 593 183 544 131 l 624 132 m 433 717 q 318 665 368 717 q 239 534 268 613 q 204 381 210 456 q 351 411 275 383 q 478 490 426 439 q 529 606 529 540 q 503 688 529 660 q 433 717 478 717 m 451 883 q 341 915 386 883 q 274 996 296 946 q 251 1101 251 1046 l 251 1124 l 326 1124 l 328 1100 q 364 1017 333 1053 q 453 982 394 982 q 559 1027 521 982 q 606 1124 597 1072 l 678 1124 q 676 1103 678 1108 q 642 999 672 1050 q 563 916 613 949 q 451 883 513 883 z "},"ě":{"ha":718,"x_min":57,"x_max":714,"o":"m 236 1089 l 290 1122 l 449 949 l 667 1122 l 714 1089 l 488 851 l 389 851 l 236 1089 m 624 132 q 508 32 588 79 q 332 -15 429 -15 q 177 27 239 -15 q 86 138 115 69 q 57 286 57 207 q 110 535 57 419 q 258 719 164 650 q 465 789 351 789 q 614 742 564 789 q 664 618 664 694 q 584 451 664 519 q 396 350 504 383 q 201 314 288 317 q 235 145 196 217 q 361 74 274 74 q 483 102 422 74 q 593 183 544 131 l 624 132 m 433 717 q 318 665 368 717 q 239 534 268 613 q 204 381 210 456 q 351 411 275 383 q 478 490 426 439 q 529 606 529 540 q 503 688 529 660 q 433 717 478 717 z "},"ê":{"ha":718,"x_min":57,"x_max":679,"o":"m 201 872 l 440 1122 l 540 1122 l 679 871 l 628 838 l 475 1021 l 244 839 l 201 872 m 624 132 q 508 32 588 79 q 332 -15 429 -15 q 177 27 239 -15 q 86 138 115 69 q 57 286 57 207 q 110 535 57 419 q 258 719 164 650 q 465 789 351 789 q 614 742 564 789 q 664 618 664 694 q 584 451 664 519 q 396 350 504 383 q 201 314 288 317 q 235 145 196 217 q 361 74 274 74 q 483 102 422 74 q 593 183 544 131 l 624 132 m 433 717 q 318 665 368 717 q 239 534 268 613 q 204 381 210 456 q 351 411 275 383 q 478 490 426 439 q 529 606 529 540 q 503 688 529 660 q 433 717 478 717 z "},"ế":{"ha":718,"x_min":57,"x_max":908,"o":"m 835 1290 l 908 1218 q 815 1115 890 1186 q 690 1019 739 1043 l 656 1051 l 835 1290 m 200 872 l 439 1122 l 539 1122 l 678 871 l 626 838 l 474 1021 l 243 839 l 200 872 m 624 132 q 508 32 588 79 q 332 -15 429 -15 q 177 27 239 -15 q 86 138 115 69 q 57 286 57 207 q 110 535 57 419 q 258 719 164 650 q 465 789 351 789 q 614 742 564 789 q 664 618 664 694 q 584 451 664 519 q 396 350 504 383 q 201 314 288 317 q 235 145 196 217 q 361 74 274 74 q 483 102 422 74 q 593 183 544 131 l 624 132 m 433 717 q 318 665 368 717 q 239 534 268 613 q 204 381 210 456 q 351 411 275 383 q 478 490 426 439 q 529 606 529 540 q 503 688 529 660 q 433 717 478 717 z "},"ệ":{"ha":718,"x_min":57,"x_max":678,"o":"m 624 132 q 508 32 588 79 q 332 -15 429 -15 q 177 27 239 -15 q 86 138 115 69 q 57 286 57 207 q 110 535 57 419 q 258 719 164 650 q 465 789 351 789 q 614 742 564 789 q 664 618 664 694 q 584 451 664 519 q 396 350 504 383 q 201 314 288 317 q 235 145 196 217 q 361 74 274 74 q 483 102 422 74 q 593 183 544 131 l 624 132 m 433 717 q 318 665 368 717 q 239 534 268 613 q 204 381 210 456 q 351 411 275 383 q 478 490 426 439 q 529 606 529 540 q 503 688 529 660 q 433 717 478 717 m 211 -203 q 237 -136 211 -162 q 296 -110 263 -110 q 344 -128 328 -110 q 360 -175 360 -146 q 333 -243 360 -218 q 271 -268 306 -268 q 227 -251 243 -268 q 211 -203 211 -233 m 200 872 l 439 1122 l 539 1122 l 678 871 l 626 838 l 474 1021 l 243 839 l 200 872 z "},"ề":{"ha":718,"x_min":57,"x_max":738,"o":"m 700 1081 q 586 1170 658 1104 q 492 1275 514 1236 l 569 1350 l 738 1111 l 700 1081 m 200 872 l 439 1122 l 539 1122 l 678 871 l 626 838 l 474 1021 l 243 839 l 200 872 m 624 132 q 508 32 588 79 q 332 -15 429 -15 q 177 27 239 -15 q 86 138 115 69 q 57 286 57 207 q 110 535 57 419 q 258 719 164 650 q 465 789 351 789 q 614 742 564 789 q 664 618 664 694 q 584 451 664 519 q 396 350 504 383 q 201 314 288 317 q 235 145 196 217 q 361 74 274 74 q 483 102 422 74 q 593 183 544 131 l 624 132 m 433 717 q 318 665 368 717 q 239 534 268 613 q 204 381 210 456 q 351 411 275 383 q 478 490 426 439 q 529 606 529 540 q 503 688 529 660 q 433 717 478 717 z "},"ể":{"ha":718,"x_min":57,"x_max":864,"o":"m 681 1007 q 670 1033 675 1017 q 667 1058 665 1050 q 681 1084 669 1074 q 714 1107 693 1094 q 743 1127 733 1119 q 758 1147 753 1135 l 760 1153 q 761 1164 761 1157 q 748 1194 761 1182 q 706 1210 735 1207 q 665 1206 671 1210 l 678 1288 q 698 1294 679 1292 q 731 1296 717 1296 q 829 1271 794 1296 q 864 1197 864 1246 q 861 1168 864 1190 q 837 1121 856 1139 q 783 1082 818 1103 q 753 1061 761 1068 q 731 1015 731 1046 l 681 1007 m 200 872 l 439 1122 l 539 1122 l 678 871 l 626 838 l 474 1021 l 243 839 l 200 872 m 624 132 q 508 32 588 79 q 332 -15 429 -15 q 177 27 239 -15 q 86 138 115 69 q 57 286 57 207 q 110 535 57 419 q 258 719 164 650 q 465 789 351 789 q 614 742 564 789 q 664 618 664 694 q 584 451 664 519 q 396 350 504 383 q 201 314 288 317 q 235 145 196 217 q 361 74 274 74 q 483 102 422 74 q 593 183 544 131 l 624 132 m 433 717 q 318 665 368 717 q 239 534 268 613 q 204 381 210 456 q 351 411 275 383 q 478 490 426 439 q 529 606 529 540 q 503 688 529 660 q 433 717 478 717 z "},"ễ":{"ha":718,"x_min":57,"x_max":731,"o":"m 285 1243 q 348 1316 306 1285 q 435 1347 390 1347 q 486 1334 465 1347 q 531 1296 507 1321 q 566 1265 551 1275 q 599 1256 581 1256 q 651 1274 631 1256 q 696 1326 672 1293 l 731 1271 q 673 1194 715 1226 q 583 1161 631 1161 q 526 1174 547 1161 q 482 1213 504 1188 q 448 1243 463 1233 q 413 1253 433 1253 q 314 1193 371 1253 l 285 1243 m 200 872 l 439 1122 l 539 1122 l 678 871 l 626 838 l 474 1021 l 243 839 l 200 872 m 624 132 q 508 32 588 79 q 332 -15 429 -15 q 177 27 239 -15 q 86 138 115 69 q 57 286 57 207 q 110 535 57 419 q 258 719 164 650 q 465 789 351 789 q 614 742 564 789 q 664 618 664 694 q 584 451 664 519 q 396 350 504 383 q 201 314 288 317 q 235 145 196 217 q 361 74 274 74 q 483 102 422 74 q 593 183 544 131 l 624 132 m 433 717 q 318 665 368 717 q 239 534 268 613 q 204 381 210 456 q 351 411 275 383 q 478 490 426 439 q 529 606 529 540 q 503 688 529 660 q 433 717 478 717 z "},"ë":{"ha":718,"x_min":57,"x_max":689,"o":"m 306 939 q 256 963 276 939 q 236 1018 236 986 q 263 1087 238 1058 q 325 1115 289 1115 q 377 1094 357 1115 q 397 1042 397 1072 q 372 968 397 997 q 306 939 347 939 m 597 939 q 549 963 569 939 q 528 1018 528 986 q 554 1088 529 1060 q 617 1115 579 1115 q 669 1094 649 1115 q 689 1042 689 1072 q 663 969 689 999 q 597 939 638 939 m 624 132 q 508 32 588 79 q 332 -15 429 -15 q 177 27 239 -15 q 86 138 115 69 q 57 286 57 207 q 110 535 57 419 q 258 719 164 650 q 465 789 351 789 q 614 742 564 789 q 664 618 664 694 q 584 451 664 519 q 396 350 504 383 q 201 314 288 317 q 235 145 196 217 q 361 74 274 74 q 483 102 422 74 q 593 183 544 131 l 624 132 m 433 717 q 318 665 368 717 q 239 534 268 613 q 204 381 210 456 q 351 411 275 383 q 478 490 426 439 q 529 606 529 540 q 503 688 529 660 q 433 717 478 717 z "},"ė":{"ha":718,"x_min":57,"x_max":664,"o":"m 624 132 q 508 32 588 79 q 332 -15 429 -15 q 177 27 239 -15 q 86 138 115 69 q 57 286 57 207 q 110 535 57 419 q 258 719 164 650 q 465 789 351 789 q 614 742 564 789 q 664 618 664 694 q 584 451 664 519 q 396 350 504 383 q 201 314 288 317 q 235 145 196 217 q 361 74 274 74 q 483 102 422 74 q 593 183 544 131 l 624 132 m 433 717 q 318 665 368 717 q 239 534 268 613 q 204 381 210 456 q 351 411 275 383 q 478 490 426 439 q 529 606 529 540 q 503 688 529 660 q 433 717 478 717 m 453 939 q 402 961 424 939 q 381 1015 381 983 q 408 1086 381 1057 q 472 1115 435 1115 q 528 1094 507 1115 q 549 1042 549 1072 q 522 969 549 999 q 453 939 496 939 z "},"ẹ":{"ha":718,"x_min":57,"x_max":664,"o":"m 624 132 q 508 32 588 79 q 332 -15 429 -15 q 177 27 239 -15 q 86 138 115 69 q 57 286 57 207 q 110 535 57 419 q 258 719 164 650 q 465 789 351 789 q 614 742 564 789 q 664 618 664 694 q 584 451 664 519 q 396 350 504 383 q 201 314 288 317 q 235 145 196 217 q 361 74 274 74 q 483 102 422 74 q 593 183 544 131 l 624 132 m 433 717 q 318 665 368 717 q 239 534 268 613 q 204 381 210 456 q 351 411 275 383 q 478 490 426 439 q 529 606 529 540 q 503 688 529 660 q 433 717 478 717 m 211 -203 q 237 -136 211 -162 q 296 -110 263 -110 q 344 -128 328 -110 q 360 -175 360 -146 q 333 -243 360 -218 q 271 -268 306 -268 q 227 -251 243 -268 q 211 -203 211 -233 z "},"è":{"ha":718,"x_min":57,"x_max":664,"o":"m 624 132 q 508 32 588 79 q 332 -15 429 -15 q 177 27 239 -15 q 86 138 115 69 q 57 286 57 207 q 110 535 57 419 q 258 719 164 650 q 465 789 351 789 q 614 742 564 789 q 664 618 664 694 q 584 451 664 519 q 396 350 504 383 q 201 314 288 317 q 235 145 196 217 q 361 74 274 74 q 483 102 422 74 q 593 183 544 131 l 624 132 m 433 717 q 318 665 368 717 q 239 534 268 613 q 204 381 210 456 q 351 411 275 383 q 478 490 426 439 q 529 606 529 540 q 503 688 529 660 q 433 717 478 717 m 432 849 q 293 958 381 878 q 179 1085 206 1038 l 274 1175 l 476 886 l 432 849 z "},"ẻ":{"ha":718,"x_min":57,"x_max":664,"o":"m 624 132 q 508 32 588 79 q 332 -15 429 -15 q 177 27 239 -15 q 86 138 115 69 q 57 286 57 207 q 110 535 57 419 q 258 719 164 650 q 465 789 351 789 q 614 742 564 789 q 664 618 664 694 q 584 451 664 519 q 396 350 504 383 q 201 314 288 317 q 235 145 196 217 q 361 74 274 74 q 483 102 422 74 q 593 183 544 131 l 624 132 m 433 717 q 318 665 368 717 q 239 534 268 613 q 204 381 210 456 q 351 411 275 383 q 478 490 426 439 q 529 606 529 540 q 503 688 529 660 q 433 717 478 717 m 424 836 q 411 865 417 847 q 407 894 406 883 q 424 924 411 913 q 460 949 436 935 q 492 971 481 961 q 511 994 504 981 l 513 1000 q 514 1014 514 1004 q 451 1064 514 1058 q 406 1060 413 1064 l 419 1153 q 443 1160 422 1157 q 479 1163 464 1163 q 591 1133 551 1163 q 631 1050 631 1104 q 628 1018 631 1029 q 599 963 621 985 q 538 919 576 942 q 519 907 528 913 q 504 897 511 901 q 481 844 479 879 l 424 836 z "},"ē":{"ha":718,"x_min":57,"x_max":664,"o":"m 624 132 q 508 32 588 79 q 332 -15 429 -15 q 177 27 239 -15 q 86 138 115 69 q 57 286 57 207 q 110 535 57 419 q 258 719 164 650 q 465 789 351 789 q 614 742 564 789 q 664 618 664 694 q 584 451 664 519 q 396 350 504 383 q 201 314 288 317 q 235 145 196 217 q 361 74 274 74 q 483 102 422 74 q 593 183 544 131 l 624 132 m 433 717 q 318 665 368 717 q 239 534 268 613 q 204 381 210 456 q 351 411 275 383 q 478 490 426 439 q 529 606 529 540 q 503 688 529 660 q 433 717 478 717 m 271 1063 l 628 1063 l 615 965 l 258 965 l 271 1063 z "},"ę":{"ha":718,"x_min":57,"x_max":664,"o":"m 361 74 q 483 102 422 74 q 593 183 544 131 l 624 132 q 565 71 604 103 q 478 17 526 39 q 358 -135 358 -75 q 399 -189 357 -189 q 500 -144 449 -189 l 517 -199 q 440 -250 485 -231 q 339 -269 394 -269 q 263 -245 289 -269 q 238 -183 238 -221 q 244 -144 238 -167 q 263 -106 251 -122 q 349 -15 297 -53 l 332 -15 q 177 27 239 -15 q 86 138 115 69 q 57 286 57 207 q 110 535 57 419 q 258 719 164 650 q 465 789 351 789 q 614 742 564 789 q 664 618 664 694 q 584 451 664 519 q 396 350 504 383 q 201 314 288 317 q 235 145 196 217 q 361 74 274 74 m 433 717 q 318 665 368 717 q 239 534 268 613 q 204 381 210 456 q 351 411 275 383 q 478 490 426 439 q 529 606 529 540 q 503 688 529 660 q 433 717 478 717 z "},"ẽ":{"ha":718,"x_min":57,"x_max":700,"o":"m 624 132 q 508 32 588 79 q 332 -15 429 -15 q 177 27 239 -15 q 86 138 115 69 q 57 286 57 207 q 110 535 57 419 q 258 719 164 650 q 465 789 351 789 q 614 742 564 789 q 664 618 664 694 q 584 451 664 519 q 396 350 504 383 q 201 314 288 317 q 235 145 196 217 q 361 74 274 74 q 483 102 422 74 q 593 183 544 131 l 624 132 m 433 717 q 318 665 368 717 q 239 534 268 613 q 204 381 210 456 q 351 411 275 383 q 478 490 426 439 q 529 606 529 540 q 503 688 529 660 q 433 717 478 717 m 208 997 q 278 1077 232 1043 q 374 1111 325 1111 q 429 1097 407 1111 q 481 1056 451 1083 q 517 1022 501 1033 q 554 1011 533 1011 q 613 1033 589 1011 q 661 1089 636 1054 l 700 1028 q 636 943 683 979 q 538 907 589 907 q 475 921 497 907 q 425 964 453 935 q 389 996 406 985 q 349 1008 372 1007 q 240 942 304 1008 l 208 997 z "},"f":{"ha":472,"x_min":-149,"x_max":606,"o":"m 211 843 q 265 988 224 922 q 366 1093 306 1054 q 494 1132 426 1132 q 606 1115 563 1132 l 571 1015 q 475 1046 528 1047 q 387 998 419 1046 q 343 864 354 950 l 332 783 l 501 783 l 489 694 l 321 694 l 232 -7 q 145 -253 214 -158 q -33 -347 76 -347 q -99 -345 -65 -349 q -149 -337 -132 -342 l -118 -235 q -70 -251 -107 -240 q -10 -260 -33 -261 q 55 -217 32 -260 q 88 -92 78 -174 l 186 694 l 93 694 l 104 744 l 201 781 l 211 843 z "},"ḟ":{"ha":472,"x_min":-149,"x_max":606,"o":"m 307 1144 q 256 1167 278 1144 q 235 1221 235 1189 q 262 1292 235 1263 q 326 1321 289 1321 q 382 1299 361 1321 q 403 1247 403 1278 q 376 1174 403 1204 q 307 1144 350 1144 m 211 843 q 265 988 224 922 q 366 1093 306 1054 q 494 1132 426 1132 q 606 1115 563 1132 l 571 1015 q 475 1046 528 1047 q 387 998 419 1046 q 343 864 354 950 l 332 783 l 501 783 l 489 694 l 321 694 l 232 -7 q 145 -253 214 -158 q -33 -347 76 -347 q -99 -345 -65 -349 q -149 -337 -132 -342 l -118 -235 q -70 -251 -107 -240 q -10 -260 -33 -261 q 55 -217 32 -260 q 88 -92 78 -174 l 186 694 l 93 694 l 104 744 l 201 781 l 211 843 z "},"g":{"ha":792,"x_min":53,"x_max":733,"o":"m 608 -53 q 535 -222 594 -156 q 394 -317 475 -287 q 233 -346 314 -346 q 144 -338 190 -346 q 75 -321 99 -331 l 104 -208 q 185 -240 138 -225 q 282 -254 233 -254 q 413 -219 371 -254 q 469 -92 456 -185 l 496 93 q 402 17 457 47 q 282 -14 347 -14 q 110 66 168 -14 q 53 278 53 146 q 106 513 53 394 q 260 710 158 632 q 496 789 361 789 q 575 780 533 789 q 647 758 617 771 l 733 789 l 608 -53 m 583 686 q 479 715 544 715 q 322 648 386 715 q 225 481 257 581 q 193 286 193 382 q 226 131 193 186 q 319 75 260 75 q 428 110 376 75 q 510 189 479 144 l 583 686 z "},"ğ":{"ha":792,"x_min":53,"x_max":733,"o":"m 608 -53 q 535 -222 594 -156 q 394 -317 475 -287 q 233 -346 314 -346 q 144 -338 190 -346 q 75 -321 99 -331 l 104 -208 q 185 -240 138 -225 q 282 -254 233 -254 q 413 -219 371 -254 q 469 -92 456 -185 l 496 93 q 402 17 457 47 q 282 -14 347 -14 q 110 66 168 -14 q 53 278 53 146 q 106 513 53 394 q 260 710 158 632 q 496 789 361 789 q 575 780 533 789 q 647 758 617 771 l 733 789 l 608 -53 m 583 686 q 479 715 544 715 q 322 648 386 715 q 225 481 257 581 q 193 286 193 382 q 226 131 193 186 q 319 75 260 75 q 428 110 376 75 q 510 189 479 144 l 583 686 m 504 883 q 394 915 439 883 q 326 996 349 946 q 304 1101 304 1046 l 304 1124 l 379 1124 l 381 1100 q 417 1017 386 1053 q 506 982 447 982 q 612 1027 574 982 q 658 1124 650 1072 l 731 1124 q 729 1103 731 1108 q 695 999 725 1050 q 615 916 665 949 q 504 883 565 883 z "},"ĝ":{"ha":792,"x_min":53,"x_max":733,"o":"m 253 872 l 492 1122 l 592 1122 l 731 871 l 679 838 l 526 1021 l 296 839 l 253 872 m 608 -53 q 535 -222 594 -156 q 394 -317 475 -287 q 233 -346 314 -346 q 144 -338 190 -346 q 75 -321 99 -331 l 104 -208 q 185 -240 138 -225 q 282 -254 233 -254 q 413 -219 371 -254 q 469 -92 456 -185 l 496 93 q 402 17 457 47 q 282 -14 347 -14 q 110 66 168 -14 q 53 278 53 146 q 106 513 53 394 q 260 710 158 632 q 496 789 361 789 q 575 780 533 789 q 647 758 617 771 l 733 789 l 608 -53 m 583 686 q 479 715 544 715 q 322 648 386 715 q 225 481 257 581 q 193 286 193 382 q 226 131 193 186 q 319 75 260 75 q 428 110 376 75 q 510 189 479 144 l 583 686 z "},"ģ":{"ha":793,"x_min":53,"x_max":735,"o":"m 582 1174 q 513 1063 518 1135 q 526 1008 510 1033 q 568 976 543 982 l 563 938 l 488 871 q 420 919 446 881 q 394 1007 394 958 q 419 1106 394 1060 q 481 1183 444 1153 q 550 1219 518 1213 l 583 1189 l 582 1174 m 608 -53 q 535 -222 594 -157 q 395 -317 475 -287 q 233 -346 315 -346 q 144 -338 190 -346 q 76 -321 99 -331 l 104 -208 q 186 -240 138 -225 q 282 -254 235 -254 q 414 -219 371 -254 q 469 -92 457 -183 l 497 93 q 403 17 458 47 q 282 -14 347 -14 q 111 66 169 -14 q 53 278 53 146 q 106 513 53 394 q 260 710 158 632 q 496 789 361 789 q 575 780 533 789 q 647 758 617 771 l 735 789 l 608 -53 m 585 686 q 479 715 544 715 q 322 648 386 715 q 225 481 257 581 q 193 286 193 382 q 226 131 193 186 q 319 75 260 75 q 428 110 376 75 q 510 189 481 144 l 585 686 z "},"ġ":{"ha":792,"x_min":53,"x_max":733,"o":"m 608 -53 q 535 -222 594 -156 q 394 -317 475 -287 q 233 -346 314 -346 q 144 -338 190 -346 q 75 -321 99 -331 l 104 -208 q 185 -240 138 -225 q 282 -254 233 -254 q 413 -219 371 -254 q 469 -92 456 -185 l 496 93 q 402 17 457 47 q 282 -14 347 -14 q 110 66 168 -14 q 53 278 53 146 q 106 513 53 394 q 260 710 158 632 q 496 789 361 789 q 575 780 533 789 q 647 758 617 771 l 733 789 l 608 -53 m 583 686 q 479 715 544 715 q 322 648 386 715 q 225 481 257 581 q 193 286 193 382 q 226 131 193 186 q 319 75 260 75 q 428 110 376 75 q 510 189 479 144 l 583 686 m 506 939 q 455 961 476 939 q 433 1015 433 983 q 460 1086 433 1057 q 525 1115 488 1115 q 581 1094 560 1115 q 601 1042 601 1072 q 575 969 601 999 q 506 939 549 939 z "},"h":{"ha":851,"x_min":74,"x_max":779,"o":"m 285 599 q 420 735 342 682 q 579 789 499 789 q 699 742 657 789 q 740 586 740 694 q 728 476 740 547 q 706 343 717 404 l 696 288 q 671 110 671 165 q 692 69 671 69 q 721 78 707 69 q 761 110 735 88 l 779 74 q 720 17 764 49 q 619 -14 676 -14 q 549 7 571 -14 q 528 71 528 28 q 550 228 528 108 q 564 307 553 243 q 592 460 582 399 q 601 576 601 522 q 581 665 600 640 q 518 689 561 689 q 392 633 461 689 q 272 497 322 576 l 207 0 l 74 0 l 206 1022 l 126 1046 l 135 1094 l 322 1119 l 351 1101 l 285 599 z "},"ħ":{"ha":851,"x_min":74,"x_max":779,"o":"m 285 599 q 420 735 342 682 q 579 789 499 789 q 699 742 657 789 q 740 586 740 694 q 728 476 740 547 q 706 343 717 404 l 696 288 q 671 110 671 165 q 692 69 671 69 q 721 78 707 69 q 761 110 735 88 l 779 74 q 720 17 764 49 q 619 -14 676 -14 q 549 7 571 -14 q 528 71 528 28 q 550 228 528 108 q 564 307 553 243 q 592 460 582 399 q 601 576 601 522 q 581 665 600 640 q 518 689 561 689 q 392 633 461 689 q 272 497 322 576 l 207 0 l 74 0 l 186 865 l 81 865 l 89 932 l 194 932 l 206 1022 l 126 1046 l 135 1094 l 322 1119 l 351 1101 l 329 932 l 503 932 l 493 865 l 321 865 l 285 599 z "},"ĥ":{"ha":851,"x_min":43,"x_max":779,"o":"m 285 599 q 420 735 342 682 q 579 789 499 789 q 699 742 657 789 q 740 586 740 694 q 728 476 740 547 q 706 343 717 404 l 696 288 q 671 110 671 165 q 692 69 671 69 q 721 78 707 69 q 761 110 735 88 l 779 74 q 720 17 764 49 q 619 -14 676 -14 q 549 7 571 -14 q 528 71 528 28 q 550 228 528 108 q 564 307 553 243 q 592 460 582 399 q 601 576 601 522 q 581 665 600 640 q 518 689 561 689 q 392 633 461 689 q 272 497 322 576 l 207 0 l 74 0 l 206 1022 l 126 1046 l 135 1094 l 322 1119 l 351 1101 l 285 599 m 43 1199 l 269 1425 l 369 1425 l 518 1197 l 468 1163 l 313 1328 l 86 1164 l 43 1199 z "},"i":{"ha":436,"x_min":103,"x_max":385,"o":"m 244 106 q 251 80 244 89 q 267 71 257 71 q 298 81 282 71 q 338 113 314 90 l 356 79 q 294 18 336 50 q 196 -14 251 -14 q 126 8 150 -14 q 106 72 101 29 q 142 342 108 107 q 189 676 161 468 l 103 708 l 111 756 l 308 788 l 339 772 l 246 119 l 244 106 m 289 939 q 238 961 260 939 q 217 1015 217 983 q 244 1086 217 1057 q 308 1115 271 1115 q 364 1094 343 1115 q 385 1042 385 1072 q 358 969 385 999 q 289 939 332 939 z "},"ı":{"ha":436,"x_min":101,"x_max":356,"o":"m 244 106 q 251 80 244 89 q 267 71 257 71 q 298 81 282 71 q 338 113 314 90 l 356 79 q 294 18 336 50 q 196 -14 251 -14 q 126 8 150 -14 q 106 72 101 29 q 142 342 108 107 q 189 676 161 468 l 103 708 l 111 756 l 308 788 l 339 772 l 246 119 l 244 106 z "},"í":{"ha":436,"x_min":103,"x_max":518,"o":"m 429 1175 l 518 1088 q 457 1013 506 1064 q 351 915 408 963 q 254 847 293 867 l 211 886 l 429 1175 m 244 106 q 251 80 244 89 q 267 71 257 71 q 298 81 282 71 q 338 113 314 90 l 356 79 q 294 18 336 50 q 196 -14 251 -14 q 126 8 150 -14 q 106 72 101 29 q 142 342 108 107 q 189 676 161 468 l 103 708 l 111 756 l 308 788 l 339 772 l 246 119 l 244 106 z "},"ĭ":{"ha":436,"x_min":86,"x_max":513,"o":"m 244 106 q 251 80 244 89 q 267 71 257 71 q 298 81 282 71 q 338 113 314 90 l 356 79 q 294 18 336 50 q 196 -14 251 -14 q 126 8 150 -14 q 106 72 101 29 q 142 342 108 107 q 189 676 161 468 l 103 708 l 111 756 l 308 788 l 339 772 l 246 119 l 244 106 m 286 883 q 176 915 221 883 q 108 996 131 946 q 86 1101 86 1046 l 86 1124 l 161 1124 l 163 1100 q 199 1017 168 1053 q 288 982 229 982 q 394 1027 356 982 q 440 1124 432 1072 l 513 1124 q 511 1103 513 1108 q 477 999 507 1050 q 397 916 447 949 q 286 883 347 883 z "},"î":{"ha":436,"x_min":35,"x_max":513,"o":"m 35 872 l 274 1122 l 374 1122 l 513 871 l 461 838 l 308 1021 l 78 839 l 35 872 m 244 106 q 251 80 244 89 q 267 71 257 71 q 298 81 282 71 q 338 113 314 90 l 356 79 q 294 18 336 50 q 196 -14 251 -14 q 126 8 150 -14 q 106 72 101 29 q 142 342 108 107 q 189 676 161 468 l 103 708 l 111 756 l 308 788 l 339 772 l 246 119 l 244 106 z "},"ï":{"ha":436,"x_min":71,"x_max":524,"o":"m 140 939 q 91 963 111 939 q 71 1018 71 986 q 98 1087 72 1058 q 160 1115 124 1115 q 212 1094 192 1115 q 232 1042 232 1072 q 207 968 232 997 q 140 939 182 939 m 432 939 q 383 963 404 939 q 363 1018 363 986 q 389 1088 364 1060 q 451 1115 414 1115 q 503 1094 483 1115 q 524 1042 524 1072 q 498 969 524 999 q 432 939 472 939 m 244 106 q 251 80 244 89 q 267 71 257 71 q 298 81 282 71 q 338 113 314 90 l 356 79 q 294 18 336 50 q 196 -14 251 -14 q 126 8 150 -14 q 106 72 101 29 q 142 342 108 107 q 189 676 161 468 l 103 708 l 111 756 l 308 788 l 339 772 l 246 119 l 244 106 z "},"ị":{"ha":436,"x_min":78,"x_max":385,"o":"m 244 106 q 251 80 244 89 q 267 71 257 71 q 298 81 282 71 q 338 113 314 90 l 356 79 q 294 18 336 50 q 196 -14 251 -14 q 126 8 150 -14 q 106 72 101 29 q 142 342 108 107 q 189 676 161 468 l 103 708 l 111 756 l 308 788 l 339 772 l 246 119 l 244 106 m 289 939 q 238 961 260 939 q 217 1015 217 983 q 244 1086 217 1057 q 308 1115 271 1115 q 364 1094 343 1115 q 385 1042 385 1072 q 358 969 385 999 q 289 939 332 939 m 78 -196 q 103 -129 78 -156 q 163 -103 129 -103 q 210 -121 194 -103 q 226 -168 226 -139 q 199 -236 226 -211 q 138 -261 172 -261 q 94 -244 110 -261 q 78 -196 78 -226 z "},"ì":{"ha":436,"x_min":14,"x_max":356,"o":"m 244 106 q 251 80 244 89 q 267 71 257 71 q 298 81 282 71 q 338 113 314 90 l 356 79 q 294 18 336 50 q 196 -14 251 -14 q 126 8 150 -14 q 106 72 101 29 q 142 342 108 107 q 189 676 161 468 l 103 708 l 111 756 l 308 788 l 339 772 l 246 119 l 244 106 m 267 849 q 128 958 215 878 q 14 1085 40 1038 l 108 1175 l 311 886 l 267 849 z "},"ỉ":{"ha":436,"x_min":103,"x_max":465,"o":"m 244 106 q 251 80 244 89 q 267 71 257 71 q 298 81 282 71 q 338 113 314 90 l 356 79 q 294 18 336 50 q 196 -14 251 -14 q 126 8 150 -14 q 106 72 101 29 q 142 342 108 107 q 189 676 161 468 l 103 708 l 111 756 l 308 788 l 339 772 l 246 119 l 244 106 m 258 836 q 246 865 251 847 q 242 894 240 883 q 258 924 246 913 q 294 949 271 935 q 327 971 315 961 q 346 994 339 981 l 347 1000 q 349 1014 349 1004 q 286 1064 349 1058 q 240 1060 247 1064 l 254 1153 q 278 1160 257 1157 q 314 1163 299 1163 q 426 1133 386 1163 q 465 1050 465 1104 q 463 1018 465 1029 q 433 963 456 985 q 372 919 411 942 q 354 907 363 913 q 339 897 346 901 q 315 844 314 879 l 258 836 z "},"ĳ":{"ha":876,"x_min":103,"x_max":829,"o":"m 244 106 q 251 80 244 89 q 267 71 257 71 q 298 81 282 71 q 338 113 314 90 l 356 79 q 294 18 336 50 q 196 -14 251 -14 q 126 8 150 -14 q 106 72 101 29 q 142 342 108 107 q 189 676 161 468 l 103 708 l 111 756 l 308 788 l 339 772 l 246 119 l 244 106 m 289 939 q 238 961 260 939 q 217 1015 217 983 q 244 1086 217 1057 q 308 1115 271 1115 q 364 1094 343 1115 q 385 1042 385 1072 q 358 969 385 999 q 289 939 332 939 m 692 1 q 590 -262 671 -171 q 386 -353 508 -353 q 285 -328 310 -353 l 306 -274 q 332 -281 314 -278 q 364 -283 350 -283 q 499 -197 456 -283 q 561 40 543 -111 l 633 681 l 535 710 l 544 756 l 754 788 l 783 772 l 692 1 m 733 939 q 683 961 704 939 q 661 1015 661 983 q 688 1086 661 1057 q 753 1115 715 1115 q 808 1094 788 1115 q 829 1042 829 1072 q 803 969 829 999 q 733 939 776 939 z "},"ī":{"ha":436,"x_min":93,"x_max":463,"o":"m 244 106 q 251 80 244 89 q 267 71 257 71 q 298 81 282 71 q 338 113 314 90 l 356 79 q 294 18 336 50 q 196 -14 251 -14 q 126 8 150 -14 q 106 72 101 29 q 142 342 108 107 q 189 676 161 468 l 103 708 l 111 756 l 308 788 l 339 772 l 246 119 l 244 106 m 106 1063 l 463 1063 l 450 965 l 93 965 l 106 1063 z "},"į":{"ha":436,"x_min":0,"x_max":382,"o":"m 306 1115 q 361 1093 340 1115 q 382 1039 382 1071 q 354 967 381 996 q 286 939 328 939 q 235 961 257 939 q 214 1015 214 983 q 241 1086 214 1057 q 306 1115 268 1115 m 244 106 q 251 80 244 89 q 267 71 257 71 q 298 81 282 71 q 338 113 314 90 l 356 79 q 322 41 344 63 q 271 6 300 19 q 165 -81 201 -44 q 128 -151 128 -117 q 139 -193 126 -179 q 174 -207 151 -207 q 279 -161 224 -207 l 297 -219 q 110 -293 215 -293 q 28 -265 56 -293 q 3 -197 0 -237 q 26 -119 3 -161 q 86 -57 54 -82 q 160 -10 118 -32 q 106 72 100 6 q 142 342 108 107 q 189 676 161 468 l 103 708 l 111 756 l 308 788 l 339 772 l 246 119 l 244 106 z "},"ĩ":{"ha":436,"x_min":43,"x_max":535,"o":"m 244 106 q 251 80 244 89 q 267 71 257 71 q 298 81 282 71 q 338 113 314 90 l 356 79 q 294 18 336 50 q 196 -14 251 -14 q 126 8 150 -14 q 106 72 101 29 q 142 342 108 107 q 189 676 161 468 l 103 708 l 111 756 l 308 788 l 339 772 l 246 119 l 244 106 m 43 997 q 113 1077 67 1043 q 208 1111 160 1111 q 264 1097 242 1111 q 315 1056 286 1083 q 352 1022 336 1033 q 389 1011 368 1011 q 447 1033 424 1011 q 496 1089 471 1054 l 535 1028 q 471 943 518 979 q 372 907 424 907 q 310 921 332 907 q 260 964 288 935 q 224 996 240 985 q 183 1008 207 1007 q 75 942 139 1008 l 43 997 z "},"j":{"ha":440,"x_min":-151,"x_max":393,"o":"m 256 1 q 153 -262 235 -171 q -50 -353 72 -353 q -151 -328 -126 -353 l -131 -274 q -104 -281 -122 -278 q -72 -283 -86 -283 q 63 -197 19 -283 q 125 40 107 -111 l 197 681 l 99 710 l 108 756 l 318 788 l 347 772 l 256 1 m 297 939 q 247 961 268 939 q 225 1015 225 983 q 252 1086 225 1057 q 317 1115 279 1115 q 372 1094 351 1115 q 393 1042 393 1072 q 367 969 393 999 q 297 939 340 939 z "},"ȷ":{"ha":440,"x_min":-151,"x_max":347,"o":"m 256 1 q 153 -262 235 -171 q -50 -353 72 -353 q -151 -328 -126 -353 l -131 -274 q -104 -281 -122 -278 q -72 -283 -86 -283 q 63 -197 19 -283 q 125 40 107 -111 l 197 681 l 99 710 l 108 756 l 318 788 l 347 772 l 256 1 z "},"ĵ":{"ha":440,"x_min":-151,"x_max":485,"o":"m 256 1 q 153 -262 235 -171 q -50 -353 72 -353 q -151 -328 -126 -353 l -131 -274 q -104 -281 -122 -278 q -72 -283 -86 -283 q 63 -197 19 -283 q 125 40 107 -111 l 197 681 l 99 710 l 108 756 l 318 788 l 347 772 l 256 1 m 7 872 l 246 1122 l 346 1122 l 485 871 l 433 838 l 281 1021 l 50 839 l 7 872 z "},"k":{"ha":739,"x_min":67,"x_max":740,"o":"m 318 1119 l 349 1101 l 200 0 l 67 0 l 203 1022 l 122 1046 l 132 1094 l 318 1119 m 269 414 q 332 454 311 442 q 442 531 400 499 q 519 613 485 564 q 546 663 538 638 q 558 718 554 688 q 585 772 561 754 q 639 789 608 789 q 685 771 667 789 q 703 725 703 753 q 671 633 703 678 q 556 528 631 578 q 389 426 482 478 l 569 143 q 609 97 588 115 q 647 79 631 79 q 682 89 661 79 q 722 117 703 99 l 740 79 q 672 17 721 47 q 571 -14 624 -14 q 460 63 499 -14 l 269 414 z "},"ķ":{"ha":739,"x_min":67,"x_max":740,"o":"m 215 -336 q 255 -286 238 -318 q 272 -217 272 -254 q 259 -164 272 -189 q 225 -133 246 -139 l 226 -90 l 304 -32 q 365 -83 343 -43 q 388 -172 388 -122 q 367 -270 388 -225 q 317 -344 347 -315 q 261 -379 288 -372 l 214 -350 l 215 -336 m 318 1119 l 349 1101 l 200 0 l 67 0 l 203 1022 l 122 1046 l 132 1094 l 318 1119 m 269 414 q 332 454 311 442 q 442 531 400 499 q 519 613 485 564 q 546 663 538 638 q 558 718 554 688 q 585 772 561 754 q 639 789 608 789 q 685 771 667 789 q 703 725 703 753 q 671 633 703 678 q 556 528 631 578 q 389 426 482 478 l 569 143 q 609 97 588 115 q 647 79 631 79 q 682 89 661 79 q 722 117 703 99 l 740 79 q 672 17 721 47 q 571 -14 624 -14 q 460 63 499 -14 l 269 414 z "},"ĸ":{"ha":749,"x_min":85,"x_max":756,"o":"m 286 783 l 315 767 l 217 0 l 85 0 l 172 679 l 99 706 l 110 754 l 286 783 m 574 140 q 609 92 589 111 q 647 74 629 74 q 707 96 675 74 l 725 64 q 662 13 706 38 q 569 -12 618 -12 q 508 6 533 -12 q 463 63 482 24 l 281 401 l 618 771 l 756 771 l 404 413 l 574 140 z "},"l":{"ha":417,"x_min":90,"x_max":364,"o":"m 228 119 q 226 104 226 114 q 247 71 226 71 q 278 80 263 71 q 319 113 294 89 l 338 79 q 278 19 321 51 q 181 -14 235 -14 q 90 72 90 -14 q 92 99 90 86 q 96 119 94 113 l 221 1022 l 138 1046 l 150 1094 l 335 1119 l 364 1101 l 228 119 z "},"ĺ":{"ha":417,"x_min":90,"x_max":513,"o":"m 513 1279 q 417 1174 488 1231 q 286 1086 347 1118 l 239 1124 l 431 1360 l 513 1279 m 225 106 q 231 80 225 89 q 246 71 238 71 q 318 113 276 71 l 336 79 q 276 19 319 51 q 179 -14 233 -14 q 90 72 90 -14 q 94 119 90 90 l 213 936 l 131 961 l 142 1010 l 325 1033 l 354 1018 l 226 119 l 225 106 z "},"ľ":{"ha":567,"x_min":90,"x_max":594,"o":"m 228 119 q 226 104 226 114 q 247 71 226 71 q 278 80 263 71 q 319 113 294 89 l 338 79 q 278 19 321 51 q 181 -14 235 -14 q 90 72 90 -14 q 92 99 90 86 q 96 119 94 113 l 221 1022 l 138 1046 l 150 1094 l 335 1119 l 364 1101 l 228 119 m 438 722 q 485 967 485 849 q 479 1030 485 1000 q 465 1072 474 1060 l 476 1096 l 572 1122 q 594 1015 594 1099 q 593 974 594 988 q 556 813 586 890 q 488 690 526 736 l 440 707 l 438 722 z "},"ļ":{"ha":417,"x_min":6,"x_max":364,"o":"m 7 -336 q 47 -286 29 -318 q 64 -217 64 -254 q 51 -164 64 -189 q 17 -133 38 -139 l 18 -90 l 96 -32 q 157 -83 135 -43 q 179 -172 179 -122 q 159 -270 179 -225 q 109 -344 139 -315 q 53 -379 79 -372 l 6 -350 l 7 -336 m 228 119 q 226 104 226 114 q 247 71 226 71 q 278 80 263 71 q 319 113 294 89 l 338 79 q 278 19 321 51 q 181 -14 235 -14 q 90 72 90 -14 q 92 99 90 86 q 96 119 94 113 l 221 1022 l 138 1046 l 150 1094 l 335 1119 l 364 1101 l 228 119 z "},"ŀ":{"ha":536,"x_min":90,"x_max":565,"o":"m 228 119 q 226 104 226 114 q 247 71 226 71 q 278 80 263 71 q 319 113 294 89 l 338 79 q 278 19 321 51 q 181 -14 235 -14 q 90 72 90 -14 q 92 99 90 86 q 96 119 94 113 l 221 1022 l 138 1046 l 150 1094 l 335 1119 l 364 1101 l 228 119 m 399 507 q 428 583 399 553 q 494 614 457 614 q 547 594 529 614 q 565 543 565 575 q 535 464 565 493 q 465 435 506 435 q 417 454 436 435 q 399 507 399 474 z "},"ǉ":{"ha":857,"x_min":90,"x_max":808,"o":"m 228 119 q 226 104 226 114 q 247 71 226 71 q 278 80 263 71 q 319 113 294 89 l 338 79 q 278 19 321 51 q 181 -14 235 -14 q 90 72 90 -14 q 92 99 90 86 q 96 119 94 113 l 221 1022 l 138 1046 l 150 1094 l 335 1119 l 364 1101 l 228 119 m 672 1 q 570 -262 651 -171 q 367 -353 489 -353 q 265 -328 290 -353 l 286 -274 q 313 -281 294 -278 q 344 -283 331 -283 q 480 -197 436 -283 q 542 40 524 -111 l 614 681 l 515 710 l 525 756 l 735 788 l 764 772 l 672 1 m 713 939 q 662 961 683 939 q 640 1015 640 983 q 667 1086 640 1057 q 732 1115 694 1115 q 788 1094 767 1115 q 808 1042 808 1072 q 782 969 808 999 q 713 939 756 939 z "},"ł":{"ha":417,"x_min":47,"x_max":431,"o":"m 228 119 q 226 104 226 114 q 247 71 226 71 q 278 80 263 71 q 319 113 294 89 l 338 79 q 278 19 321 51 q 181 -14 235 -14 q 90 72 90 -14 q 92 99 90 86 q 96 119 94 113 l 153 524 l 47 482 l 47 561 l 163 608 l 221 1022 l 138 1046 l 150 1094 l 335 1119 l 364 1101 l 303 665 l 431 718 l 431 633 l 290 578 l 228 119 z "},"m":{"ha":1296,"x_min":83,"x_max":1222,"o":"m 296 607 q 430 738 353 686 q 585 789 507 789 q 700 747 660 789 q 744 613 740 704 q 869 740 797 690 q 1017 789 942 789 q 1136 740 1093 789 q 1179 586 1179 692 q 1154 396 1179 532 l 1146 343 q 1113 117 1117 176 q 1132 71 1111 71 q 1204 113 1161 71 l 1222 79 q 1160 18 1203 50 q 1060 -14 1117 -14 q 993 7 1013 -14 q 974 68 974 28 q 996 240 974 113 q 1007 310 1004 288 q 1014 346 1008 321 q 1028 433 1017 360 q 1040 569 1040 507 q 1022 663 1040 638 q 960 689 1004 689 q 849 641 910 689 q 742 521 789 593 q 734 439 740 486 q 725 371 728 392 l 721 343 l 675 0 l 539 0 l 581 307 q 610 575 610 489 q 590 666 608 643 q 524 689 572 689 q 401 635 469 689 q 283 504 332 582 l 215 0 l 83 0 l 172 672 l 104 706 l 115 758 l 285 789 l 313 774 l 296 607 z "},"ṁ":{"ha":1296,"x_min":83,"x_max":1222,"o":"m 296 607 q 430 738 353 686 q 585 789 507 789 q 700 747 660 789 q 744 613 740 704 q 869 740 797 690 q 1017 789 942 789 q 1136 740 1093 789 q 1179 586 1179 692 q 1154 396 1179 532 l 1146 343 q 1113 117 1117 176 q 1132 71 1111 71 q 1204 113 1161 71 l 1222 79 q 1160 18 1203 50 q 1060 -14 1117 -14 q 993 7 1013 -14 q 974 68 974 28 q 996 240 974 113 q 1007 310 1004 288 q 1014 346 1008 321 q 1028 433 1017 360 q 1040 569 1040 507 q 1022 663 1040 638 q 960 689 1004 689 q 849 641 910 689 q 742 521 789 593 q 734 439 740 486 q 725 371 728 392 l 721 343 l 675 0 l 539 0 l 581 307 q 610 575 610 489 q 590 666 608 643 q 524 689 572 689 q 401 635 469 689 q 283 504 332 582 l 215 0 l 83 0 l 172 672 l 104 706 l 115 758 l 285 789 l 313 774 l 296 607 m 711 939 q 660 961 682 939 q 639 1015 639 983 q 666 1086 639 1057 q 731 1115 693 1115 q 786 1094 765 1115 q 807 1042 807 1072 q 781 969 807 999 q 711 939 754 939 z "},"n":{"ha":861,"x_min":83,"x_max":779,"o":"m 296 607 q 431 738 354 688 q 588 789 508 789 q 707 742 665 789 q 749 588 749 694 q 718 375 749 531 l 713 343 l 701 276 q 679 108 679 160 q 697 71 679 71 q 763 106 724 71 l 779 69 q 750 38 772 57 q 695 2 728 18 q 624 -14 663 -14 q 536 71 536 -14 q 561 240 536 113 l 574 307 l 579 340 q 601 472 593 415 q 610 576 610 528 q 591 665 610 640 q 525 689 572 689 q 401 634 469 689 q 283 501 332 579 l 215 0 l 83 0 l 172 672 l 104 706 l 115 758 l 285 789 l 314 774 l 296 607 z "},"ń":{"ha":861,"x_min":83,"x_max":779,"o":"m 636 1175 l 725 1088 q 664 1013 713 1064 q 558 915 615 963 q 461 847 500 867 l 418 886 l 636 1175 m 296 607 q 431 738 354 688 q 588 789 508 789 q 707 742 665 789 q 749 588 749 694 q 718 375 749 531 l 713 343 l 701 276 q 679 108 679 160 q 697 71 679 71 q 763 106 724 71 l 779 69 q 750 38 772 57 q 695 2 728 18 q 624 -14 663 -14 q 536 71 536 -14 q 561 240 536 113 l 574 307 l 579 340 q 601 472 593 415 q 610 576 610 528 q 591 665 610 640 q 525 689 572 689 q 401 634 469 689 q 283 501 332 579 l 215 0 l 83 0 l 172 672 l 104 706 l 115 758 l 285 789 l 314 774 l 296 607 z "},"ŉ":{"ha":1007,"x_min":-24,"x_max":925,"o":"m 142 1169 q 235 1098 204 1153 q 265 976 265 1043 q 188 764 265 853 q 4 629 111 675 l -24 676 l -24 690 q 51 740 14 703 q 111 826 88 776 q 135 929 135 876 q 113 1011 135 976 q 53 1053 92 1046 l 56 1076 l 142 1169 m 442 607 q 577 738 500 688 q 733 789 654 789 q 853 742 811 789 q 894 588 894 694 q 864 375 894 531 l 858 343 l 847 276 q 825 108 825 160 q 843 71 825 71 q 908 106 869 71 l 925 69 q 896 38 918 57 q 841 2 874 18 q 769 -14 808 -14 q 682 71 682 -14 q 707 240 682 113 l 719 307 l 725 340 q 747 472 739 415 q 756 576 756 528 q 737 665 756 640 q 671 689 718 689 q 547 634 615 689 q 429 501 478 579 l 361 0 l 229 0 l 318 672 l 250 706 l 261 758 l 431 789 l 460 774 l 442 607 z "},"ň":{"ha":861,"x_min":83,"x_max":779,"o":"m 278 1089 l 332 1122 l 490 949 l 708 1122 l 756 1089 l 529 851 l 431 851 l 278 1089 m 296 607 q 431 738 354 688 q 588 789 508 789 q 707 742 665 789 q 749 588 749 694 q 718 375 749 531 l 713 343 l 701 276 q 679 108 679 160 q 697 71 679 71 q 763 106 724 71 l 779 69 q 750 38 772 57 q 695 2 728 18 q 624 -14 663 -14 q 536 71 536 -14 q 561 240 536 113 l 574 307 l 579 340 q 601 472 593 415 q 610 576 610 528 q 591 665 610 640 q 525 689 572 689 q 401 634 469 689 q 283 501 332 579 l 215 0 l 83 0 l 172 672 l 104 706 l 115 758 l 285 789 l 314 774 l 296 607 z "},"ņ":{"ha":861,"x_min":83,"x_max":779,"o":"m 239 -336 q 278 -286 261 -318 q 296 -217 296 -254 q 283 -164 296 -189 q 249 -133 269 -139 l 250 -90 l 328 -32 q 389 -83 367 -43 q 411 -172 411 -122 q 391 -270 411 -225 q 341 -344 371 -315 q 285 -379 311 -372 l 238 -350 l 239 -336 m 296 607 q 431 738 354 688 q 588 789 508 789 q 707 742 665 789 q 749 588 749 694 q 718 375 749 531 l 713 343 l 701 276 q 679 108 679 160 q 697 71 679 71 q 763 106 724 71 l 779 69 q 750 38 772 57 q 695 2 728 18 q 624 -14 663 -14 q 536 71 536 -14 q 561 240 536 113 l 574 307 l 579 340 q 601 472 593 415 q 610 576 610 528 q 591 665 610 640 q 525 689 572 689 q 401 634 469 689 q 283 501 332 579 l 215 0 l 83 0 l 172 672 l 104 706 l 115 758 l 285 789 l 314 774 l 296 607 z "},"ṅ":{"ha":861,"x_min":83,"x_max":779,"o":"m 296 607 q 431 738 354 688 q 588 789 508 789 q 707 742 665 789 q 749 588 749 694 q 718 375 749 531 l 713 343 l 701 276 q 679 108 679 160 q 697 71 679 71 q 763 106 724 71 l 779 69 q 750 38 772 57 q 695 2 728 18 q 624 -14 663 -14 q 536 71 536 -14 q 561 240 536 113 l 574 307 l 579 340 q 601 472 593 415 q 610 576 610 528 q 591 665 610 640 q 525 689 572 689 q 401 634 469 689 q 283 501 332 579 l 215 0 l 83 0 l 172 672 l 104 706 l 115 758 l 285 789 l 314 774 l 296 607 m 494 939 q 444 961 465 939 q 422 1015 422 983 q 449 1086 422 1057 q 514 1115 476 1115 q 569 1094 549 1115 q 590 1042 590 1072 q 564 969 590 999 q 494 939 538 939 z "},"ŋ":{"ha":861,"x_min":83,"x_max":756,"o":"m 296 607 q 429 736 353 685 q 588 788 506 788 q 749 583 756 788 q 721 279 740 435 q 676 0 701 124 q 564 -269 639 -186 q 364 -353 489 -353 q 302 -347 329 -353 q 264 -328 275 -340 l 285 -274 q 312 -281 294 -278 q 342 -283 329 -283 q 476 -202 431 -283 q 547 25 521 -121 q 582 279 561 106 q 610 574 603 453 q 592 663 611 636 q 525 689 574 689 q 402 635 471 689 q 282 499 333 581 l 215 0 l 83 0 l 172 664 l 104 699 l 114 750 l 283 781 l 311 767 l 296 607 z "},"ǌ":{"ha":1301,"x_min":83,"x_max":1256,"o":"m 296 607 q 431 738 354 688 q 588 789 508 789 q 707 742 665 789 q 749 588 749 694 q 718 375 749 531 l 713 343 l 701 276 q 679 108 679 160 q 697 71 679 71 q 763 106 724 71 l 779 69 q 750 38 772 57 q 695 2 728 18 q 624 -14 663 -14 q 536 71 536 -14 q 561 240 536 113 l 574 307 l 579 340 q 601 472 593 415 q 610 576 610 528 q 591 665 610 640 q 525 689 572 689 q 401 634 469 689 q 283 501 332 579 l 215 0 l 83 0 l 172 672 l 104 706 l 115 758 l 285 789 l 314 774 l 296 607 m 1117 1 q 1015 -262 1096 -171 q 811 -353 933 -353 q 710 -328 735 -353 l 731 -274 q 757 -281 739 -278 q 789 -283 775 -283 q 924 -197 881 -283 q 986 40 968 -111 l 1058 681 l 960 710 l 969 756 l 1179 788 l 1208 772 l 1117 1 m 1160 939 q 1109 961 1131 939 q 1088 1015 1088 983 q 1115 1086 1088 1057 q 1179 1115 1142 1115 q 1235 1094 1214 1115 q 1256 1042 1256 1072 q 1229 969 1256 999 q 1160 939 1203 939 z "},"ñ":{"ha":861,"x_min":83,"x_max":779,"o":"m 296 607 q 431 738 354 688 q 588 789 508 789 q 707 742 665 789 q 749 588 749 694 q 718 375 749 531 l 713 343 l 701 276 q 679 108 679 160 q 697 71 679 71 q 763 106 724 71 l 779 69 q 750 38 772 57 q 695 2 728 18 q 624 -14 663 -14 q 536 71 536 -14 q 561 240 536 113 l 574 307 l 579 340 q 601 472 593 415 q 610 576 610 528 q 591 665 610 640 q 525 689 572 689 q 401 634 469 689 q 283 501 332 579 l 215 0 l 83 0 l 172 672 l 104 706 l 115 758 l 285 789 l 314 774 l 296 607 m 250 997 q 320 1077 274 1043 q 415 1111 367 1111 q 471 1097 449 1111 q 522 1056 493 1083 q 559 1022 543 1033 q 596 1011 575 1011 q 654 1033 631 1011 q 703 1089 678 1054 l 742 1028 q 678 943 725 979 q 579 907 631 907 q 517 921 539 907 q 467 964 494 935 q 431 996 447 985 q 390 1008 414 1007 q 282 942 346 1008 l 250 997 z "},"o":{"ha":785,"x_min":51,"x_max":729,"o":"m 450 789 q 657 706 585 789 q 729 468 729 622 q 678 232 729 343 q 538 53 628 121 q 332 -15 447 -15 q 124 68 196 -15 q 51 306 51 151 q 102 543 51 432 q 244 722 153 654 q 450 789 335 789 m 431 715 q 303 655 356 715 q 223 501 250 594 q 196 311 196 407 q 235 122 196 186 q 354 57 275 57 q 480 119 428 57 q 558 276 532 182 q 585 467 585 371 q 546 652 585 589 q 431 715 507 715 z "},"ó":{"ha":785,"x_min":51,"x_max":729,"o":"m 603 1175 l 692 1088 q 631 1013 679 1064 q 524 915 582 963 q 428 847 467 867 l 385 886 l 603 1175 m 450 789 q 657 706 585 789 q 729 468 729 622 q 678 232 729 343 q 538 53 628 121 q 332 -15 447 -15 q 124 68 196 -15 q 51 306 51 151 q 102 543 51 432 q 244 722 153 654 q 450 789 335 789 m 431 715 q 303 655 356 715 q 223 501 250 594 q 196 311 196 407 q 235 122 196 186 q 354 57 275 57 q 480 119 428 57 q 558 276 532 182 q 585 467 585 371 q 546 652 585 589 q 431 715 507 715 z "},"ŏ":{"ha":785,"x_min":51,"x_max":729,"o":"m 450 789 q 657 706 585 789 q 729 468 729 622 q 678 232 729 343 q 538 53 628 121 q 332 -15 447 -15 q 124 68 196 -15 q 51 306 51 151 q 102 543 51 432 q 244 722 153 654 q 450 789 335 789 m 431 715 q 303 655 356 715 q 223 501 250 594 q 196 311 196 407 q 235 122 196 186 q 354 57 275 57 q 480 119 428 57 q 558 276 532 182 q 585 467 585 371 q 546 652 585 589 q 431 715 507 715 m 461 883 q 351 915 396 883 q 283 996 306 946 q 261 1101 261 1046 l 261 1124 l 336 1124 l 338 1100 q 374 1017 343 1053 q 463 982 404 982 q 569 1027 531 982 q 615 1124 607 1072 l 688 1124 q 686 1103 688 1108 q 652 999 682 1050 q 572 916 622 949 q 461 883 522 883 z "},"ô":{"ha":785,"x_min":51,"x_max":729,"o":"m 217 872 l 456 1122 l 556 1122 l 694 871 l 643 838 l 490 1021 l 260 839 l 217 872 m 450 789 q 657 706 585 789 q 729 468 729 622 q 678 232 729 343 q 538 53 628 121 q 332 -15 447 -15 q 124 68 196 -15 q 51 306 51 151 q 102 543 51 432 q 244 722 153 654 q 450 789 335 789 m 431 715 q 303 655 356 715 q 223 501 250 594 q 196 311 196 407 q 235 122 196 186 q 354 57 275 57 q 480 119 428 57 q 558 276 532 182 q 585 467 585 371 q 546 652 585 589 q 431 715 507 715 z "},"ố":{"ha":785,"x_min":51,"x_max":918,"o":"m 844 1290 l 918 1218 q 824 1115 900 1186 q 700 1019 749 1043 l 665 1051 l 844 1290 m 210 872 l 449 1122 l 549 1122 l 688 871 l 636 838 l 483 1021 l 253 839 l 210 872 m 450 789 q 657 706 585 789 q 729 468 729 622 q 678 232 729 343 q 538 53 628 121 q 332 -15 447 -15 q 124 68 196 -15 q 51 306 51 151 q 102 543 51 432 q 244 722 153 654 q 450 789 335 789 m 431 715 q 303 655 356 715 q 223 501 250 594 q 196 311 196 407 q 235 122 196 186 q 354 57 275 57 q 480 119 428 57 q 558 276 532 182 q 585 467 585 371 q 546 652 585 589 q 431 715 507 715 z "},"ộ":{"ha":785,"x_min":51,"x_max":729,"o":"m 450 789 q 657 706 585 789 q 729 468 729 622 q 678 232 729 343 q 538 53 628 121 q 332 -15 447 -15 q 124 68 196 -15 q 51 306 51 151 q 102 543 51 432 q 244 722 153 654 q 450 789 335 789 m 431 715 q 303 655 356 715 q 223 501 250 594 q 196 311 196 407 q 235 122 196 186 q 354 57 275 57 q 480 119 428 57 q 558 276 532 182 q 585 467 585 371 q 546 652 585 589 q 431 715 507 715 m 236 -218 q 262 -151 236 -178 q 321 -125 288 -125 q 369 -143 353 -125 q 385 -190 385 -161 q 358 -258 385 -233 q 296 -283 331 -283 q 252 -266 268 -283 q 236 -218 236 -249 m 210 872 l 449 1122 l 549 1122 l 688 871 l 636 838 l 483 1021 l 253 839 l 210 872 z "},"ồ":{"ha":785,"x_min":51,"x_max":747,"o":"m 710 1081 q 596 1170 668 1104 q 501 1275 524 1236 l 579 1350 l 747 1111 l 710 1081 m 210 872 l 449 1122 l 549 1122 l 688 871 l 636 838 l 483 1021 l 253 839 l 210 872 m 450 789 q 657 706 585 789 q 729 468 729 622 q 678 232 729 343 q 538 53 628 121 q 332 -15 447 -15 q 124 68 196 -15 q 51 306 51 151 q 102 543 51 432 q 244 722 153 654 q 450 789 335 789 m 431 715 q 303 655 356 715 q 223 501 250 594 q 196 311 196 407 q 235 122 196 186 q 354 57 275 57 q 480 119 428 57 q 558 276 532 182 q 585 467 585 371 q 546 652 585 589 q 431 715 507 715 z "},"ổ":{"ha":785,"x_min":51,"x_max":874,"o":"m 690 1007 q 680 1033 685 1017 q 676 1058 675 1050 q 691 1084 679 1074 q 724 1107 703 1094 q 753 1127 743 1119 q 768 1147 763 1135 l 769 1153 q 771 1164 771 1157 q 758 1194 771 1182 q 715 1210 744 1207 q 675 1206 681 1210 l 688 1288 q 708 1294 689 1292 q 740 1296 726 1296 q 839 1271 804 1296 q 874 1197 874 1246 q 871 1168 874 1190 q 847 1121 865 1139 q 793 1082 828 1103 q 763 1061 771 1068 q 740 1015 740 1046 l 690 1007 m 210 872 l 449 1122 l 549 1122 l 688 871 l 636 838 l 483 1021 l 253 839 l 210 872 m 450 789 q 657 706 585 789 q 729 468 729 622 q 678 232 729 343 q 538 53 628 121 q 332 -15 447 -15 q 124 68 196 -15 q 51 306 51 151 q 102 543 51 432 q 244 722 153 654 q 450 789 335 789 m 431 715 q 303 655 356 715 q 223 501 250 594 q 196 311 196 407 q 235 122 196 186 q 354 57 275 57 q 480 119 428 57 q 558 276 532 182 q 585 467 585 371 q 546 652 585 589 q 431 715 507 715 z "},"ỗ":{"ha":785,"x_min":51,"x_max":740,"o":"m 294 1243 q 358 1316 315 1285 q 444 1347 400 1347 q 496 1334 475 1347 q 540 1296 517 1321 q 576 1265 561 1275 q 608 1256 590 1256 q 661 1274 640 1256 q 706 1326 682 1293 l 740 1271 q 683 1194 725 1226 q 593 1161 640 1161 q 535 1174 557 1161 q 492 1213 514 1188 q 458 1243 472 1233 q 422 1253 443 1253 q 324 1193 381 1253 l 294 1243 m 210 872 l 449 1122 l 549 1122 l 688 871 l 636 838 l 483 1021 l 253 839 l 210 872 m 450 789 q 657 706 585 789 q 729 468 729 622 q 678 232 729 343 q 538 53 628 121 q 332 -15 447 -15 q 124 68 196 -15 q 51 306 51 151 q 102 543 51 432 q 244 722 153 654 q 450 789 335 789 m 431 715 q 303 655 356 715 q 223 501 250 594 q 196 311 196 407 q 235 122 196 186 q 354 57 275 57 q 480 119 428 57 q 558 276 532 182 q 585 467 585 371 q 546 652 585 589 q 431 715 507 715 z "},"ö":{"ha":785,"x_min":51,"x_max":729,"o":"m 322 939 q 273 963 293 939 q 253 1018 253 986 q 280 1087 254 1058 q 342 1115 306 1115 q 394 1094 374 1115 q 414 1042 414 1072 q 389 968 414 997 q 322 939 364 939 m 614 939 q 565 963 586 939 q 544 1018 544 986 q 571 1088 546 1060 q 633 1115 596 1115 q 685 1094 665 1115 q 706 1042 706 1072 q 680 969 706 999 q 614 939 654 939 m 450 789 q 657 706 585 789 q 729 468 729 622 q 678 232 729 343 q 538 53 628 121 q 332 -15 447 -15 q 124 68 196 -15 q 51 306 51 151 q 102 543 51 432 q 244 722 153 654 q 450 789 335 789 m 431 715 q 303 655 356 715 q 223 501 250 594 q 196 311 196 407 q 235 122 196 186 q 354 57 275 57 q 480 119 428 57 q 558 276 532 182 q 585 467 585 371 q 546 652 585 589 q 431 715 507 715 z "},"ọ":{"ha":785,"x_min":51,"x_max":729,"o":"m 450 789 q 657 706 585 789 q 729 468 729 622 q 678 232 729 343 q 538 53 628 121 q 332 -15 447 -15 q 124 68 196 -15 q 51 306 51 151 q 102 543 51 432 q 244 722 153 654 q 450 789 335 789 m 431 715 q 303 655 356 715 q 223 501 250 594 q 196 311 196 407 q 235 122 196 186 q 354 57 275 57 q 480 119 428 57 q 558 276 532 182 q 585 467 585 371 q 546 652 585 589 q 431 715 507 715 m 236 -218 q 262 -151 236 -178 q 321 -125 288 -125 q 369 -143 353 -125 q 385 -190 385 -161 q 358 -258 385 -233 q 296 -283 331 -283 q 252 -266 268 -283 q 236 -218 236 -249 z "},"ò":{"ha":785,"x_min":51,"x_max":729,"o":"m 450 789 q 657 706 585 789 q 729 468 729 622 q 678 232 729 343 q 538 53 628 121 q 332 -15 447 -15 q 124 68 196 -15 q 51 306 51 151 q 102 543 51 432 q 244 722 153 654 q 450 789 335 789 m 431 715 q 303 655 356 715 q 223 501 250 594 q 196 311 196 407 q 235 122 196 186 q 354 57 275 57 q 480 119 428 57 q 558 276 532 182 q 585 467 585 371 q 546 652 585 589 q 431 715 507 715 m 442 849 q 303 958 390 878 q 189 1085 215 1038 l 283 1175 l 486 886 l 442 849 z "},"ỏ":{"ha":785,"x_min":51,"x_max":729,"o":"m 450 789 q 657 706 585 789 q 729 468 729 622 q 678 232 729 343 q 538 53 628 121 q 332 -15 447 -15 q 124 68 196 -15 q 51 306 51 151 q 102 543 51 432 q 244 722 153 654 q 450 789 335 789 m 431 715 q 303 655 356 715 q 223 501 250 594 q 196 311 196 407 q 235 122 196 186 q 354 57 275 57 q 480 119 428 57 q 558 276 532 182 q 585 467 585 371 q 546 652 585 589 q 431 715 507 715 m 433 836 q 421 865 426 847 q 417 894 415 883 q 433 924 421 913 q 469 949 446 935 q 502 971 490 961 q 521 994 514 981 l 522 1000 q 524 1014 524 1004 q 461 1064 524 1058 q 415 1060 422 1064 l 429 1153 q 453 1160 432 1157 q 489 1163 474 1163 q 601 1133 561 1163 q 640 1050 640 1104 q 638 1018 640 1029 q 608 963 631 985 q 547 919 586 942 q 529 907 538 913 q 514 897 521 901 q 490 844 489 879 l 433 836 z "},"ơ":{"ha":785,"x_min":51,"x_max":826,"o":"m 826 914 l 822 883 q 770 769 814 815 q 661 700 726 724 q 729 468 729 617 q 678 232 729 343 q 538 53 628 121 q 332 -15 447 -15 q 124 68 196 -15 q 51 306 51 151 q 102 543 51 432 q 244 722 153 654 q 450 789 335 789 q 564 769 513 789 q 639 790 611 772 q 680 831 667 807 q 706 890 693 854 q 710 902 707 894 q 711 914 713 910 l 826 914 m 354 57 q 480 119 428 57 q 558 276 532 182 q 585 467 585 371 q 546 652 585 589 q 431 715 507 715 q 303 655 356 715 q 223 501 250 594 q 196 311 196 407 q 235 122 196 186 q 354 57 275 57 z "},"ớ":{"ha":785,"x_min":51,"x_max":826,"o":"m 826 914 l 822 883 q 770 769 814 815 q 661 700 726 724 q 729 468 729 617 q 678 232 729 343 q 538 53 628 121 q 332 -15 447 -15 q 124 68 196 -15 q 51 306 51 151 q 102 543 51 432 q 244 722 153 654 q 450 789 335 789 q 564 769 513 789 q 639 790 611 772 q 680 831 667 807 q 706 890 693 854 q 710 902 707 894 q 711 914 713 910 l 826 914 m 354 57 q 480 119 428 57 q 558 276 532 182 q 585 467 585 371 q 546 652 585 589 q 431 715 507 715 q 303 655 356 715 q 223 501 250 594 q 196 311 196 407 q 235 122 196 186 q 354 57 275 57 m 622 1253 l 711 1165 q 650 1091 699 1142 q 544 992 601 1040 q 447 925 486 944 l 404 964 l 622 1253 z "},"ợ":{"ha":785,"x_min":51,"x_max":826,"o":"m 826 914 l 822 883 q 770 769 814 815 q 661 700 726 724 q 729 468 729 617 q 678 232 729 343 q 538 53 628 121 q 332 -15 447 -15 q 124 68 196 -15 q 51 306 51 151 q 102 543 51 432 q 244 722 153 654 q 450 789 335 789 q 564 769 513 789 q 639 790 611 772 q 680 831 667 807 q 706 890 693 854 q 710 902 707 894 q 711 914 713 910 l 826 914 m 354 57 q 480 119 428 57 q 558 276 532 182 q 585 467 585 371 q 546 652 585 589 q 431 715 507 715 q 303 655 356 715 q 223 501 250 594 q 196 311 196 407 q 235 122 196 186 q 354 57 275 57 m 236 -218 q 262 -151 236 -178 q 321 -125 288 -125 q 369 -143 353 -125 q 385 -190 385 -161 q 358 -258 385 -233 q 296 -283 331 -283 q 252 -266 268 -283 q 236 -218 236 -249 z "},"ờ":{"ha":785,"x_min":51,"x_max":826,"o":"m 826 914 l 822 883 q 770 769 814 815 q 661 700 726 724 q 729 468 729 617 q 678 232 729 343 q 538 53 628 121 q 332 -15 447 -15 q 124 68 196 -15 q 51 306 51 151 q 102 543 51 432 q 244 722 153 654 q 450 789 335 789 q 564 769 513 789 q 639 790 611 772 q 680 831 667 807 q 706 890 693 854 q 710 902 707 894 q 711 914 713 910 l 826 914 m 354 57 q 480 119 428 57 q 558 276 532 182 q 585 467 585 371 q 546 652 585 589 q 431 715 507 715 q 303 655 356 715 q 223 501 250 594 q 196 311 196 407 q 235 122 196 186 q 354 57 275 57 m 489 926 q 350 1035 438 956 q 236 1163 263 1115 l 331 1253 l 533 964 l 489 926 z "},"ở":{"ha":785,"x_min":51,"x_max":826,"o":"m 826 914 l 822 883 q 770 769 814 815 q 661 700 726 724 q 729 468 729 617 q 678 232 729 343 q 538 53 628 121 q 332 -15 447 -15 q 124 68 196 -15 q 51 306 51 151 q 102 543 51 432 q 244 722 153 654 q 450 789 335 789 q 564 769 513 789 q 639 790 611 772 q 680 831 667 807 q 706 890 693 854 q 710 902 707 894 q 711 914 713 910 l 826 914 m 354 57 q 480 119 428 57 q 558 276 532 182 q 585 467 585 371 q 546 652 585 589 q 431 715 507 715 q 303 655 356 715 q 223 501 250 594 q 196 311 196 407 q 235 122 196 186 q 354 57 275 57 m 433 836 q 421 865 426 847 q 417 894 415 883 q 433 924 421 913 q 469 949 446 935 q 502 971 490 961 q 521 994 514 981 l 522 1000 q 524 1014 524 1004 q 461 1064 524 1058 q 415 1060 422 1064 l 429 1153 q 453 1160 432 1157 q 489 1163 474 1163 q 601 1133 561 1163 q 640 1050 640 1104 q 638 1018 640 1029 q 608 963 631 985 q 547 919 586 942 q 529 907 538 913 q 514 897 521 901 q 490 844 489 879 l 433 836 z "},"ỡ":{"ha":785,"x_min":51,"x_max":826,"o":"m 826 914 l 822 883 q 770 769 814 815 q 661 700 726 724 q 729 468 729 617 q 678 232 729 343 q 538 53 628 121 q 332 -15 447 -15 q 124 68 196 -15 q 51 306 51 151 q 102 543 51 432 q 244 722 153 654 q 450 789 335 789 q 564 769 513 789 q 639 790 611 772 q 680 831 667 807 q 706 890 693 854 q 710 902 707 894 q 711 914 713 910 l 826 914 m 354 57 q 480 119 428 57 q 558 276 532 182 q 585 467 585 371 q 546 652 585 589 q 431 715 507 715 q 303 655 356 715 q 223 501 250 594 q 196 311 196 407 q 235 122 196 186 q 354 57 275 57 m 218 997 q 288 1077 242 1043 q 383 1111 335 1111 q 439 1097 417 1111 q 490 1056 461 1083 q 527 1022 511 1033 q 564 1011 543 1011 q 622 1033 599 1011 q 671 1089 646 1054 l 710 1028 q 646 943 693 979 q 547 907 599 907 q 485 921 507 907 q 435 964 463 935 q 399 996 415 985 q 358 1008 382 1007 q 250 942 314 1008 l 218 997 z "},"ő":{"ha":785,"x_min":51,"x_max":804,"o":"m 413 1164 l 499 1100 q 413 966 482 1050 q 297 847 344 882 l 247 876 l 413 1164 m 717 1164 l 804 1101 q 714 965 786 1049 q 594 851 642 882 l 542 881 l 717 1164 m 450 789 q 657 706 585 789 q 729 468 729 622 q 678 232 729 343 q 538 53 628 121 q 332 -15 447 -15 q 124 68 196 -15 q 51 306 51 151 q 102 543 51 432 q 244 722 153 654 q 450 789 335 789 m 431 715 q 303 655 356 715 q 223 501 250 594 q 196 311 196 407 q 235 122 196 186 q 354 57 275 57 q 480 119 428 57 q 558 276 532 182 q 585 467 585 371 q 546 652 585 589 q 431 715 507 715 z "},"ō":{"ha":785,"x_min":51,"x_max":729,"o":"m 290 1063 l 647 1063 l 635 965 l 278 965 l 290 1063 m 450 789 q 657 706 585 789 q 729 468 729 622 q 678 232 729 343 q 538 53 628 121 q 332 -15 447 -15 q 124 68 196 -15 q 51 306 51 151 q 102 543 51 432 q 244 722 153 654 q 450 789 335 789 m 431 715 q 303 655 356 715 q 223 501 250 594 q 196 311 196 407 q 235 122 196 186 q 354 57 275 57 q 480 119 428 57 q 558 276 532 182 q 585 467 585 371 q 546 652 585 589 q 431 715 507 715 z "},"ø":{"ha":785,"x_min":51,"x_max":729,"o":"m 629 735 q 729 469 729 654 q 679 233 729 344 q 538 54 629 122 q 332 -14 447 -14 q 189 18 250 -14 l 118 -90 l 67 -62 l 142 51 q 74 156 97 92 q 51 304 51 221 q 101 544 51 432 q 242 723 151 656 q 450 790 333 790 q 578 765 524 790 l 650 878 l 701 849 l 629 735 m 521 678 q 431 715 485 715 q 302 654 356 715 q 222 499 249 593 q 196 308 196 406 q 224 168 196 215 l 521 678 m 249 110 q 354 58 288 58 q 480 121 428 58 q 558 278 532 183 q 585 468 585 372 q 550 624 585 571 l 249 110 z "},"ǿ":{"ha":785,"x_min":51,"x_max":729,"o":"m 629 735 q 729 469 729 654 q 679 233 729 344 q 538 54 629 122 q 332 -14 447 -14 q 189 18 250 -14 l 118 -90 l 67 -62 l 142 51 q 74 156 97 92 q 51 304 51 221 q 101 544 51 432 q 242 723 151 656 q 450 790 333 790 q 578 765 524 790 l 650 878 l 701 849 l 629 735 m 521 678 q 431 715 485 715 q 302 654 356 715 q 222 499 249 593 q 196 308 196 406 q 224 168 196 215 l 521 678 m 249 110 q 354 58 288 58 q 480 121 428 58 q 558 278 532 183 q 585 468 585 372 q 550 624 585 571 l 249 110 m 560 1175 l 649 1088 q 588 1013 636 1064 q 481 915 539 963 q 385 847 424 867 l 342 886 l 560 1175 z "},"õ":{"ha":785,"x_min":51,"x_max":729,"o":"m 450 789 q 657 706 585 789 q 729 468 729 622 q 678 232 729 343 q 538 53 628 121 q 332 -15 447 -15 q 124 68 196 -15 q 51 306 51 151 q 102 543 51 432 q 244 722 153 654 q 450 789 335 789 m 431 715 q 303 655 356 715 q 223 501 250 594 q 196 311 196 407 q 235 122 196 186 q 354 57 275 57 q 480 119 428 57 q 558 276 532 182 q 585 467 585 371 q 546 652 585 589 q 431 715 507 715 m 218 997 q 288 1077 242 1043 q 383 1111 335 1111 q 439 1097 417 1111 q 490 1056 461 1083 q 527 1022 511 1033 q 564 1011 543 1011 q 622 1033 599 1011 q 671 1089 646 1054 l 710 1028 q 646 943 693 979 q 547 907 599 907 q 485 921 507 907 q 435 964 463 935 q 399 996 415 985 q 358 1008 382 1007 q 250 942 314 1008 l 218 997 z "},"œ":{"ha":1214,"x_min":54,"x_max":1161,"o":"m 1119 132 q 1004 33 1083 79 q 828 -14 925 -14 q 687 20 744 -14 q 597 113 629 54 q 476 19 544 53 q 331 -14 408 -14 q 125 71 196 -14 q 54 310 54 156 q 104 544 54 435 q 245 721 154 654 q 450 788 336 788 q 686 653 619 788 q 811 751 740 715 q 961 788 882 788 q 1110 741 1060 788 q 1160 619 1160 694 q 1081 451 1161 519 q 892 350 1001 383 q 697 314 783 317 q 731 147 692 218 q 856 75 769 75 q 978 103 918 75 q 1090 183 1039 131 l 1119 132 m 931 717 q 815 665 865 717 q 736 535 765 613 q 700 381 707 457 q 847 411 771 383 q 973 490 922 439 q 1024 606 1024 540 q 1000 688 1024 660 q 931 717 976 717 m 429 715 q 303 653 356 715 q 224 497 250 592 q 197 307 197 403 q 237 123 197 188 q 353 58 276 58 q 474 119 424 58 q 553 279 525 181 q 551 297 551 285 q 560 375 551 328 q 578 454 568 422 q 542 641 575 567 q 429 715 508 715 z "},"p":{"ha":796,"x_min":24,"x_max":742,"o":"m 294 676 q 387 756 332 724 q 508 789 442 789 q 682 710 622 789 q 742 494 742 631 q 688 257 742 375 q 534 63 635 139 q 303 -14 433 -14 q 203 0 267 -14 l 154 -353 l 24 -353 l 164 681 l 90 710 l 100 758 l 278 789 l 306 774 l 294 676 m 215 88 q 321 60 253 60 q 472 125 410 60 q 567 290 535 190 q 599 489 599 389 q 565 644 599 588 q 471 700 531 700 q 365 665 414 700 q 283 582 315 629 l 215 88 z "},"ṗ":{"ha":796,"x_min":24,"x_max":742,"o":"m 294 676 q 387 756 332 724 q 508 789 442 789 q 682 710 622 789 q 742 494 742 631 q 688 257 742 375 q 534 63 635 139 q 303 -14 433 -14 q 203 0 267 -14 l 154 -353 l 24 -353 l 164 681 l 90 710 l 100 758 l 278 789 l 306 774 l 294 676 m 215 88 q 321 60 253 60 q 472 125 410 60 q 567 290 535 190 q 599 489 599 389 q 565 644 599 588 q 471 700 531 700 q 365 665 414 700 q 283 582 315 629 l 215 88 m 493 939 q 442 961 464 939 q 421 1015 421 983 q 448 1086 421 1057 q 513 1115 475 1115 q 568 1094 547 1115 q 589 1042 589 1072 q 563 969 589 999 q 493 939 536 939 z "},"þ":{"ha":803,"x_min":29,"x_max":747,"o":"m 297 675 q 392 756 335 724 q 515 789 449 789 q 688 710 629 789 q 747 494 747 631 q 694 258 747 376 q 540 63 640 139 q 308 -14 439 -14 q 203 1 274 -14 l 196 -79 l 157 -353 l 29 -353 l 76 -6 l 211 1022 l 144 1047 l 157 1096 l 325 1119 l 354 1101 l 297 675 m 219 88 q 325 60 257 60 q 479 126 415 60 q 575 291 543 192 q 607 489 607 390 q 573 643 607 586 q 476 700 539 700 q 366 662 418 700 q 283 578 314 624 l 219 88 z "},"q":{"ha":794,"x_min":53,"x_max":718,"o":"m 586 -218 q 590 -253 583 -237 q 606 -268 596 -268 q 678 -224 633 -268 l 696 -260 q 634 -319 679 -286 q 532 -351 589 -351 q 447 -260 443 -351 l 494 92 q 401 17 457 47 q 281 -14 346 -14 q 110 66 167 -14 q 53 278 53 146 q 106 515 53 396 q 258 711 158 633 q 494 789 358 789 q 571 780 529 789 q 643 758 613 771 l 718 776 l 586 -218 m 575 689 q 478 715 538 715 q 322 649 386 715 q 225 483 257 583 q 193 286 193 383 q 226 130 193 185 q 318 75 260 75 q 426 109 375 75 q 508 189 476 143 l 575 689 z "},"r":{"ha":569,"x_min":83,"x_max":585,"o":"m 286 592 q 340 681 303 636 q 430 757 378 726 q 540 788 482 788 q 585 778 574 788 l 556 631 q 488 644 533 644 q 371 605 429 644 q 281 494 313 565 l 217 0 l 83 0 l 171 669 l 101 704 l 111 756 l 275 788 l 303 771 l 293 647 l 286 592 z "},"ŕ":{"ha":569,"x_min":83,"x_max":585,"o":"m 444 1175 l 533 1088 q 472 1013 521 1064 q 366 915 424 963 q 269 847 308 867 l 226 886 l 444 1175 m 286 592 q 340 681 303 636 q 430 757 378 726 q 540 788 482 788 q 585 778 574 788 l 556 631 q 488 644 533 644 q 371 605 429 644 q 281 494 313 565 l 217 0 l 83 0 l 171 669 l 101 704 l 111 756 l 275 788 l 303 771 l 293 647 l 286 592 z "},"ř":{"ha":569,"x_min":83,"x_max":617,"o":"m 139 1089 l 193 1122 l 351 949 l 569 1122 l 617 1089 l 390 851 l 292 851 l 139 1089 m 286 592 q 340 681 303 636 q 430 757 378 726 q 540 788 482 788 q 585 778 574 788 l 556 631 q 488 644 533 644 q 371 605 429 644 q 281 494 313 565 l 217 0 l 83 0 l 171 669 l 101 704 l 111 756 l 275 788 l 303 771 l 293 647 l 286 592 z "},"ŗ":{"ha":569,"x_min":14,"x_max":585,"o":"m 15 -336 q 55 -286 38 -318 q 72 -217 72 -254 q 59 -164 72 -189 q 25 -133 46 -139 l 26 -90 l 104 -32 q 165 -83 143 -43 q 188 -172 188 -122 q 167 -270 188 -225 q 117 -344 147 -315 q 61 -379 88 -372 l 14 -350 l 15 -336 m 286 592 q 340 681 303 636 q 430 757 378 726 q 540 788 482 788 q 585 778 574 788 l 556 631 q 488 644 533 644 q 371 605 429 644 q 281 494 313 565 l 217 0 l 83 0 l 171 669 l 101 704 l 111 756 l 275 788 l 303 771 l 293 647 l 286 592 z "},"s":{"ha":592,"x_min":21,"x_max":549,"o":"m 525 657 q 470 692 514 672 q 372 711 426 711 q 269 683 308 711 q 231 603 231 656 q 262 519 231 556 q 351 439 293 482 q 431 372 401 400 q 485 303 461 344 q 508 208 508 261 q 427 44 508 103 q 226 -14 346 -14 q 102 0 164 -14 q 21 31 40 14 l 43 126 q 122 87 71 106 q 229 68 174 68 q 333 94 290 68 q 376 178 376 119 q 342 264 376 228 q 243 344 308 300 q 100 571 100 443 q 136 685 100 636 q 235 762 172 735 q 374 789 297 789 q 476 780 424 789 q 549 763 528 771 l 525 657 z "},"ś":{"ha":597,"x_min":22,"x_max":608,"o":"m 519 1175 l 608 1088 q 547 1013 596 1064 q 441 915 499 963 q 344 847 383 867 l 301 886 l 519 1175 m 526 657 q 472 692 515 672 q 374 711 428 711 q 271 683 310 711 q 232 603 232 656 q 263 519 232 556 q 353 439 294 482 q 433 372 403 400 q 486 303 463 344 q 510 208 510 261 q 428 44 510 103 q 228 -14 347 -14 q 103 0 165 -14 q 22 31 42 14 l 44 126 q 124 87 72 106 q 231 68 175 68 q 335 94 292 68 q 378 178 378 119 q 344 264 378 228 q 244 344 310 300 q 101 571 101 443 q 138 685 101 636 q 236 762 174 735 q 375 789 299 789 q 477 780 425 789 q 550 763 529 771 l 526 657 z "},"š":{"ha":597,"x_min":22,"x_max":639,"o":"m 161 1089 l 215 1122 l 374 949 l 592 1122 l 639 1089 l 413 851 l 314 851 l 161 1089 m 526 657 q 472 692 515 672 q 374 711 428 711 q 271 683 310 711 q 232 603 232 656 q 263 519 232 556 q 353 439 294 482 q 433 372 403 400 q 486 303 463 344 q 510 208 510 261 q 428 44 510 103 q 228 -14 347 -14 q 103 0 165 -14 q 22 31 42 14 l 44 126 q 124 87 72 106 q 231 68 175 68 q 335 94 292 68 q 378 178 378 119 q 344 264 378 228 q 244 344 310 300 q 101 571 101 443 q 138 685 101 636 q 236 762 174 735 q 375 789 299 789 q 477 780 425 789 q 550 763 529 771 l 526 657 z "},"ş":{"ha":592,"x_min":21,"x_max":549,"o":"m 374 789 q 476 780 424 789 q 549 763 528 771 l 525 657 q 470 692 514 672 q 372 711 426 711 q 269 683 308 711 q 231 603 231 656 q 262 519 231 556 q 351 439 293 482 q 431 372 401 400 q 485 303 461 344 q 508 208 508 261 q 450 64 508 119 q 299 -8 392 8 q 315 -111 315 -54 q 265 -265 315 -212 q 128 -318 215 -318 q 69 -312 100 -318 q 26 -300 38 -307 l 40 -211 q 67 -220 49 -217 q 104 -224 85 -224 q 197 -183 164 -224 q 232 -71 231 -143 q 228 -14 232 -37 l 226 -14 q 102 0 164 -14 q 21 31 40 14 l 43 126 q 122 87 71 106 q 229 68 174 68 q 333 94 290 68 q 376 178 376 119 q 342 264 376 228 q 243 344 308 300 q 100 571 100 443 q 136 685 100 636 q 235 762 172 735 q 374 789 297 789 z "},"ŝ":{"ha":597,"x_min":22,"x_max":604,"o":"m 126 872 l 365 1122 l 465 1122 l 604 871 l 553 838 l 400 1021 l 169 839 l 126 872 m 526 657 q 472 692 515 672 q 374 711 428 711 q 271 683 310 711 q 232 603 232 656 q 263 519 232 556 q 353 439 294 482 q 433 372 403 400 q 486 303 463 344 q 510 208 510 261 q 428 44 510 103 q 228 -14 347 -14 q 103 0 165 -14 q 22 31 42 14 l 44 126 q 124 87 72 106 q 231 68 175 68 q 335 94 292 68 q 378 178 378 119 q 344 264 378 228 q 244 344 310 300 q 101 571 101 443 q 138 685 101 636 q 236 762 174 735 q 375 789 299 789 q 477 780 425 789 q 550 763 529 771 l 526 657 z "},"ș":{"ha":597,"x_min":22,"x_max":550,"o":"m 117 -336 q 156 -286 139 -318 q 174 -217 174 -254 q 160 -164 174 -189 q 126 -133 147 -139 l 128 -90 l 206 -32 q 267 -83 244 -43 q 289 -172 289 -122 q 269 -270 289 -225 q 219 -344 249 -315 q 163 -379 189 -372 l 115 -350 l 117 -336 m 526 657 q 472 692 515 672 q 374 711 428 711 q 271 683 310 711 q 232 603 232 656 q 263 519 232 556 q 353 439 294 482 q 433 372 403 400 q 486 303 463 344 q 510 208 510 261 q 428 44 510 103 q 228 -14 347 -14 q 103 0 165 -14 q 22 31 42 14 l 44 126 q 124 87 72 106 q 231 68 175 68 q 335 94 292 68 q 378 178 378 119 q 344 264 378 228 q 244 344 310 300 q 101 571 101 443 q 138 685 101 636 q 236 762 174 735 q 375 789 299 789 q 477 780 425 789 q 550 763 529 771 l 526 657 z "},"ṡ":{"ha":592,"x_min":21,"x_max":549,"o":"m 525 657 q 470 692 514 672 q 372 711 426 711 q 269 683 308 711 q 231 603 231 656 q 262 519 231 556 q 351 439 293 482 q 431 372 401 400 q 485 303 461 344 q 508 208 508 261 q 427 44 508 103 q 226 -14 346 -14 q 102 0 164 -14 q 21 31 40 14 l 43 126 q 122 87 71 106 q 229 68 174 68 q 333 94 290 68 q 376 178 376 119 q 342 264 376 228 q 243 344 308 300 q 100 571 100 443 q 136 685 100 636 q 235 762 172 735 q 374 789 297 789 q 476 780 424 789 q 549 763 528 771 l 525 657 m 375 939 q 324 961 346 939 q 303 1015 303 983 q 330 1086 303 1057 q 394 1115 357 1115 q 450 1094 429 1115 q 471 1042 471 1072 q 444 969 471 999 q 375 939 418 939 z "}}}
